<svg width="30" height="30" viewBox="0 0 30 30" fill="none" xmlns="http://www.w3.org/2000/svg">
<path d="M15.4688 28.125C11.8635 28.125 8.40584 26.6928 5.85652 24.1435C3.30719 21.5942 1.875 18.1366 1.875 14.5313C1.875 9.02346 5.03906 4.08518 9.93809 1.95295C10.1107 1.8777 10.3021 1.8562 10.4871 1.89126C10.6722 1.92631 10.8424 2.01629 10.9756 2.14947C11.1087 2.28265 11.1987 2.45285 11.2338 2.6379C11.2688 2.82296 11.2473 3.01428 11.1721 3.18694C10.6096 4.47834 10.3125 6.13245 10.3125 7.96877C10.3125 14.4305 15.5695 19.6875 22.0312 19.6875C23.8676 19.6875 25.5217 19.3905 26.8131 18.828C26.9857 18.7527 27.1771 18.7312 27.3621 18.7663C27.5472 18.8013 27.7174 18.8913 27.8506 19.0245C27.9837 19.1576 28.0737 19.3279 28.1088 19.5129C28.1438 19.698 28.1223 19.8893 28.0471 20.0619C25.9148 24.961 20.9766 28.125 15.4688 28.125Z" fill="black"/>
</svg>
