<svg width="58" height="58" viewBox="0 0 58 58" fill="none" xmlns="http://www.w3.org/2000/svg">
<rect width="58" height="58" rx="15" fill="#F7931E"/>
<path d="M23 21.1912V12.6659C23 11.083 24.7515 10.1274 26.0825 10.9841L32.4765 15.0998C33.6768 15.8724 33.7045 17.6176 32.5295 18.428L26.1355 22.8376C24.8087 23.7526 23 22.8029 23 21.1912Z" fill="white"/>
<path d="M29.2115 41.2871C29.6907 41.2871 30.0831 40.8979 30.0417 40.4205C29.9532 39.3991 29.7086 38.3955 29.315 37.4451C28.8105 36.2271 28.0709 35.1203 27.1387 34.1881C26.2064 33.2558 25.0997 32.5163 23.8816 32.0117C22.6635 31.5072 21.358 31.2475 20.0396 31.2475C18.7212 31.2475 17.4157 31.5072 16.1976 32.0117C14.9796 32.5163 13.8728 33.2558 12.9405 34.1881C12.0083 35.1203 11.2688 36.2271 10.7642 37.4451C10.3706 38.3955 10.126 39.3991 10.0375 40.4205C9.99611 40.8979 10.3885 41.2871 10.8677 41.2871V41.2871C11.3469 41.2871 11.7307 40.8976 11.7807 40.421C11.8639 39.6277 12.0611 38.849 12.3675 38.1092C12.7848 37.1017 13.3965 36.1863 14.1676 35.4152C14.9387 34.644 15.8542 34.0324 16.8617 33.615C17.8692 33.1977 18.9491 32.9829 20.0396 32.9829C21.1301 32.9829 22.21 33.1977 23.2175 33.615C24.225 34.0324 25.1405 34.644 25.9116 35.4152C26.6827 36.1863 27.2944 37.1017 27.7117 38.1092C28.0181 38.849 28.2153 39.6277 28.2985 40.421C28.3485 40.8976 28.7323 41.2871 29.2115 41.2871V41.2871Z" fill="#98570C"/>
<path d="M29.7885 41.2871C29.3093 41.2871 28.9169 40.8979 28.9583 40.4205C29.0468 39.3991 29.2914 38.3955 29.685 37.4451C30.1895 36.2271 30.9291 35.1203 31.8613 34.1881C32.7936 33.2558 33.9003 32.5163 35.1184 32.0117C36.0688 31.6181 37.0724 31.3735 38.0938 31.285C38.5712 31.2436 38.9604 31.636 38.9604 32.1152V32.1152C38.9604 32.5944 38.5709 32.9782 38.0943 33.0282C37.301 33.1114 36.5222 33.3086 35.7825 33.615C34.775 34.0324 33.8595 34.644 33.0884 35.4152C32.3173 36.1863 31.7056 37.1017 31.2883 38.1092C30.9819 38.849 30.7847 39.6277 30.7015 40.421C30.6515 40.8976 30.2677 41.2871 29.7885 41.2871V41.2871Z" fill="#98570C"/>
<circle cx="40.5049" cy="31.6337" r="3.63366" fill="#F7931E" stroke="white" stroke-width="2"/>
</svg>
