<svg width="58" height="58" viewBox="0 0 58 58" fill="none" xmlns="http://www.w3.org/2000/svg">
<rect width="58" height="58" rx="15" fill="#F7931E"/>
<path d="M14.8096 19.1904C14.8096 17.5336 16.1527 16.1904 17.8096 16.1904H38.1191C39.7759 16.1904 41.1191 17.5336 41.1191 19.1904V27.8291C41.1191 29.4661 39.8067 30.8009 38.1699 30.8287L23.3438 31.0799C22.0513 31.1018 20.8179 31.625 19.9039 32.5391L19.6937 32.7492C17.8913 34.5516 14.8096 33.2751 14.8096 30.7261V19.1904Z" stroke="white" stroke-width="2"/>
<path d="M44.1904 29.619C44.1904 28.5144 43.295 27.619 42.1904 27.619H30.3095C29.2049 27.619 28.3095 28.5144 28.3095 29.619V35.7826C28.3095 36.8728 29.1826 37.7621 30.2726 37.7822L38.8791 37.9412C39.4263 37.9513 39.9455 38.1852 40.3156 38.5883L40.7171 39.0257C41.9501 40.3689 44.1904 39.4966 44.1904 37.6732V37.1131V29.619Z" fill="#98570C"/>
</svg>
