<svg width="24" height="26" viewBox="0 0 24 26" fill="none" xmlns="http://www.w3.org/2000/svg">
<path fill-rule="evenodd" clip-rule="evenodd" d="M13.7175 16.7312C15.127 16.7312 16.2743 17.8703 16.2743 19.2705V22.8717C16.2743 23.1726 16.5155 23.4138 16.8246 23.4208H19.056C20.8144 23.4208 22.2439 22.0089 22.2439 20.2739V10.0604C22.2357 9.46332 21.9512 8.90137 21.463 8.5279L13.7444 2.3722C12.7083 1.55151 11.2589 1.55151 10.2193 2.37454L2.55337 8.52556C2.04644 8.91073 1.76195 9.47268 1.7561 10.0803V20.2739C1.7561 22.0089 3.18556 23.4208 4.944 23.4208H7.19649C7.51376 23.4208 7.77132 23.1691 7.77132 22.86C7.77132 22.7921 7.77951 22.7242 7.79356 22.6598V19.2705C7.79356 17.8785 8.93385 16.7406 10.3329 16.7312H13.7175ZM19.056 25.1769H16.8035C15.5134 25.1464 14.5182 24.1338 14.5182 22.8717V19.2705C14.5182 18.8385 14.1588 18.4873 13.7175 18.4873H10.3387C9.90673 18.4897 9.54966 18.8421 9.54966 19.2705V22.86C9.54966 22.9478 9.53795 23.0321 9.51337 23.1117C9.38693 24.2707 8.39649 25.1769 7.19649 25.1769H4.944C2.21737 25.1769 0 22.9771 0 20.2739V10.0721C0.0117073 8.90839 0.547902 7.84303 1.47395 7.14176L9.12468 1.00127C10.8094 -0.333366 13.1567 -0.333366 14.8379 0.998927L22.5436 7.14527C23.4486 7.83483 23.9848 8.89786 24 10.0475V20.2739C24 22.9771 21.7826 25.1769 19.056 25.1769Z" fill="#F7931E"/>
</svg>
