<svg width="58" height="58" viewBox="0 0 58 58" fill="none" xmlns="http://www.w3.org/2000/svg">
<rect width="58" height="58" rx="15" fill="#F7931E"/>
<circle cx="29" cy="29.0008" r="14.1905" stroke="white" stroke-width="2"/>
<path d="M20.3893 31.0574L20.7033 31.9087C20.7151 31.9408 20.7456 31.962 20.7797 31.962C20.8138 31.962 20.8444 31.9408 20.8562 31.9087L21.1702 31.0574C21.4243 30.3681 21.9676 29.8248 22.6568 29.5707L23.5081 29.2567C23.5401 29.2449 23.5614 29.2144 23.5614 29.1803C23.5614 29.1462 23.5401 29.1157 23.5081 29.1039L22.6567 28.7899C21.9676 28.5357 21.4243 27.9925 21.1702 27.3033L20.8562 26.4519C20.8444 26.4199 20.8138 26.3987 20.7797 26.3987C20.7456 26.3987 20.7151 26.4199 20.7033 26.4519L20.3893 27.3033C20.1351 27.9925 19.5919 28.5357 18.9027 28.7899L18.0513 29.1039C18.0193 29.1157 17.998 29.1462 17.998 29.1803C17.998 29.2144 18.0193 29.2449 18.0513 29.2567L18.9026 29.5707C19.5919 29.8248 20.1351 30.3681 20.3893 31.0574Z" fill="#98570C"/>
<path d="M28.5133 31.0574L28.8273 31.9087C28.8391 31.9408 28.8696 31.962 28.9038 31.962C28.9379 31.962 28.9684 31.9408 28.9802 31.9087L29.2942 31.0574C29.5483 30.3681 30.0916 29.8248 30.7808 29.5707L31.6321 29.2567C31.6641 29.2449 31.6854 29.2144 31.6854 29.1803C31.6854 29.1462 31.6641 29.1157 31.6321 29.1039L30.7807 28.7899C30.0916 28.5357 29.5483 27.9925 29.2942 27.3033L28.9802 26.4519C28.9684 26.4199 28.9379 26.3987 28.9038 26.3987C28.8696 26.3987 28.8391 26.4199 28.8273 26.4519L28.5133 27.3033C28.2592 27.9925 27.7159 28.5357 27.0267 28.7899L26.1753 29.1039C26.1433 29.1157 26.1221 29.1462 26.1221 29.1803C26.1221 29.2144 26.1433 29.2449 26.1753 29.2567L27.0267 29.5707C27.7159 29.8248 28.2592 30.3681 28.5133 31.0574Z" fill="#98570C"/>
<path d="M36.6374 31.0574L36.9513 31.9087C36.9631 31.9408 36.9937 31.962 37.0278 31.962C37.0619 31.962 37.0924 31.9408 37.1042 31.9087L37.4182 31.0574C37.6724 30.3681 38.2157 29.8248 38.9048 29.5707L39.7562 29.2567C39.7882 29.2449 39.8094 29.2144 39.8094 29.1803C39.8094 29.1462 39.7882 29.1157 39.7562 29.1039L38.9048 28.7899C38.2156 28.5357 37.6723 27.9925 37.4182 27.3033L37.1042 26.4519C37.0924 26.4199 37.0619 26.3987 37.0278 26.3987C36.9937 26.3987 36.9631 26.4199 36.9513 26.4519L36.6374 27.3033C36.3832 27.9925 35.8399 28.5357 35.1507 28.7899L34.2994 29.1039C34.2673 29.1157 34.2461 29.1462 34.2461 29.1803C34.2461 29.2144 34.2673 29.2449 34.2994 29.2567L35.1507 29.5707C35.8399 29.8248 36.3832 30.3681 36.6374 31.0574Z" fill="#98570C"/>
</svg>
