<svg width="58" height="58" viewBox="0 0 58 58" fill="none" xmlns="http://www.w3.org/2000/svg">
<rect width="58" height="58" rx="15" fill="#F7931E"/>
<path fill-rule="evenodd" clip-rule="evenodd" d="M29.971 31.6777C29.5685 29.7852 28.5883 28.5327 27.5613 27.7141C26.8953 27.1833 26.2097 26.8349 25.649 26.6126C25.6194 26.6009 25.5902 26.5895 25.5613 26.5785V37.7231C25.5613 37.8714 25.5507 38.0178 25.53 38.1617C25.2572 40.0651 23.2305 41.5476 20.7806 41.5476C18.1456 41.5476 16 39.8323 16 37.7231C16 35.6139 18.1456 33.8986 20.7806 33.8986C21.0778 33.8986 21.3679 33.9212 21.649 33.964C22.3529 34.0712 23.0003 34.3055 23.5613 34.6306C23.5908 34.6477 23.62 34.665 23.649 34.6826V17.6444C23.649 17.1415 24.0372 16.7265 24.5382 16.6921C25.0316 16.6634 25.4829 17.0172 25.5517 17.5144C25.5577 17.557 25.5664 17.6004 25.5776 17.6444C25.5924 17.7022 25.6114 17.7611 25.6341 17.8208C25.6389 17.8334 25.6439 17.846 25.649 17.8587C25.8135 18.2658 26.1412 18.7072 26.439 19.1073L26.5557 19.2641C27.2052 20.1428 28.1237 20.7582 29.0959 21.4095L29.099 21.4116C30.4029 22.2853 31.7533 23.1902 32.5391 24.8001C33.0401 25.825 33.2715 26.915 33.2084 27.9534C33.1205 29.3838 32.7097 30.8276 32.0817 32.0365C31.9994 32.1948 31.9134 32.3491 31.8239 32.4988C31.8049 32.5313 31.7838 32.56 31.7608 32.5868C31.7028 32.6814 31.6441 32.775 31.5844 32.8668C31.509 32.9828 31.4319 33.0961 31.3524 33.2053C31.2594 33.3329 31.1632 33.455 31.0626 33.5695C31.0614 33.5708 31.0602 33.5722 31.059 33.5735C31.0581 33.5746 31.0571 33.5757 31.0561 33.5768C30.7058 33.9696 30.1037 34.0104 29.7109 33.6596C29.3131 33.3115 29.2749 32.7073 29.6248 32.3114C29.6252 32.311 29.6256 32.3106 29.626 32.3101C29.6265 32.3095 29.6271 32.3088 29.6277 32.3081C29.7011 32.2238 29.7687 32.1281 29.8348 32.0294C29.8584 31.9942 29.8818 31.9585 29.9052 31.9229C29.9347 31.8781 29.9641 31.8333 29.9939 31.7894C29.9865 31.7519 29.9788 31.7147 29.971 31.6777ZM31.0771 28.8799C31.1446 28.5332 31.1906 28.1815 31.2121 27.8312C31.2521 27.1707 31.1065 26.4235 30.7423 25.6784L30.7418 25.6774C30.2252 24.6191 29.3419 23.9818 27.9858 23.0731M31.0771 28.8799C29.7878 26.4293 27.6461 25.2341 26.2752 24.7102L25.649 24.4709V21.2646C26.3817 22.0001 27.207 22.5521 27.8808 23.0029C27.9162 23.0265 27.9513 23.05 27.9858 23.0731M23.5613 36.9682L22.6122 36.3929C22.1207 36.0949 21.4921 35.8986 20.7806 35.8986C18.8102 35.8986 18 37.1122 18 37.7231C18 38.334 18.8102 39.5476 20.7806 39.5476C22.7511 39.5476 23.5613 38.334 23.5613 37.7231V36.9682Z" fill="#FFF9F2"/>
<path d="M36.1328 22.9384L36.6005 24.2063C36.6181 24.2541 36.6635 24.2857 36.7143 24.2857C36.7651 24.2857 36.8106 24.2541 36.8282 24.2063L37.2958 22.9384C37.6743 21.9119 38.4835 21.1027 39.5099 20.7243L40.7778 20.2566C40.8255 20.239 40.8571 20.1936 40.8571 20.1428C40.8571 20.092 40.8255 20.0465 40.7778 20.0289L39.5098 19.5613C38.4834 19.1828 37.6743 18.3737 37.2958 17.3473L36.8282 16.0793C36.8106 16.0317 36.7651 16 36.7143 16C36.6635 16 36.6181 16.0317 36.6005 16.0793L36.1328 17.3473C35.7543 18.3737 34.9452 19.1828 33.9188 19.5613L32.6507 20.0289C32.6031 20.0465 32.5714 20.092 32.5714 20.1428C32.5714 20.1936 32.6031 20.239 32.6507 20.2566L33.9187 20.7243C34.9452 21.1027 35.7543 21.9118 36.1328 22.9384Z" fill="#98570C"/>
<mask id="path-4-inside-1" fill="white">
<path d="M40.5664 27.0644L40.8002 27.6984C40.809 27.7223 40.8318 27.7381 40.8572 27.7381C40.8826 27.7381 40.9053 27.7223 40.9141 27.6984L41.1479 27.0644C41.3372 26.5512 41.7417 26.1466 42.2549 25.9574L42.8889 25.7236C42.9127 25.7148 42.9286 25.692 42.9286 25.6666C42.9286 25.6412 42.9127 25.6185 42.8889 25.6097L42.2549 25.3759C41.7417 25.1866 41.3371 24.7821 41.1479 24.2689L40.9141 23.6349C40.9053 23.6111 40.8826 23.5952 40.8572 23.5952C40.8318 23.5952 40.809 23.6111 40.8002 23.6349L40.5664 24.2689C40.3772 24.7821 39.9726 25.1866 39.4594 25.3759L38.8254 25.6097C38.8015 25.6185 38.7857 25.6412 38.7857 25.6666C38.7857 25.692 38.8015 25.7148 38.8254 25.7236L39.4593 25.9574C39.9726 26.1466 40.3772 26.5512 40.5664 27.0644Z"/>
</mask>
<path d="M40.5664 27.0644L39.6282 27.4104L39.6282 27.4105L40.5664 27.0644ZM40.8002 27.6984L41.7386 27.3528L41.7385 27.3524L40.8002 27.6984ZM40.9141 27.6984L39.9759 27.3524L39.9757 27.3528L40.9141 27.6984ZM41.1479 27.0644L42.0861 27.4105L42.0861 27.4104L41.1479 27.0644ZM42.2549 25.9574L42.6009 26.8956L42.601 26.8956L42.2549 25.9574ZM42.8889 25.7236L42.5429 24.7853L42.5429 24.7853L42.8889 25.7236ZM42.8889 25.6097L43.2349 24.6715L43.2349 24.6715L42.8889 25.6097ZM42.2549 25.3759L42.6009 24.4377L42.6009 24.4377L42.2549 25.3759ZM41.1479 24.2689L42.0862 23.9229L42.0861 23.9228L41.1479 24.2689ZM40.9141 23.6349L39.9759 23.9809L39.9759 23.9809L40.9141 23.6349ZM40.8002 23.6349L41.7385 23.9809L41.7385 23.9809L40.8002 23.6349ZM40.5664 24.2689L39.6282 23.9228L39.6282 23.9229L40.5664 24.2689ZM39.4594 25.3759L39.1134 24.4377L39.1134 24.4377L39.4594 25.3759ZM38.8254 25.6097L38.4794 24.6715L38.4793 24.6715L38.8254 25.6097ZM38.8254 25.7236L39.1714 24.7853L39.1714 24.7853L38.8254 25.7236ZM39.4593 25.9574L39.1133 26.8956L39.1134 26.8956L39.4593 25.9574ZM39.6282 27.4105L39.862 28.0444L41.7385 27.3524L41.5046 26.7184L39.6282 27.4105ZM39.8618 28.044C40.0155 28.4613 40.413 28.7381 40.8572 28.7381V26.7381C41.2505 26.7381 41.6025 26.9833 41.7386 27.3528L39.8618 28.044ZM40.8572 28.7381C41.3013 28.7381 41.6988 28.4613 41.8525 28.044L39.9757 27.3528C40.1118 26.9833 40.4638 26.7381 40.8572 26.7381V28.7381ZM41.8523 28.0444L42.0861 27.4105L40.2097 26.7184L39.9759 27.3524L41.8523 28.0444ZM42.0861 27.4104C42.1742 27.1717 42.3623 26.9836 42.6009 26.8956L41.909 25.0191C41.1212 25.3096 40.5002 25.9307 40.2097 26.7184L42.0861 27.4104ZM42.601 26.8956L43.2349 26.6618L42.5429 24.7853L41.9089 25.0192L42.601 26.8956ZM43.2349 26.6618C43.6521 26.5079 43.9286 26.1105 43.9286 25.6666H41.9286C41.9286 25.2736 42.1734 24.9216 42.5429 24.7853L43.2349 26.6618ZM43.9286 25.6666C43.9286 25.2227 43.6521 24.8253 43.2349 24.6715L42.5429 26.5479C42.1734 26.4117 41.9286 26.0597 41.9286 25.6666H43.9286ZM43.2349 24.6715L42.6009 24.4377L41.9089 26.3141L42.5429 26.5479L43.2349 24.6715ZM42.6009 24.4377C42.3622 24.3496 42.1741 24.1615 42.0862 23.9229L40.2096 24.6148C40.5001 25.4027 41.1212 26.0236 41.9089 26.3141L42.6009 24.4377ZM42.0861 23.9228L41.8523 23.2889L39.9759 23.9809L40.2097 24.6149L42.0861 23.9228ZM41.8523 23.2889C41.6985 22.8718 41.3011 22.5952 40.8572 22.5952V24.5952C40.4641 24.5952 40.1121 24.3504 39.9759 23.9809L41.8523 23.2889ZM40.8572 22.5952C40.4132 22.5952 40.0158 22.8718 39.862 23.2889L41.7385 23.9809C41.6022 24.3504 41.2503 24.5952 40.8572 24.5952V22.5952ZM39.862 23.2889L39.6282 23.9228L41.5046 24.6149L41.7385 23.9809L39.862 23.2889ZM39.6282 23.9229C39.5402 24.1615 39.3521 24.3496 39.1134 24.4377L39.8054 26.3141C40.5932 26.0236 41.2141 25.4026 41.5046 24.6149L39.6282 23.9229ZM39.1134 24.4377L38.4794 24.6715L39.1714 26.5479L39.8054 26.3141L39.1134 24.4377ZM38.4793 24.6715C38.0622 24.8253 37.7857 25.2227 37.7857 25.6666H39.7857C39.7857 26.0597 39.5408 26.4117 39.1714 26.5479L38.4793 24.6715ZM37.7857 25.6666C37.7857 26.1105 38.0622 26.5079 38.4793 26.6618L39.1714 24.7853C39.5409 24.9216 39.7857 25.2736 39.7857 25.6666H37.7857ZM38.4793 26.6618L39.1133 26.8956L39.8054 25.0192L39.1714 24.7853L38.4793 26.6618ZM39.1134 26.8956C39.352 26.9836 39.5402 27.1717 39.6282 27.4104L41.5047 26.7185C41.2141 25.9306 40.5931 25.3096 39.8053 25.0191L39.1134 26.8956Z" fill="#98570C" mask="url(#path-4-inside-1)"/>
</svg>
