<svg width="58" height="58" viewBox="0 0 58 58" fill="none" xmlns="http://www.w3.org/2000/svg">
<rect width="58" height="58" rx="15" fill="#F7931E"/>
<path d="M30.8818 34.1729C30.8817 34.1729 30.8817 34.173 30.8816 34.1731L30.9131 34.201L30.9204 34.2074L30.9485 34.2323C30.9487 34.2321 30.9488 34.2319 30.949 34.2317C30.9603 34.2154 30.9602 34.1929 30.9481 34.1765C30.9471 34.1751 30.9461 34.1738 30.9449 34.1726C30.9436 34.1716 30.9421 34.1706 30.9405 34.1697C30.9368 34.1675 30.9325 34.1655 30.9278 34.1639C30.9197 34.1612 30.9128 34.1607 30.9077 34.161C30.8976 34.1616 30.8875 34.1666 30.8818 34.1729ZM30.8818 34.1729C30.8814 34.1733 30.881 34.1737 30.8807 34.1741L30.9122 34.202L30.9196 34.2084L30.9478 34.2333M30.8818 34.1729L30.9478 34.2333M30.9478 34.2333C30.9472 34.234 30.9467 34.2347 30.9461 34.2353L30.9479 34.2334L31.6308 34.8354M30.9478 34.2333L25.133 18.9134L25.133 18.9136M31.6308 34.8354C31.2809 35.2313 30.6766 35.2733 30.2827 34.9215C29.8849 34.5734 29.8467 33.9692 30.1966 33.5733C30.2974 33.4582 30.3873 33.3213 30.477 33.1849C30.5065 33.14 30.5359 33.0953 30.5657 33.0513C30.0549 30.4716 28.48 29.0576 27.1331 28.3071V27.8404H26.1331L25.7761 28.7745C25.8898 28.8179 26.0093 28.8671 26.1331 28.9226V38.985C26.1331 41.0942 23.9875 42.8095 21.3524 42.8095C18.7173 42.8095 16.5718 41.0942 16.5718 38.985C16.5718 36.8758 18.7173 35.1605 21.3524 35.1605C22.0179 35.1605 22.6479 35.2737 23.2208 35.4741V35.9445H24.2208L24.7392 35.0894C24.5726 34.9884 24.3996 34.8944 24.2208 34.808V18.9063C24.2208 18.4034 24.609 17.9884 25.11 17.954M31.6308 34.8354C31.887 34.5448 32.1146 34.2044 32.3326 33.8487L30.9487 34.2324L31.6308 34.8354ZM25.11 17.954L25.1654 18.9063L25.1655 18.9089L25.1656 18.9105L25.168 18.9523C25.1575 18.9529 25.152 18.9494 25.1499 18.9477C25.1482 18.9463 25.1447 18.9431 25.1411 18.9368C25.1373 18.9303 25.1344 18.9225 25.1332 18.915C25.1331 18.9145 25.133 18.9141 25.133 18.9136M25.11 17.954C25.6034 17.9253 26.0547 18.2791 26.1235 18.7763L25.133 18.9136M25.11 17.954L25.1754 18.9063L25.1755 18.9076L25.1756 18.9091L25.1785 18.9517C25.2014 18.9501 25.2208 18.9297 25.2208 18.9063V19.2937M25.133 18.9136L25.1332 18.915C25.1514 19.0451 25.182 19.1718 25.2208 19.2937M25.2208 19.2937C25.3164 19.5938 25.4616 19.8642 25.5939 20.0821C25.7853 20.3977 26.0158 20.7072 26.2014 20.9566L26.2084 20.9661M25.2208 19.2937V26.4212M26.2084 20.9661L32.782 29.1546C32.782 29.1545 32.782 29.1543 32.7821 29.1542C32.695 30.5691 32.2554 32.0012 31.6021 33.1372L31.5466 32.8571C30.8071 29.1223 28.0964 27.5201 26.49 26.9063L25.2208 26.4212M26.2084 20.9661L27.0108 20.3692L26.2087 20.9663M26.2084 20.9661L26.2087 20.9663M25.2208 26.4212L25.1331 26.3877V27.8404V35.9445V37.6669M25.2208 26.4212V27.8404V35.9445V37.7201L25.1331 37.6669M25.1331 37.6669L23.7024 36.7997C23.056 36.4078 22.2484 36.1605 21.3524 36.1605C19.0496 36.1605 17.5718 37.625 17.5718 38.985C17.5718 40.3451 19.0496 41.8095 21.3524 41.8095C23.6552 41.8095 25.1331 40.3451 25.1331 38.985V37.6669ZM26.2087 20.9663L26.3233 21.1204L27.1274 20.526L26.3251 21.1229L26.3242 21.1217C27.0779 22.1407 28.1212 22.8393 29.0482 23.4601C29.0703 23.4749 29.0922 23.4896 29.1141 23.5042L26.2087 20.9663ZM32.2125 26.5011C32.6451 27.3861 32.8336 28.3046 32.7821 29.154L29.1142 23.5043C30.4443 24.3956 31.561 25.1665 32.2122 26.5006L32.2125 26.5011Z" stroke="#FFF9F2" stroke-width="2"/>
<path d="M36.7045 24.2003L37.1721 25.4682C37.1897 25.516 37.2352 25.5476 37.286 25.5476C37.3368 25.5476 37.3822 25.516 37.3998 25.4682L37.8674 24.2003C38.246 23.1738 39.0551 22.3646 40.0815 21.9862L41.3495 21.5185C41.3971 21.5009 41.4288 21.4555 41.4288 21.4047C41.4288 21.3539 41.3971 21.3084 41.3495 21.2908L40.0815 20.8232C39.0551 20.4447 38.2459 19.6356 37.8674 18.6092L37.3998 17.3412C37.3822 17.2936 37.3368 17.2619 37.286 17.2619C37.2352 17.2619 37.1897 17.2936 37.1721 17.3412L36.7045 18.6092C36.3259 19.6356 35.5169 20.4447 34.4904 20.8232L33.2224 21.2908C33.1747 21.3084 33.1431 21.3539 33.1431 21.4047C33.1431 21.4555 33.1747 21.5009 33.2224 21.5185L34.4903 21.9862C35.5168 22.3646 36.3259 23.1737 36.7045 24.2003Z" fill="#98570C"/>
<mask id="path-4-inside-1" fill="white">
<path d="M41.1381 28.3263L41.3719 28.9603C41.3807 28.9841 41.4035 29 41.4289 29C41.4543 29 41.477 28.9841 41.4858 28.9603L41.7196 28.3263C41.9089 27.8131 42.3135 27.4085 42.8266 27.2193L43.4606 26.9854C43.4845 26.9766 43.5003 26.9539 43.5003 26.9285C43.5003 26.9031 43.4845 26.8804 43.4606 26.8716L42.8266 26.6378C42.3134 26.4485 41.9088 26.044 41.7196 25.5308L41.4858 24.8968C41.477 24.8729 41.4543 24.8571 41.4289 24.8571C41.4035 24.8571 41.3807 24.8729 41.3719 24.8968L41.1381 25.5308C40.9489 26.044 40.5443 26.4485 40.0311 26.6378L39.3971 26.8716C39.3733 26.8804 39.3574 26.9031 39.3574 26.9285C39.3574 26.9539 39.3733 26.9766 39.3971 26.9854L40.0311 27.2193C40.5443 27.4085 40.9489 27.813 41.1381 28.3263Z"/>
</mask>
<path d="M41.1381 28.3263L40.1999 28.6723L40.1999 28.6723L41.1381 28.3263ZM41.3719 28.9603L42.3103 28.6147L42.3102 28.6142L41.3719 28.9603ZM41.4858 28.9603L40.5476 28.6142L40.5474 28.6147L41.4858 28.9603ZM41.7196 28.3263L42.6578 28.6723L42.6578 28.6723L41.7196 28.3263ZM42.8266 27.2193L43.1726 28.1575L43.1727 28.1575L42.8266 27.2193ZM43.4606 26.9854L43.1146 26.0472L43.1146 26.0472L43.4606 26.9854ZM43.4606 26.8716L43.8067 25.9334L43.8066 25.9334L43.4606 26.8716ZM42.8266 26.6378L43.1726 25.6995L43.1726 25.6995L42.8266 26.6378ZM41.7196 25.5308L42.6579 25.1848L42.6578 25.1847L41.7196 25.5308ZM41.4858 24.8968L40.5476 25.2428L40.5476 25.2428L41.4858 24.8968ZM41.3719 24.8968L42.3102 25.2428L42.3102 25.2428L41.3719 24.8968ZM41.1381 25.5308L40.1999 25.1847L40.1999 25.1847L41.1381 25.5308ZM40.0311 26.6378L39.6851 25.6995L39.6851 25.6995L40.0311 26.6378ZM39.3971 26.8716L39.0511 25.9334L39.051 25.9334L39.3971 26.8716ZM39.3971 26.9854L39.7431 26.0472L39.7431 26.0472L39.3971 26.9854ZM40.0311 27.2193L39.685 28.1575L39.6851 28.1575L40.0311 27.2193ZM40.1999 28.6723L40.4337 29.3063L42.3102 28.6142L42.0764 27.9803L40.1999 28.6723ZM40.4336 29.3058C40.5872 29.7231 40.9847 30 41.4289 30V28C41.8222 28 42.1743 28.2452 42.3103 28.6147L40.4336 29.3058ZM41.4289 30C41.8731 30 42.2705 29.7231 42.4242 29.3058L40.5474 28.6147C40.6835 28.2452 41.0355 28 41.4289 28V30ZM42.424 29.3063L42.6578 28.6723L40.7814 27.9803L40.5476 28.6142L42.424 29.3063ZM42.6578 28.6723C42.7459 28.4336 42.934 28.2455 43.1726 28.1575L42.4807 26.281C41.6929 26.5715 41.0719 27.1925 40.7814 27.9803L42.6578 28.6723ZM43.1727 28.1575L43.8067 27.9236L43.1146 26.0472L42.4806 26.281L43.1727 28.1575ZM43.8067 27.9237C44.2238 27.7698 44.5003 27.3724 44.5003 26.9285H42.5003C42.5003 26.5354 42.7451 26.1835 43.1146 26.0472L43.8067 27.9237ZM44.5003 26.9285C44.5003 26.4846 44.2238 26.0872 43.8067 25.9334L43.1146 27.8098C42.7451 27.6736 42.5003 27.3216 42.5003 26.9285H44.5003ZM43.8066 25.9334L43.1726 25.6995L42.4806 27.576L43.1146 27.8098L43.8066 25.9334ZM43.1726 25.6995C42.9339 25.6115 42.7458 25.4234 42.6579 25.1848L40.7814 25.8767C41.0718 26.6645 41.6929 27.2855 42.4806 27.576L43.1726 25.6995ZM42.6578 25.1847L42.424 24.5507L40.5476 25.2428L40.7814 25.8768L42.6578 25.1847ZM42.424 24.5507C42.2702 24.1336 41.8728 23.8571 41.4289 23.8571V25.8571C41.0358 25.8571 40.6838 25.6122 40.5476 25.2428L42.424 24.5507ZM41.4289 23.8571C40.985 23.8571 40.5876 24.1336 40.4337 24.5507L42.3102 25.2428C42.1739 25.6122 41.822 25.8571 41.4289 25.8571V23.8571ZM40.4337 24.5507L40.1999 25.1847L42.0764 25.8768L42.3102 25.2428L40.4337 24.5507ZM40.1999 25.1847C40.1119 25.4234 39.9238 25.6115 39.6851 25.6995L40.3771 27.576C41.1649 27.2855 41.7858 26.6645 42.0764 25.8768L40.1999 25.1847ZM39.6851 25.6995L39.0511 25.9334L39.7431 27.8098L40.3771 27.576L39.6851 25.6995ZM39.051 25.9334C38.6339 26.0872 38.3574 26.4846 38.3574 26.9285H40.3574C40.3574 27.3216 40.1126 27.6736 39.7431 27.8098L39.051 25.9334ZM38.3574 26.9285C38.3574 27.3724 38.6339 27.7698 39.051 27.9237L39.7431 26.0472C40.1126 26.1835 40.3574 26.5354 40.3574 26.9285H38.3574ZM39.051 27.9236L39.685 28.1575L40.3771 26.281L39.7431 26.0472L39.051 27.9236ZM39.6851 28.1575C39.9238 28.2455 40.1119 28.4336 40.1999 28.6723L42.0764 27.9803C41.7859 27.1925 41.1648 26.5715 40.377 26.281L39.6851 28.1575Z" fill="#98570C" mask="url(#path-4-inside-1)"/>
</svg>
