<svg width="58" height="58" viewBox="0 0 58 58" fill="none" xmlns="http://www.w3.org/2000/svg">
<rect width="58" height="58" rx="15" fill="#F7931E"/>
<path d="M18.0256 25.7513L16.0407 25.0193L18.0258 24.2871C18.0258 24.2871 18.0258 24.2871 18.0258 24.2871C21.249 23.0985 23.7895 20.558 24.9781 17.3351L25.7102 15.3501L26.4423 17.335C27.6307 20.558 30.1715 23.0986 33.3943 24.2871L35.3795 25.0193L33.3946 25.7513C33.3946 25.7513 33.3946 25.7513 33.3945 25.7513C30.1716 26.9397 27.6309 29.4805 26.4423 32.7036C26.4423 32.7036 26.4423 32.7036 26.4423 32.7036L25.7102 34.6885L24.9781 32.7036C24.9781 32.7036 24.9781 32.7036 24.9781 32.7036C23.7895 29.4803 21.2488 26.9397 18.0257 25.7513C18.0256 25.7513 18.0256 25.7513 18.0256 25.7513Z" stroke="white" stroke-width="2"/>
<path d="M44.0645 38.4923L42.0541 37.7394C40.4266 37.1298 39.1436 35.8269 38.5435 34.174L37.802 32.1321C37.7742 32.0554 37.7021 32.0044 37.6215 32.0044C37.541 32.0044 37.4689 32.0554 37.441 32.1321L36.6996 34.1739C36.0994 35.8269 34.8164 37.1298 33.1889 37.7394L31.1785 38.4923C31.1029 38.5207 31.0527 38.5938 31.0527 38.6757C31.0527 38.7575 31.1029 38.8307 31.1785 38.859L33.189 39.6122C34.8165 40.2218 36.0994 41.5247 36.6996 43.1776L37.441 45.2195C37.4689 45.2963 37.541 45.3473 37.6215 45.3473C37.7021 45.3473 37.7742 45.2963 37.802 45.2195L38.5435 43.1776C39.1437 41.5247 40.4266 40.2216 42.054 39.6122L44.0646 38.859C44.1402 38.8307 44.1903 38.7575 44.1903 38.6757C44.1903 38.5938 44.14 38.5207 44.0645 38.4923Z" fill="#98570C"/>
</svg>
