<svg width="58" height="58" viewBox="0 0 58 58" fill="none" xmlns="http://www.w3.org/2000/svg">
<rect width="58" height="58" rx="15" fill="#F7931E"/>
<mask id="path-2-inside-1" fill="white">
<path fill-rule="evenodd" clip-rule="evenodd" d="M19.8813 40.738C19.4363 40.738 19.0083 40.6654 18.6084 40.5312L29.3458 30.7926L38.9795 40.4264C38.5027 40.6271 37.9788 40.738 37.429 40.738H19.8813ZM40.5817 39.2001C41.1126 38.5213 41.429 37.6666 41.429 36.738V21.2618C41.429 20.826 41.3592 20.4064 41.2304 20.0136L30.829 29.4474L40.5817 39.2001ZM37.429 17.2618C38.4701 17.2618 39.4184 17.6596 40.13 18.3115L16.8881 39.3914C16.2617 38.6854 15.8813 37.7561 15.8813 36.738V21.2618C15.8813 19.0527 17.6722 17.2618 19.8813 17.2618H37.429Z"/>
</mask>
<path d="M18.6084 40.5312L17.2648 39.0498L14.7373 41.3422L17.9723 42.4274L18.6084 40.5312ZM29.3458 30.7926L30.76 29.3784L29.4131 28.0315L28.0022 29.3112L29.3458 30.7926ZM38.9795 40.4264L39.7554 42.2698L42.4973 41.1157L40.3937 39.0122L38.9795 40.4264ZM40.5817 39.2001L39.1675 40.6143L40.7652 42.212L42.1571 40.4322L40.5817 39.2001ZM41.2304 20.0136L43.1307 19.39L42.1697 16.4616L39.8867 18.5322L41.2304 20.0136ZM30.829 29.4474L29.4854 27.966L27.9299 29.3768L29.4148 30.8616L30.829 29.4474ZM40.13 18.3115L41.4737 19.793L43.099 18.3188L41.481 16.8367L40.13 18.3115ZM16.8881 39.3914L15.3919 40.7187L16.7338 42.2314L18.2317 40.8729L16.8881 39.3914ZM17.9723 42.4274C18.5746 42.6294 19.2173 42.738 19.8813 42.738V38.738C19.6553 38.738 19.4419 38.7013 19.2445 38.6351L17.9723 42.4274ZM28.0022 29.3112L17.2648 39.0498L19.952 42.0127L30.6894 32.2741L28.0022 29.3112ZM40.3937 39.0122L30.76 29.3784L27.9316 32.2069L37.5653 41.8406L40.3937 39.0122ZM37.429 42.738C38.25 42.738 39.0374 42.572 39.7554 42.2698L38.2037 38.583C37.968 38.6822 37.7076 38.738 37.429 38.738V42.738ZM19.8813 42.738H37.429V38.738H19.8813V42.738ZM42.1571 40.4322C42.9533 39.4141 43.429 38.1288 43.429 36.738H39.429C39.429 37.2044 39.2718 37.6285 39.0062 37.968L42.1571 40.4322ZM43.429 36.738V21.2618H39.429V36.738H43.429ZM43.429 21.2618C43.429 20.6115 43.3248 19.9815 43.1307 19.39L39.3301 20.6372C39.3937 20.8312 39.429 21.0404 39.429 21.2618H43.429ZM39.8867 18.5322L29.4854 27.966L32.1726 30.9289L42.574 21.4951L39.8867 18.5322ZM29.4148 30.8616L39.1675 40.6143L41.9959 37.7859L32.2432 28.0332L29.4148 30.8616ZM41.481 16.8367C40.415 15.8603 38.9896 15.2618 37.429 15.2618V19.2618C37.9507 19.2618 38.4218 19.459 38.7791 19.7863L41.481 16.8367ZM18.2317 40.8729L41.4737 19.793L38.7864 16.8301L15.5444 37.91L18.2317 40.8729ZM13.8813 36.738C13.8813 38.2638 14.4535 39.6608 15.3919 40.7187L18.3842 38.0642C18.0699 37.7099 17.8813 37.2484 17.8813 36.738H13.8813ZM13.8813 21.2618V36.738H17.8813V21.2618H13.8813ZM19.8813 15.2618C16.5676 15.2618 13.8813 17.9481 13.8813 21.2618H17.8813C17.8813 20.1573 18.7768 19.2618 19.8813 19.2618V15.2618ZM37.429 15.2618H19.8813V19.2618H37.429V15.2618Z" fill="#FFF9F2" mask="url(#path-2-inside-1)"/>
<path d="M22.9688 36.3255C22.9625 36.42 22.9605 36.8029 22.9381 37.1354C22.8731 39.1627 21.7575 43.3399 20.8261 45.118C20.6889 45.3931 20.3099 46.0507 20.0297 46.3108C19.7511 46.548 19.4308 46.71 19.0665 46.7957C18.5957 46.8829 18.0987 46.8126 17.6723 46.5931C17.3834 46.4348 16.6474 45.8517 16.6368 45.8392C15.8447 45.1902 14.707 44.0085 13.5342 42.6307C12.4168 41.318 11.4751 40.057 10.9258 39.1813C10.9282 39.1578 10.3252 38.168 10.223 37.7401C10.0374 36.9575 10.2935 36.1555 10.876 35.6596L10.9264 35.6167C11.3171 35.3071 12.4033 34.9666 12.4139 34.9791C14.2422 34.4094 18.4033 33.9365 20.4735 34.2138C20.4735 34.2138 21.0317 34.2627 21.3235 34.3417C21.7588 34.4414 22.147 34.6935 22.4346 35.0312C22.7554 35.4082 22.9406 35.8561 22.9688 36.3255Z" fill="#98570C"/>
</svg>
