<svg width="17" height="17" viewBox="0 0 17 17" fill="none" xmlns="http://www.w3.org/2000/svg">
<path d="M1 2.66667C1 1.74619 1.74619 1 2.66667 1H5.39937C5.75806 1 6.07651 1.22953 6.18994 1.56981L7.43811 5.31434C7.56926 5.70777 7.39115 6.13776 7.02022 6.32322L5.13917 7.26375C6.05771 9.30101 7.69898 10.9423 9.73625 11.8608L10.6768 9.97978C10.8622 9.60885 11.2922 9.43074 11.6857 9.56189L15.4302 10.8101C15.7705 10.9235 16 11.2419 16 11.6006V14.3333C16 15.2538 15.2538 16 14.3333 16H13.5C6.59644 16 1 10.4036 1 3.5V2.66667Z" stroke="#858585" stroke-linecap="round" stroke-linejoin="round"/>
</svg>
