<svg width="58" height="58" viewBox="0 0 58 58" fill="none" xmlns="http://www.w3.org/2000/svg">
<rect width="58" height="58" rx="15" fill="#F7931E"/>
<path d="M40.2983 19.3739L40.8627 20.9042C40.8839 20.9618 40.9387 21 41 21C41.0614 21 41.1162 20.9618 41.1374 20.9042L41.7018 19.3739C42.1587 18.135 43.1352 17.1585 44.374 16.7017L45.9043 16.1373C45.9618 16.1161 46 16.0612 46 15.9999C46 15.9386 45.9618 15.8837 45.9043 15.8625L44.3739 15.2981C43.1352 14.8413 42.1586 13.8648 41.7018 12.626L41.1374 11.0957C41.1162 11.0382 41.0614 11 41 11C40.9387 11 40.8839 11.0382 40.8627 11.0957L40.2983 12.626C39.8414 13.8648 38.8649 14.8413 37.6261 15.2981L36.0957 15.8625C36.0382 15.8837 36 15.9386 36 15.9999C36 16.0612 36.0382 16.1161 36.0957 16.1373L37.626 16.7017C38.8648 17.1585 39.8414 18.135 40.2983 19.3739Z" fill="#98570C"/>
<path d="M45.579 24.0243L45.9176 24.9425C45.9303 24.9771 45.9632 25 46 25C46.0368 25 46.0697 24.9771 46.0825 24.9425L46.4211 24.0243C46.6952 23.281 47.2811 22.6951 48.0244 22.421L48.9426 22.0824C48.9771 22.0697 49 22.0367 49 21.9999C49 21.9632 48.9771 21.9302 48.9426 21.9175L48.0243 21.5789C47.2811 21.3048 46.6952 20.7189 46.4211 19.9756L46.0825 19.0574C46.0697 19.0229 46.0368 19 46 19C45.9632 19 45.9303 19.0229 45.9176 19.0574L45.579 19.9756C45.3048 20.7189 44.719 21.3048 43.9757 21.5789L43.0574 21.9175C43.0229 21.9302 43 21.9632 43 21.9999C43 22.0367 43.0229 22.0697 43.0574 22.0824L43.9756 22.421C44.7189 22.6951 45.3048 23.281 45.579 24.0243Z" fill="#98570C"/>
<rect x="14.5" y="15.5" width="17" height="24" rx="3.5" stroke="white"/>
<rect x="44.5" y="30.5" width="12" height="23" rx="3.5" transform="rotate(90 44.5 30.5)" fill="#F7931E" stroke="white"/>
</svg>
