<svg width="84" height="84" viewBox="0 0 84 84" fill="none" xmlns="http://www.w3.org/2000/svg">
<rect width="84" height="84" rx="15" fill="#F7931E"/>
<path d="M37.2354 51.5341L35.7545 47.519C35.7545 47.519 35.7545 47.519 35.7545 47.5189C34.0785 42.9737 30.4958 39.3913 25.9508 37.7156L21.9358 36.2348L25.9512 34.7539C25.9512 34.7539 25.9512 34.7539 25.9512 34.7539C30.4961 33.0779 34.0785 29.4955 35.7545 24.9509L37.2354 20.9358L38.7162 24.9509C38.7162 24.9509 38.7163 24.9509 38.7163 24.9509C40.392 29.4956 43.9747 33.0779 48.5193 34.7539L52.5346 36.2348L48.5196 37.7156C43.975 39.3914 40.3923 42.9741 38.7163 47.5189C38.7163 47.519 38.7163 47.519 38.7162 47.519L37.2354 51.5341ZM36.7706 52.7943C36.7707 52.7939 36.7709 52.7936 36.771 52.7932L36.7708 52.7939L36.7706 52.7943ZM37.6998 52.7932C37.6999 52.7936 37.7001 52.7939 37.7002 52.7943L37.7 52.7939L37.6998 52.7932Z" stroke="white" stroke-width="2"/>
<path d="M63.8177 55.7475L60.9062 54.657C58.5491 53.7742 56.691 51.8872 55.8219 49.4933L54.748 46.5362C54.7076 46.425 54.6033 46.3512 54.4866 46.3512C54.3699 46.3512 54.2655 46.425 54.2252 46.5362L53.1513 49.4932C52.2821 51.8872 50.4239 53.7742 48.0669 54.657L45.1553 55.7475C45.0458 55.7885 44.9731 55.8945 44.9731 56.013C44.9731 56.1315 45.0458 56.2375 45.1553 56.2785L48.0671 57.3693C50.4241 58.2522 52.2821 60.1392 53.1513 62.533L54.2252 65.4903C54.2655 65.6015 54.3699 65.6753 54.4866 65.6753C54.6033 65.6753 54.7076 65.6015 54.748 65.4903L55.8219 62.533C56.6911 60.1392 58.5491 58.252 60.9061 57.3693L63.8179 56.2785C63.9273 56.2375 64 56.1315 64 56.013C64 55.8945 63.9272 55.7885 63.8177 55.7475Z" fill="#98570C"/>
</svg>
