<svg width="58" height="58" viewBox="0 0 58 58" fill="none" xmlns="http://www.w3.org/2000/svg">
<rect width="58" height="58" rx="15" fill="#F7931E"/>
<path d="M39 28.5L44 33V40.5L41 44H23.5C16.3 44.4 14.8334 42.8333 15.0001 42V36L25 27L33 32.5L39 28.5Z" fill="#98570C"/>
<path d="M14 36.5L22.5983 27.9017C24.0628 26.4372 26.4372 26.4372 27.9017 27.9017L36.5 36.5M32.75 32.75L35.7233 29.7767C37.1878 28.3122 39.5622 28.3122 41.0267 29.7767L44 32.75M32.75 21.5H32.7688M17.75 44H40.25C42.3211 44 44 42.3211 44 40.25V17.75C44 15.6789 42.3211 14 40.25 14H17.75C15.6789 14 14 15.6789 14 17.75V40.25C14 42.3211 15.6789 44 17.75 44Z" stroke="white" stroke-width="2" stroke-linecap="round" stroke-linejoin="round"/>
</svg>
