<svg width="58" height="58" viewBox="0 0 58 58" fill="none" xmlns="http://www.w3.org/2000/svg">
<rect width="58" height="58" rx="8" fill="#F7931E"/>
<path fill-rule="evenodd" clip-rule="evenodd" d="M28.9998 29V17.9524C28.3258 17.9524 27.6565 18.014 26.9998 18.1349C25.5274 18.406 24.1184 18.9748 22.862 19.8143C21.0453 21.0282 19.6293 22.7536 18.7931 24.7723C17.9569 26.791 17.7382 29.0123 18.1644 31.1553C18.5907 33.2983 19.6429 35.2668 21.1879 36.8119C22.733 38.3569 24.7015 39.4091 26.8445 39.8354C28.9875 40.2616 31.2088 40.0428 33.2275 39.2067C35.2462 38.3705 36.9716 36.9545 38.1855 35.1377C39.025 33.8814 39.5938 32.4723 39.8649 31C39.9857 30.3433 40.0474 29.674 40.0474 29H28.9998ZM37.8236 31H26.9998V20.1762C25.9253 20.4198 24.8987 20.8588 23.9732 21.4772C22.4853 22.4714 21.3257 23.8844 20.6409 25.5376C19.9561 27.1909 19.7769 29.01 20.126 30.7651C20.4751 32.5202 21.3368 34.1323 22.6021 35.3976C23.8675 36.663 25.4796 37.5247 27.2347 37.8738C28.9897 38.2229 30.8089 38.0437 32.4621 37.3589C34.1154 36.6741 35.5284 35.5145 36.5226 34.0266C37.141 33.1011 37.58 32.0745 37.8236 31Z" fill="#FFF9F2"/>
<path d="M35.7536 15.2681C36.0628 14.6393 36.8263 14.3761 37.4297 14.7326C40.0145 16.2597 42.1366 18.4612 43.5677 21.1005C43.9017 21.7165 43.6106 22.4698 42.9709 22.7558C42.3311 23.0417 41.5856 22.7514 41.2431 22.14C40.0647 20.0369 38.3638 18.2723 36.3054 17.0174C35.7071 16.6526 35.4443 15.897 35.7536 15.2681Z" fill="#98570C"/>
<path d="M22.2469 15.2681C21.9377 14.6393 21.1742 14.3761 20.5708 14.7326C17.9859 16.2597 15.8639 18.4612 14.4328 21.1005C14.0988 21.7165 14.3899 22.4698 15.0296 22.7558C15.6694 23.0417 16.4149 22.7514 16.7574 22.14C17.9358 20.0369 19.6367 18.2723 21.6951 17.0174C22.2934 16.6526 22.5562 15.897 22.2469 15.2681Z" fill="#98570C"/>
</svg>
