<svg width="528" height="149" viewBox="0 0 528 149" fill="none" xmlns="http://www.w3.org/2000/svg">
<path d="M214.701 69.3C214.701 71.0333 214.601 72.8667 214.401 74.8H170.601C170.934 80.2 172.767 84.4333 176.101 87.5C179.501 90.5 183.601 92 188.401 92C192.334 92 195.601 91.1 198.201 89.3C200.867 87.4333 202.734 84.9667 203.801 81.9H213.601C212.134 87.1667 209.201 91.4667 204.801 94.8C200.401 98.0667 194.934 99.7 188.401 99.7C183.201 99.7 178.534 98.5333 174.401 96.2C170.334 93.8667 167.134 90.5667 164.801 86.3C162.467 81.9667 161.301 76.9667 161.301 71.3C161.301 65.6333 162.434 60.6667 164.701 56.4C166.967 52.1333 170.134 48.8667 174.201 46.6C178.334 44.2667 183.067 43.1 188.401 43.1C193.601 43.1 198.201 44.2333 202.201 46.5C206.201 48.7667 209.267 51.9 211.401 55.9C213.601 59.8333 214.701 64.3 214.701 69.3ZM205.301 67.4C205.301 63.9333 204.534 60.9667 203.001 58.5C201.467 55.9667 199.367 54.0667 196.701 52.8C194.101 51.4667 191.201 50.8 188.001 50.8C183.401 50.8 179.467 52.2667 176.201 55.2C173.001 58.1333 171.167 62.2 170.701 67.4H205.301Z" fill="#432E2D"/>
<path d="M275.312 44V98.8H266.213V90.7C264.479 93.5 262.046 95.7 258.912 97.3C255.846 98.8333 252.446 99.6 248.713 99.6C244.446 99.6 240.613 98.7333 237.213 97C233.813 95.2 231.113 92.5333 229.113 89C227.179 85.4667 226.213 81.1667 226.213 76.1V44H235.213V74.9C235.213 80.3 236.579 84.4667 239.312 87.4C242.046 90.2667 245.779 91.7 250.513 91.7C255.379 91.7 259.212 90.2 262.012 87.2C264.812 84.2 266.213 79.8333 266.213 74.1V44H275.312Z" fill="#432E2D"/>
<path d="M317.377 43C324.044 43 329.444 45.0333 333.577 49.1C337.711 53.1 339.777 58.9 339.777 66.5V98.8H330.777V67.8C330.777 62.3333 329.411 58.1667 326.677 55.3C323.944 52.3667 320.211 50.9 315.477 50.9C310.677 50.9 306.844 52.4 303.977 55.4C301.177 58.4 299.777 62.7667 299.777 68.5V98.8H290.677V44H299.777V51.8C301.577 49 304.011 46.8333 307.077 45.3C310.211 43.7667 313.644 43 317.377 43Z" fill="#432E2D"/>
<path d="M378.542 99.7C373.409 99.7 368.742 98.5333 364.542 96.2C360.409 93.8667 357.142 90.5667 354.742 86.3C352.409 81.9667 351.242 76.9667 351.242 71.3C351.242 65.7 352.442 60.7667 354.842 56.5C357.309 52.1667 360.642 48.8667 364.842 46.6C369.042 44.2667 373.742 43.1 378.942 43.1C384.142 43.1 388.842 44.2667 393.042 46.6C397.242 48.8667 400.542 52.1333 402.942 56.4C405.409 60.6667 406.642 65.6333 406.642 71.3C406.642 76.9667 405.376 81.9667 402.842 86.3C400.376 90.5667 397.009 93.8667 392.742 96.2C388.476 98.5333 383.742 99.7 378.542 99.7ZM378.542 91.7C381.809 91.7 384.876 90.9333 387.742 89.4C390.609 87.8667 392.909 85.5667 394.642 82.5C396.442 79.4333 397.342 75.7 397.342 71.3C397.342 66.9 396.476 63.1667 394.742 60.1C393.009 57.0333 390.742 54.7667 387.942 53.3C385.142 51.7667 382.109 51 378.842 51C375.509 51 372.442 51.7667 369.642 53.3C366.909 54.7667 364.709 57.0333 363.042 60.1C361.376 63.1667 360.542 66.9 360.542 71.3C360.542 75.7667 361.342 79.5333 362.942 82.6C364.609 85.6667 366.809 87.9667 369.542 89.5C372.276 90.9667 375.276 91.7 378.542 91.7Z" fill="#432E2D"/>
<path d="M465.807 44L432.807 124.6H423.407L434.207 98.2L412.107 44H422.207L439.407 88.4L456.407 44H465.807Z" fill="#432E2D"/>
<path d="M471.555 71.2C471.555 65.6 472.688 60.7 474.955 56.5C477.221 52.2333 480.321 48.9333 484.255 46.6C488.255 44.2667 492.688 43.1 497.555 43.1C502.355 43.1 506.521 44.1333 510.055 46.2C513.588 48.2667 516.221 50.8667 517.955 54V44H527.155V98.8H517.955V88.6C516.155 91.8 513.455 94.4667 509.855 96.6C506.321 98.6667 502.188 99.7 497.455 99.7C492.588 99.7 488.188 98.5 484.255 96.1C480.321 93.7 477.221 90.3333 474.955 86C472.688 81.6667 471.555 76.7333 471.555 71.2ZM517.955 71.3C517.955 67.1667 517.121 63.5667 515.455 60.5C513.788 57.4333 511.521 55.1 508.655 53.5C505.855 51.8333 502.755 51 499.355 51C495.955 51 492.855 51.8 490.055 53.4C487.255 55 485.021 57.3333 483.355 60.4C481.688 63.4667 480.855 67.0667 480.855 71.2C480.855 75.4 481.688 79.0667 483.355 82.2C485.021 85.2667 487.255 87.6333 490.055 89.3C492.855 90.9 495.955 91.7 499.355 91.7C502.755 91.7 505.855 90.9 508.655 89.3C511.521 87.6333 513.788 85.2667 515.455 82.2C517.121 79.0667 517.955 75.4333 517.955 71.3Z" fill="#432E2D"/>
<path d="M40.3031 116.973C16.6359 91.1324 26.603 44.9475 42.4415 34.3931C47.132 31.3735 52.4527 29.4804 57.9901 28.861C64.2909 28.7308 70.523 30.1953 76.112 33.1193C82.1679 33.1193 87.9757 30.7035 92.2578 26.4035C96.54 22.1035 98.9456 16.2715 98.9456 10.1905V0H22.8336C16.7778 0 10.9699 2.41565 6.6878 6.71561C2.40567 11.0156 0 16.8476 0 22.9286V126.071C0 132.152 2.40567 137.984 6.6878 142.284C10.9699 146.584 16.7778 149 22.8336 149H109.166C115.222 149 121.03 146.584 125.312 142.284C129.594 137.984 132 132.152 132 126.071V115.881C102.171 141.758 60.7809 139.392 40.3031 116.973Z" fill="#F7931E"/>
<path d="M96 53V70.5185C96 75.1549 94.2087 79.6014 91.0206 82.8798C87.8325 86.1582 83.5086 88 78.9999 88V88C74.4912 88 70.1673 86.1582 66.9791 82.8798C63.791 79.6014 62 75.1549 62 70.5185V70.5185C62 65.8821 63.791 61.4357 66.9791 58.1572C70.1673 54.8788 74.4912 53.037 78.9999 53.037H96V53Z" fill="#432E2D"/>
</svg>
