<svg width="276" height="52" viewBox="0 0 276 52" fill="none" xmlns="http://www.w3.org/2000/svg">
<path d="M47 27.94C47 14.2586 36.5874 4.52 23.58 4.52V8.52C34.4526 8.52 43 16.5414 43 27.94H47ZM23.58 4.52C10.7073 4.52 0.1 14.2442 0.1 27.94H4.1C4.1 16.5558 12.8127 8.52 23.58 8.52V4.52ZM0.1 27.94C0.1 41.6921 10.7036 51.42 23.58 51.42V47.42C12.8164 47.42 4.1 39.3879 4.1 27.94H0.1ZM23.58 51.42C36.5275 51.42 47 41.6813 47 27.94H43C43 39.3987 34.3925 47.42 23.58 47.42V51.42ZM12.74 27.94C12.74 24.0892 13.9137 21.1474 15.7593 19.1853C17.5956 17.2331 20.2552 16.08 23.58 16.08V12.08C19.2848 12.08 15.5244 13.5969 12.8457 16.4447C10.1763 19.2826 8.74 23.2708 8.74 27.94H12.74ZM23.58 16.08C26.8705 16.08 29.5152 17.2301 31.3459 19.1829C33.1862 21.1458 34.36 24.0891 34.36 27.94H38.36C38.36 23.2709 36.9238 19.2842 34.2641 16.4471C31.5948 13.5999 27.8495 12.08 23.58 12.08V16.08ZM34.36 27.94C34.36 31.7919 33.1852 34.7706 31.3375 36.7662C29.5012 38.7494 26.8568 39.92 23.58 39.92V43.92C27.8632 43.92 31.6089 42.3606 34.2725 39.4838C36.9248 36.6194 38.36 32.6081 38.36 27.94H34.36ZM23.58 39.92C20.2688 39.92 17.6096 38.7463 15.7678 36.7638C13.9147 34.769 12.74 31.7919 12.74 27.94H8.74C8.74 32.6081 10.1753 36.621 12.8372 39.4862C15.5104 42.3637 19.2712 43.92 23.58 43.92V39.92ZM82.6294 15.76H84.6294V13.76H82.6294V15.76ZM74.1694 15.76V13.76H72.1694V15.76H74.1694ZM59.3494 15.76H61.3494V13.76H59.3494V15.76ZM50.9494 15.76V13.76H48.9494V15.76H50.9494ZM74.1694 44.8H76.1694V38.7657L72.5653 43.6055L74.1694 44.8ZM74.1694 49H72.1694V51H74.1694V49ZM82.6294 49V51H84.6294V49H82.6294ZM82.6294 13.76H74.1694V17.76H82.6294V13.76ZM72.1694 15.76V34.06H76.1694V15.76H72.1694ZM72.1694 34.06C72.1694 36.3833 71.546 37.8949 70.6946 38.8107C69.8602 39.7082 68.5782 40.28 66.7294 40.28V44.28C69.4406 44.28 71.8785 43.4118 73.6241 41.5343C75.3527 39.6751 76.1694 37.0767 76.1694 34.06H72.1694ZM66.7294 40.28C64.9539 40.28 63.6811 39.7163 62.8391 38.8107C61.9821 37.8889 61.3494 36.3726 61.3494 34.06H57.3494C57.3494 37.0874 58.1866 39.6811 59.9096 41.5343C61.6476 43.4037 64.0649 44.28 66.7294 44.28V40.28ZM61.3494 34.06V15.76H57.3494V34.06H61.3494ZM59.3494 13.76H50.9494V17.76H59.3494V13.76ZM48.9494 15.76V35.26H52.9494V15.76H48.9494ZM48.9494 35.26C48.9494 40.2335 50.4793 44.3163 53.2816 47.163C56.0826 50.0085 59.9598 51.42 64.2694 51.42V47.42C60.839 47.42 58.0562 46.3115 56.1322 44.357C54.2094 42.4037 52.9494 39.4065 52.9494 35.26H48.9494ZM64.2694 51.42C68.9706 51.42 73.2557 49.3755 75.7735 45.9945L72.5653 43.6055C70.883 45.8645 67.8482 47.42 64.2694 47.42V51.42ZM72.1694 44.8V49H76.1694V44.8H72.1694ZM74.1694 51H82.6294V47H74.1694V51ZM84.6294 49V15.76H80.6294V49H84.6294ZM109.517 24.1V26.1H111.517V24.1H109.517ZM109.517 15.28H111.517V13.28H109.517V15.28ZM99.3173 20.92H97.3173V27.9993L101.022 21.9665L99.3173 20.92ZM99.3173 15.76H101.317V13.76H99.3173V15.76ZM90.9173 15.76V13.76H88.9173V15.76H90.9173ZM90.9173 49H88.9173V51H90.9173V49ZM99.3173 49V51H101.317V49H99.3173ZM101.317 32.44C101.317 29.4975 102.008 28.0691 102.805 27.3238C103.629 26.5545 105 26.1 107.297 26.1V22.1C104.614 22.1 101.996 22.6055 100.074 24.4012C98.1269 26.2209 97.3173 28.9625 97.3173 32.44H101.317ZM107.297 26.1H109.517V22.1H107.297V26.1ZM111.517 24.1V15.28H107.517V24.1H111.517ZM109.517 13.28C104.168 13.28 100.058 15.8911 97.613 19.8735L101.022 21.9665C102.776 19.1089 105.627 17.28 109.517 17.28V13.28ZM101.317 20.92V15.76H97.3173V20.92H101.317ZM99.3173 13.76H90.9173V17.76H99.3173V13.76ZM88.9173 15.76V49H92.9173V15.76H88.9173ZM90.9173 51H99.3173V47H90.9173V51ZM101.317 49V32.44H97.3173V49H101.317ZM172.332 27.94C172.332 14.2586 161.919 4.52 148.912 4.52V8.52C159.785 8.52 168.332 16.5414 168.332 27.94H172.332ZM148.912 4.52C136.039 4.52 125.432 14.2442 125.432 27.94H129.432C129.432 16.5558 138.145 8.52 148.912 8.52V4.52ZM125.432 27.94C125.432 41.6921 136.036 51.42 148.912 51.42V47.42C138.148 47.42 129.432 39.3879 129.432 27.94H125.432ZM148.912 51.42C161.86 51.42 172.332 41.6813 172.332 27.94H168.332C168.332 39.3987 159.725 47.42 148.912 47.42V51.42ZM138.072 27.94C138.072 24.0892 139.246 21.1474 141.091 19.1853C142.928 17.2331 145.587 16.08 148.912 16.08V12.08C144.617 12.08 140.856 13.5969 138.178 16.4447C135.508 19.2826 134.072 23.2708 134.072 27.94H138.072ZM148.912 16.08C152.202 16.08 154.847 17.2301 156.678 19.1829C158.518 21.1458 159.692 24.0891 159.692 27.94H163.692C163.692 23.2709 162.256 19.2842 159.596 16.4471C156.927 13.5999 153.182 12.08 148.912 12.08V16.08ZM159.692 27.94C159.692 31.7919 158.517 34.7706 156.67 36.7662C154.833 38.7494 152.189 39.92 148.912 39.92V43.92C153.195 43.92 156.941 42.3606 159.605 39.4838C162.257 36.6194 163.692 32.6081 163.692 27.94H159.692ZM148.912 39.92C145.601 39.92 142.942 38.7463 141.1 36.7638C139.247 34.769 138.072 31.7919 138.072 27.94H134.072C134.072 32.6081 135.507 36.621 138.169 39.4862C140.842 42.3637 144.603 43.92 148.912 43.92V39.92ZM177.481 49H175.481V51H177.481V49ZM186.001 49V51H188.001V49H186.001ZM186.001 22.66V20.66H184.001V22.66H186.001ZM191.821 22.66V24.66H193.821V22.66H191.821ZM191.821 15.76H193.821V13.76H191.821V15.76ZM186.001 15.76H184.001V17.76H186.001V15.76ZM191.461 9.46L191.403 11.4591L193.461 11.5197V9.46H191.461ZM191.461 2.38H193.461V0.430624L191.513 0.380657L191.461 2.38ZM177.481 15.76V17.76H179.481V15.76H177.481ZM173.701 15.76V13.76H171.701V15.76H173.701ZM173.701 22.66H171.701V24.66H173.701V22.66ZM177.481 22.66H179.481V20.66H177.481V22.66ZM177.481 51H186.001V47H177.481V51ZM188.001 49V22.66H184.001V49H188.001ZM186.001 24.66H191.821V20.66H186.001V24.66ZM193.821 22.66V15.76H189.821V22.66H193.821ZM191.821 13.76H186.001V17.76H191.821V13.76ZM188.001 15.76V14.38H184.001V15.76H188.001ZM188.001 14.38C188.001 12.6685 188.34 12.1488 188.549 11.9575C188.798 11.7311 189.469 11.4023 191.403 11.4591L191.52 7.46086C189.374 7.39773 187.315 7.66887 185.853 9.00247C184.353 10.3712 184.001 12.3715 184.001 14.38H188.001ZM193.461 9.46V2.38H189.461V9.46H193.461ZM191.513 0.380657C186.612 0.254986 182.542 1.16236 179.682 3.54274C176.755 5.97858 175.481 9.6251 175.481 14.08H179.481C179.481 10.3749 180.518 8.05142 182.241 6.61725C184.031 5.12763 186.951 4.26501 191.41 4.37934L191.513 0.380657ZM175.481 14.08V15.76H179.481V14.08H175.481ZM177.481 13.76H173.701V17.76H177.481V13.76ZM171.701 15.76V22.66H175.701V15.76H171.701ZM173.701 24.66H177.481V20.66H173.701V24.66ZM175.481 22.66V49H179.481V22.66H175.481ZM198.165 49H196.165V51H198.165V49ZM206.685 49V51H208.685V49H206.685ZM206.685 22.66V20.66H204.685V22.66H206.685ZM212.505 22.66V24.66H214.505V22.66H212.505ZM212.505 15.76H214.505V13.76H212.505V15.76ZM206.685 15.76H204.685V17.76H206.685V15.76ZM212.145 9.46L212.086 11.4591L214.145 11.5197V9.46H212.145ZM212.145 2.38H214.145V0.430624L212.196 0.380657L212.145 2.38ZM198.165 15.76V17.76H200.165V15.76H198.165ZM194.385 15.76V13.76H192.385V15.76H194.385ZM194.385 22.66H192.385V24.66H194.385V22.66ZM198.165 22.66H200.165V20.66H198.165V22.66ZM198.165 51H206.685V47H198.165V51ZM208.685 49V22.66H204.685V49H208.685ZM206.685 24.66H212.505V20.66H206.685V24.66ZM214.505 22.66V15.76H210.505V22.66H214.505ZM212.505 13.76H206.685V17.76H212.505V13.76ZM208.685 15.76V14.38H204.685V15.76H208.685ZM208.685 14.38C208.685 12.6685 209.023 12.1488 209.233 11.9575C209.481 11.7311 210.153 11.4023 212.086 11.4591L212.204 7.46086C210.057 7.39773 207.999 7.66887 206.537 9.00247C205.037 10.3712 204.685 12.3715 204.685 14.38H208.685ZM214.145 9.46V2.38H210.145V9.46H214.145ZM212.196 0.380657C207.295 0.254986 203.226 1.16236 200.366 3.54274C197.439 5.97858 196.165 9.6251 196.165 14.08H200.165C200.165 10.3749 201.201 8.05142 202.924 6.61725C204.714 5.12763 207.635 4.26501 212.094 4.37934L212.196 0.380657ZM196.165 14.08V15.76H200.165V14.08H196.165ZM198.165 13.76H194.385V17.76H198.165V13.76ZM192.385 15.76V22.66H196.385V15.76H192.385ZM194.385 24.66H198.165V20.66H194.385V24.66ZM196.165 22.66V49H200.165V22.66H196.165ZM240.149 29.26V31.26H242.204L242.148 29.2052L240.149 29.26ZM224.369 29.26L222.389 28.9735L222.058 31.26H224.369V29.26ZM248.009 38.56L249.927 39.1243L250.682 36.56H248.009V38.56ZM238.949 38.56V36.56H237.697L237.15 37.6851L238.949 38.56ZM224.309 34.9V32.9H222.131L222.316 35.0701L224.309 34.9ZM248.609 34.9V36.9H250.303L250.581 35.2288L248.609 34.9ZM232.229 24.12C235.682 24.12 238.065 26.2219 238.149 29.3148L242.148 29.2052C241.993 23.5381 237.415 20.12 232.229 20.12V24.12ZM240.149 27.26H224.369V31.26H240.149V27.26ZM226.348 29.5465C226.619 27.6738 227.382 26.3427 228.36 25.4811C229.34 24.6186 230.656 24.12 232.229 24.12V20.12C229.781 20.12 227.497 20.9114 225.717 22.4789C223.936 24.0473 222.778 26.2862 222.389 28.9735L226.348 29.5465ZM248.009 36.56H238.949V40.56H248.009V36.56ZM237.15 37.6851C236.727 38.5552 236.171 39.2558 235.446 39.7437C234.734 40.2233 233.739 40.58 232.289 40.58V44.58C234.438 44.58 236.233 44.0367 237.681 43.0613C239.117 42.0942 240.09 40.7848 240.747 39.4349L237.15 37.6851ZM232.289 40.58C230.633 40.58 229.244 40.0418 228.236 39.1136C227.233 38.19 226.475 36.7582 226.301 34.7299L222.316 35.0701C222.563 37.9618 223.695 40.37 225.526 42.0564C227.353 43.7382 229.744 44.58 232.289 44.58V40.58ZM224.309 36.9H248.609V32.9H224.309V36.9ZM250.581 35.2288C250.785 34.008 250.849 32.8119 250.849 31.66H246.849C246.849 32.6681 246.792 33.632 246.636 34.5712L250.581 35.2288ZM250.849 31.66C250.849 26.2398 248.983 21.5979 245.667 18.3078C242.354 15.0205 237.732 13.22 232.469 13.22V17.22C236.805 17.22 240.373 18.6895 242.85 21.1472C245.324 23.6021 246.849 27.1802 246.849 31.66H250.849ZM232.469 13.22C227.087 13.22 222.38 15.0502 219.015 18.4573C215.651 21.8641 213.789 26.6867 213.789 32.38H217.789C217.789 27.5733 219.346 23.8159 221.862 21.2677C224.378 18.7198 228.01 17.22 232.469 17.22V13.22ZM213.789 32.38C213.789 38.0603 215.707 42.8789 219.087 46.2839C222.464 49.687 227.164 51.54 232.469 51.54V47.54C228.113 47.54 224.473 46.033 221.926 43.4661C219.38 40.9011 217.789 37.1397 217.789 32.38H213.789ZM232.469 51.54C241.584 51.54 247.879 46.0875 249.927 39.1243L246.09 37.9957C244.538 43.2725 239.793 47.54 232.469 47.54V51.54ZM273.58 24.1V26.1H275.58V24.1H273.58ZM273.58 15.28H275.58V13.28H273.58V15.28ZM263.38 20.92H261.38V27.9993L265.084 21.9665L263.38 20.92ZM263.38 15.76H265.38V13.76H263.38V15.76ZM254.98 15.76V13.76H252.98V15.76H254.98ZM254.98 49H252.98V51H254.98V49ZM263.38 49V51H265.38V49H263.38ZM265.38 32.44C265.38 29.4975 266.07 28.0691 266.868 27.3238C267.691 26.5545 269.063 26.1 271.36 26.1V22.1C268.677 22.1 266.059 22.6055 264.137 24.4012C262.189 26.2209 261.38 28.9625 261.38 32.44H265.38ZM271.36 26.1H273.58V22.1H271.36V26.1ZM275.58 24.1V15.28H271.58V24.1H275.58ZM273.58 13.28C268.23 13.28 264.121 15.8911 261.676 19.8735L265.084 21.9665C266.839 19.1089 269.69 17.28 273.58 17.28V13.28ZM265.38 20.92V15.76H261.38V20.92H265.38ZM263.38 13.76H254.98V17.76H263.38V13.76ZM252.98 15.76V49H256.98V15.76H252.98ZM254.98 51H263.38V47H254.98V51ZM265.38 49V32.44H261.38V49H265.38Z" fill="#F7F7F7" fill-opacity="0.8"/>
</svg>
