<svg width="148" height="157" viewBox="0 0 148 157" fill="none" xmlns="http://www.w3.org/2000/svg">
<path fill-rule="evenodd" clip-rule="evenodd" d="M67 2H20C10.0589 2 2 10.0589 2 20V62C2 71.9411 10.0589 80 20 80H67C76.9411 80 85 71.9411 85 62V20C85 10.0589 76.9411 2 67 2ZM20 0C8.95431 0 0 8.95431 0 20V62C0 73.0457 8.9543 82 20 82H67C78.0457 82 87 73.0457 87 62V20C87 8.95431 78.0457 0 67 0H20Z" fill="#FFEBD4"/>
<path d="M27 44.2478C27 30.8561 35.9543 20 47 20H128C139.046 20 148 30.8561 148 44.2478V132.752C148 146.144 139.046 157 128 157H47C35.9543 157 27 146.144 27 132.752V44.2478Z" fill="#FFEBD4"/>
</svg>
