<svg width="22" height="18" viewBox="0 0 22 18" fill="none" xmlns="http://www.w3.org/2000/svg">
<path d="M8.56469 1.14613C8.46319 1.24501 8.02919 1.61836 7.6722 1.96615C5.42695 4.00512 1.75195 9.32416 0.630197 12.1081C0.449947 12.5309 0.0684464 13.5999 0.0439465 14.171C0.0439466 14.7182 0.169946 15.2399 0.425447 15.7377C0.782447 16.3583 1.3442 16.8561 2.00745 17.1288C2.4677 17.3044 3.84495 17.5772 3.86945 17.5772C5.3762 17.85 7.82445 18 10.5299 18C13.1077 18 15.4562 17.85 16.9857 17.6266C17.0102 17.6011 18.7217 17.3283 19.3079 17.03C20.3789 16.4827 21.0439 15.4138 21.0439 14.2698L21.0439 14.171C21.0177 13.426 20.3527 11.8592 20.3282 11.8592C19.2047 9.22528 15.7099 4.02898 13.3877 1.94058C13.3877 1.94058 12.7909 1.35241 12.4182 1.09669C11.8827 0.69776 11.2194 0.500001 10.5562 0.500001C9.81594 0.500001 9.12644 0.723333 8.56469 1.14613Z" fill="#F7931E"/>
</svg>
