<svg width="84" height="84" viewBox="0 0 84 84" fill="none" xmlns="http://www.w3.org/2000/svg">
<rect width="84" height="84" rx="15" fill="#F7931E"/>
<path d="M21 26C21 24.3431 22.3431 23 24 23H57C58.6569 23 60 24.3431 60 26V42.0672C60 43.7043 58.6876 45.039 57.0508 45.0668L33.1001 45.4727C31.8035 45.4947 30.5662 46.0195 29.6493 46.9365L26.1213 50.4645C24.2314 52.3544 21 51.0159 21 48.3431V44.5V26Z" stroke="white" stroke-width="2"/>
<path d="M64 42C64 40.8954 63.1046 40 62 40H43C41.8954 40 41 40.8954 41 42V52.7033C41 53.7934 41.8731 54.6828 42.9631 54.7029L56.6919 54.9564C57.2391 54.9665 57.7582 55.2004 58.1283 55.6036L60.5266 58.2162C61.7597 59.5594 64 58.6871 64 56.8637V53.75V42Z" fill="#98570C"/>
</svg>
