<svg width="58" height="58" viewBox="0 0 58 58" fill="none" xmlns="http://www.w3.org/2000/svg">
<rect width="58" height="58" rx="15" fill="#F7931E"/>
<circle cx="19.3333" cy="27.619" r="11.0476" fill="#98570C"/>
<path d="M27.4648 25.6373L25.7924 32.4523H23.4628L22.5251 28.2763L21.5681 32.4523H19.2384L17.5854 25.6373H19.6348L20.4274 30.2967L21.5004 25.6373H23.5788L24.6228 30.258L25.4154 25.6373H27.4648Z" fill="#FFF9F2"/>
<path d="M37.8678 25.6373L36.1954 32.4523H33.8658L32.9281 28.2763L31.9711 32.4523H29.6414L27.9884 25.6373H30.0378L30.8304 30.2967L31.9034 25.6373H33.9818L35.0258 30.258L35.8184 25.6373H37.8678Z" fill="#FFF9F2"/>
<path d="M48.2708 25.6373L46.5984 32.4523H44.2688L43.3311 28.2763L42.3741 32.4523H40.0444L38.3914 25.6373H40.4408L41.2334 30.2967L42.3064 25.6373H44.3848L45.4288 30.258L46.2214 25.6373H48.2708Z" fill="#FFF9F2"/>
</svg>
