<svg width="58" height="58" viewBox="0 0 58 58" fill="none" xmlns="http://www.w3.org/2000/svg">
<rect width="58" height="58" rx="15" fill="#F7931E"/>
<path d="M19.7637 34.7422C19.3945 35.1842 18.8727 35.5283 18.1982 35.7744C17.5238 36.016 16.7764 36.1367 15.9561 36.1367C15.0947 36.1367 14.3382 35.9499 13.6865 35.5762C13.0394 35.1979 12.5381 34.651 12.1826 33.9355C11.8317 33.2201 11.6517 32.3792 11.6426 31.4131V30.7363C11.6426 29.7428 11.8089 28.8838 12.1416 28.1592C12.4788 27.43 12.9619 26.874 13.5908 26.4912C14.2243 26.1038 14.9648 25.9102 15.8125 25.9102C16.9928 25.9102 17.9157 26.1927 18.5811 26.7578C19.2464 27.3184 19.6406 28.1364 19.7637 29.2119H17.7676C17.6764 28.6423 17.4736 28.2253 17.1592 27.9609C16.8493 27.6966 16.4209 27.5645 15.874 27.5645C15.1768 27.5645 14.6458 27.8265 14.2812 28.3506C13.9167 28.8747 13.7321 29.654 13.7275 30.6885V31.3242C13.7275 32.3678 13.9258 33.1562 14.3223 33.6895C14.7188 34.2227 15.2998 34.4893 16.0654 34.4893C16.8356 34.4893 17.3848 34.3252 17.7129 33.9971V32.2812H15.8467V30.7705H19.7637V34.7422ZM27.4199 31.6865H23.4824V34.3525H28.1035V36H21.4316V26.0469H28.0898V27.708H23.4824V30.0801H27.4199V31.6865ZM37.4004 36H35.3496L31.3574 29.4512V36H29.3066V26.0469H31.3574L35.3564 32.6094V26.0469H37.4004V36Z" fill="#98570C"/>
<path d="M41.1875 26.8232H44.7715V28H39.3564V27.1406L42.8721 22.0771H39.3613V20.8906H44.6934V21.7305L41.1875 26.8232Z" fill="white"/>
</svg>
