<svg width="58" height="58" viewBox="0 0 58 58" fill="none" xmlns="http://www.w3.org/2000/svg">
<rect width="58" height="58" rx="15" fill="#F7931E"/>
<mask id="path-2-inside-1" fill="white">
<path d="M42.8095 28.3095C42.8095 30.5467 42.266 32.7504 41.2257 34.7309C40.1854 36.7115 38.6795 38.4097 36.8376 39.6794C34.9956 40.9491 32.8728 41.7523 30.6517 42.0199C28.4306 42.2875 26.1778 42.0115 24.087 41.2155C21.9962 40.4196 20.13 39.1277 18.6491 37.4508C17.1682 35.774 16.1169 33.7625 15.5856 31.5893C15.0542 29.4162 15.0588 27.1465 15.5989 24.9755C16.1391 22.8045 17.1985 20.7972 18.6862 19.1264L29 28.3095H42.8095Z"/>
</mask>
<path d="M42.8095 28.3095C42.8095 30.5467 42.266 32.7504 41.2257 34.7309C40.1854 36.7115 38.6795 38.4097 36.8376 39.6794C34.9956 40.9491 32.8728 41.7523 30.6517 42.0199C28.4306 42.2875 26.1778 42.0115 24.087 41.2155C21.9962 40.4196 20.13 39.1277 18.6491 37.4508C17.1682 35.774 16.1169 33.7625 15.5856 31.5893C15.0542 29.4162 15.0588 27.1465 15.5989 24.9755C16.1391 22.8045 17.1985 20.7972 18.6862 19.1264L29 28.3095H42.8095Z" stroke="#FFF9F2" stroke-width="4" mask="url(#path-2-inside-1)"/>
<path d="M26.4448 31.6429L24.6928 28.4629H24.2008V31.6429H22.1488V23.2189H25.5928C26.2568 23.2189 26.8208 23.3349 27.2848 23.5669C27.7568 23.7989 28.1088 24.1189 28.3408 24.5269C28.5728 24.9269 28.6888 25.3749 28.6888 25.8709C28.6888 26.4309 28.5288 26.9309 28.2088 27.3709C27.8968 27.8109 27.4328 28.1229 26.8168 28.3069L28.7608 31.6429H26.4448ZM24.2008 27.0109H25.4728C25.8488 27.0109 26.1288 26.9189 26.3128 26.7349C26.5048 26.5509 26.6008 26.2909 26.6008 25.9549C26.6008 25.6349 26.5048 25.3829 26.3128 25.1989C26.1288 25.0149 25.8488 24.9229 25.4728 24.9229H24.2008V27.0109ZM32.0289 25.8949C32.2289 25.5829 32.5049 25.3309 32.8569 25.1389C33.2089 24.9469 33.6209 24.8509 34.0929 24.8509C34.6449 24.8509 35.1449 24.9909 35.5929 25.2709C36.0409 25.5509 36.3929 25.9509 36.6489 26.4709C36.9129 26.9909 37.0449 27.5949 37.0449 28.2829C37.0449 28.9709 36.9129 29.5789 36.6489 30.1069C36.3929 30.6269 36.0409 31.0309 35.5929 31.3189C35.1449 31.5989 34.6449 31.7389 34.0929 31.7389C33.6289 31.7389 33.2169 31.6429 32.8569 31.4509C32.5049 31.2589 32.2289 31.0109 32.0289 30.7069V34.8349H29.9769V24.9469H32.0289V25.8949ZM34.9569 28.2829C34.9569 27.7709 34.8129 27.3709 34.5249 27.0829C34.2449 26.7869 33.8969 26.6389 33.4809 26.6389C33.0729 26.6389 32.7249 26.7869 32.4369 27.0829C32.1569 27.3789 32.0169 27.7829 32.0169 28.2949C32.0169 28.8069 32.1569 29.2109 32.4369 29.5069C32.7249 29.8029 33.0729 29.9509 33.4809 29.9509C33.8889 29.9509 34.2369 29.8029 34.5249 29.5069C34.8129 29.2029 34.9569 28.7949 34.9569 28.2829Z" fill="#98570C"/>
</svg>
