<svg width="58" height="58" viewBox="0 0 58 58" fill="none" xmlns="http://www.w3.org/2000/svg">
<rect width="58" height="58" rx="15" fill="#F7931E"/>
<path d="M47 32.4047V27.47C47 25.9291 45.3308 24.967 43.9975 25.7394L39.8852 28.1217C38.5785 28.8786 38.55 30.7552 39.833 31.5515L43.9453 34.104C45.2776 34.9309 47 33.9728 47 32.4047Z" stroke="white" stroke-linecap="round" stroke-linejoin="round"/>
<rect x="17.5" y="21.5" width="22" height="16" rx="3.5" fill="#F7931E" stroke="white"/>
<path d="M27.8725 33.0001H26.4077V29.9532H23.5512V33.0001H22.0864V25.8907H23.5512V28.7715H26.4077V25.8907H27.8725V33.0001ZM29.1567 33.0001V25.8907H31.3442C31.9692 25.8907 32.5275 26.0323 33.019 26.3155C33.5138 26.5954 33.8995 26.9958 34.1762 27.5167C34.4529 28.0342 34.5913 28.6234 34.5913 29.2842V29.6114C34.5913 30.2722 34.4546 30.8598 34.1811 31.3741C33.9109 31.8884 33.5285 32.2872 33.0337 32.5704C32.5389 32.8536 31.9806 32.9968 31.3589 33.0001H29.1567ZM30.6216 27.0772V31.8233H31.3296C31.9025 31.8233 32.3403 31.6361 32.643 31.2618C32.9458 30.8874 33.1004 30.3519 33.1069 29.6553V29.2794C33.1069 28.5567 32.9572 28.0098 32.6577 27.6387C32.3582 27.2644 31.9204 27.0772 31.3442 27.0772H30.6216Z" fill="#98570C"/>
</svg>
