<svg width="15" height="15" viewBox="0 0 15 15" fill="none" xmlns="http://www.w3.org/2000/svg">
<path d="M7.5 4.0625C6.82013 4.0625 6.15552 4.26411 5.59023 4.64182C5.02493 5.01954 4.58434 5.5564 4.32416 6.18453C4.06399 6.81265 3.99591 7.50381 4.12855 8.17062C4.26119 8.83743 4.58858 9.44994 5.06932 9.93068C5.55006 10.4114 6.16257 10.7388 6.82938 10.8714C7.49619 11.0041 8.18735 10.936 8.81547 10.6758C9.4436 10.4157 9.98046 9.97507 10.3582 9.40977C10.7359 8.84448 10.9375 8.17987 10.9375 7.5C10.9365 6.58864 10.574 5.71489 9.92954 5.07046C9.28511 4.42603 8.41136 4.06353 7.5 4.0625ZM7.5 10.3125C6.94374 10.3125 6.39997 10.1475 5.93746 9.83851C5.47495 9.52947 5.11446 9.09021 4.90159 8.5763C4.68872 8.06238 4.63302 7.49688 4.74154 6.95131C4.85006 6.40574 5.11793 5.9046 5.51126 5.51126C5.9046 5.11793 6.40574 4.85006 6.95131 4.74154C7.49688 4.63302 8.06238 4.68872 8.5763 4.90159C9.09021 5.11446 9.52947 5.47495 9.83851 5.93746C10.1475 6.39997 10.3125 6.94374 10.3125 7.5C10.3117 8.24567 10.0151 8.96056 9.48782 9.48782C8.96056 10.0151 8.24567 10.3117 7.5 10.3125ZM10.9375 0H4.0625C2.98543 0.00121998 1.95283 0.429624 1.19123 1.19123C0.429624 1.95283 0.00121998 2.98543 0 4.0625V10.9375C0.00121998 12.0146 0.429624 13.0472 1.19123 13.8088C1.95283 14.5704 2.98543 14.9988 4.0625 15H10.9375C12.0146 14.9988 13.0472 14.5704 13.8088 13.8088C14.5704 13.0472 14.9988 12.0146 15 10.9375V4.0625C14.9988 2.98543 14.5704 1.95283 13.8088 1.19123C13.0472 0.429624 12.0146 0.00121998 10.9375 0ZM14.375 10.9375C14.374 11.8489 14.0115 12.7226 13.367 13.367C12.7226 14.0115 11.8489 14.374 10.9375 14.375H4.0625C3.15114 14.374 2.27739 14.0115 1.63296 13.367C0.98853 12.7226 0.626034 11.8489 0.625 10.9375V4.0625C0.626034 3.15114 0.98853 2.27739 1.63296 1.63296C2.27739 0.98853 3.15114 0.626034 4.0625 0.625H10.9375C11.8489 0.626034 12.7226 0.98853 13.367 1.63296C14.0115 2.27739 14.374 3.15114 14.375 4.0625V10.9375ZM12.1875 3.4375C12.1875 3.56111 12.1508 3.68195 12.0822 3.78473C12.0135 3.88751 11.9159 3.96762 11.8017 4.01493C11.6875 4.06223 11.5618 4.07461 11.4406 4.05049C11.3193 4.02638 11.208 3.96685 11.1206 3.87944C11.0331 3.79203 10.9736 3.68067 10.9495 3.55943C10.9254 3.43819 10.9378 3.31253 10.9851 3.19832C11.0324 3.08412 11.1125 2.98651 11.2153 2.91783C11.318 2.84916 11.4389 2.8125 11.5625 2.8125C11.7282 2.81271 11.887 2.87862 12.0042 2.99579C12.1214 3.11295 12.1873 3.2718 12.1875 3.4375Z" fill="#858585"/>
</svg>
