<svg width="178" height="53" viewBox="0 0 178 53" fill="none" xmlns="http://www.w3.org/2000/svg">
<path d="M55.35 22.2C58.64 22.2 61.44 24.265 61.405 28.01H49.295C49.645 24.265 52.235 22.2 55.35 22.2ZM64.31 33.085H60.88C60.18 35.15 58.36 36.62 55.49 36.62C52.235 36.62 49.505 34.485 49.26 30.6H64.59C64.66 29.935 64.695 29.375 64.695 28.675C64.695 23.425 61.055 19.505 55.49 19.505C49.89 19.505 46.005 23.32 46.005 29.375C46.005 35.465 50.03 39.315 55.49 39.315C60.25 39.315 63.33 36.585 64.31 33.085ZM85.9091 19.82H82.7241V30.355C82.7241 34.485 80.5191 36.515 77.2291 36.515C74.0091 36.515 71.8741 34.52 71.8741 30.635V19.82H68.7241V31.055C68.7241 36.55 72.1891 39.28 76.5991 39.28C79.1541 39.28 81.4991 38.16 82.7241 36.165V39H85.9091V19.82ZM105.322 39H108.472V27.695C108.472 22.2 105.077 19.47 100.632 19.47C98.0418 19.47 95.7318 20.555 94.4718 22.55V19.82H91.2868V39H94.4718V28.395C94.4718 24.265 96.7118 22.235 99.9668 22.235C103.187 22.235 105.322 24.23 105.322 28.15V39ZM131.874 29.375C131.874 23.32 127.639 19.505 122.179 19.505C116.754 19.505 112.484 23.32 112.484 29.375C112.484 35.465 116.614 39.315 122.039 39.315C127.499 39.315 131.874 35.465 131.874 29.375ZM115.739 29.375C115.739 24.545 118.784 22.27 122.144 22.27C125.434 22.27 128.619 24.545 128.619 29.375C128.619 34.24 125.364 36.515 122.039 36.515C118.714 36.515 115.739 34.24 115.739 29.375ZM143.342 35.36L137.322 19.82H133.787L141.522 38.79L137.742 48.03H141.032L152.582 19.82H149.292L143.342 35.36ZM154.594 29.34C154.594 35.29 158.549 39.315 163.659 39.315C167.194 39.315 169.679 37.495 170.834 35.43V39H174.054V19.82H170.834V23.32C169.714 21.325 167.264 19.505 163.694 19.505C158.549 19.505 154.594 23.355 154.594 29.34ZM170.834 29.375C170.834 33.89 167.824 36.515 164.324 36.515C160.824 36.515 157.849 33.855 157.849 29.34C157.849 24.825 160.824 22.27 164.324 22.27C167.824 22.27 170.834 24.93 170.834 29.375Z" fill="#432E2D"/>
<path d="M11.9198 42C5.3898 34.9 8.13981 22.21 12.5098 19.31C13.804 18.4803 15.272 17.9602 16.7998 17.79C18.5383 17.7542 20.2577 18.1566 21.7998 18.96C23.4707 18.96 25.0731 18.2962 26.2546 17.1147C27.4361 15.9333 28.0998 14.3308 28.0998 12.66V9.85999H7.0998C5.42894 9.85999 3.82651 10.5237 2.64503 11.7052C1.46355 12.8867 0.799805 14.4891 0.799805 16.16V44.5C0.799805 46.1709 1.46355 47.7733 2.64503 48.9548C3.82651 50.1363 5.42894 50.8 7.0998 50.8H30.9198C32.5907 50.8 34.1931 50.1363 35.3746 48.9548C36.5561 47.7733 37.2198 46.1709 37.2198 44.5V41.7C28.9898 48.81 17.5698 48.16 11.9198 42Z" fill="#F7931E"/>
<path d="M27.3198 24.46V29.19C27.3198 30.4418 26.8225 31.6423 25.9373 32.5275C25.0521 33.4127 23.8516 33.91 22.5998 33.91C21.348 33.91 20.1474 33.4127 19.2623 32.5275C18.3771 31.6423 17.8798 30.4418 17.8798 29.19C17.8798 27.9381 18.3771 26.7376 19.2623 25.8524C20.1474 24.9672 21.348 24.47 22.5998 24.47H27.3198V24.46Z" fill="#432E2D"/>
</svg>
