<svg width="41" height="40" viewBox="0 0 41 40" fill="none" xmlns="http://www.w3.org/2000/svg">
<rect width="40" height="40" rx="8" transform="matrix(-1 0 0 1 40.8823 0)" fill="#F7931E"/>
<path d="M28.4262 18.6076C28.3484 18.5277 28.0547 18.1863 27.781 17.9054C26.1768 16.1389 21.9919 13.2475 19.8015 12.3649C19.4689 12.2231 18.6279 11.9229 18.1785 11.9036C17.748 11.9036 17.3375 12.0028 16.9459 12.2038C16.4576 12.4847 16.066 12.9267 15.8514 13.4485C15.7132 13.8106 15.4986 14.8942 15.4986 14.9135C15.284 16.099 15.1659 18.0252 15.1659 20.1538C15.1659 22.1819 15.284 24.0297 15.4597 25.2331C15.4798 25.2523 15.6944 26.5989 15.9291 27.0602C16.3597 27.9028 17.2007 28.426 18.1007 28.426L18.1785 28.426C18.7647 28.4054 19.9974 27.8821 19.9974 27.8629C22.0697 26.9789 26.158 24.2293 27.8012 22.4022C27.8012 22.4022 28.2639 21.9327 28.4651 21.6395C28.779 21.2181 28.9346 20.6963 28.9346 20.1745C28.9346 19.5921 28.7589 19.0496 28.4262 18.6076Z" fill="white"/>
</svg>
