<svg width="41" height="40" viewBox="0 0 41 40" fill="none" xmlns="http://www.w3.org/2000/svg">
<rect x="0.117676" width="40" height="40" rx="8" fill="#F7931E"/>
<path d="M12.5738 18.6076C12.6516 18.5277 12.9453 18.1863 13.219 17.9054C14.8232 16.1389 19.0081 13.2475 21.1985 12.3649C21.5311 12.2231 22.3721 11.9229 22.8215 11.9036C23.252 11.9036 23.6625 12.0028 24.0541 12.2038C24.5424 12.4847 24.934 12.9267 25.1486 13.4485C25.2868 13.8106 25.5014 14.8942 25.5014 14.9135C25.716 16.099 25.8341 18.0252 25.8341 20.1538C25.8341 22.1819 25.716 24.0297 25.5403 25.2331C25.5202 25.2523 25.3056 26.5989 25.0709 27.0602C24.6403 27.9028 23.7993 28.426 22.8993 28.426L22.8215 28.426C22.2353 28.4054 21.0026 27.8821 21.0026 27.8629C18.9303 26.9789 14.842 24.2293 13.1988 22.4022C13.1988 22.4022 12.7361 21.9327 12.5349 21.6395C12.221 21.2181 12.0654 20.6963 12.0654 20.1745C12.0654 19.5921 12.2411 19.0496 12.5738 18.6076Z" fill="white"/>
</svg>
