<svg width="84" height="84" viewBox="0 0 84 84" fill="none" xmlns="http://www.w3.org/2000/svg">
<rect width="84" height="84" rx="15" fill="#F7931E"/>
<circle cx="42" cy="42.0011" r="21" stroke="white" stroke-width="2"/>
<path d="M29.5294 44.9796L29.9841 46.2126C30.0012 46.259 30.0454 46.2898 30.0948 46.2898C30.1442 46.2898 30.1884 46.259 30.2055 46.2126L30.6603 44.9796C31.0283 43.9815 31.8152 43.1946 32.8133 42.8266L34.0463 42.3718C34.0926 42.3547 34.1234 42.3106 34.1234 42.2611C34.1234 42.2117 34.0926 42.1675 34.0463 42.1504L32.8132 41.6957C31.8151 41.3276 31.0283 40.5408 30.6603 39.5427L30.2055 38.3097C30.1884 38.2634 30.1442 38.2326 30.0948 38.2326C30.0454 38.2326 30.0012 38.2634 29.9841 38.3097L29.5294 39.5427C29.1613 40.5408 28.3745 41.3276 27.3763 41.6957L26.1433 42.1504C26.0969 42.1675 26.0662 42.2117 26.0662 42.2611C26.0662 42.3106 26.0969 42.3547 26.1433 42.3718L27.3763 42.8266C28.3744 43.1946 29.1613 43.9814 29.5294 44.9796Z" fill="#98570C"/>
<path d="M41.2947 44.9796L41.7495 46.2126C41.7666 46.259 41.8108 46.2898 41.8602 46.2898C41.9096 46.2898 41.9538 46.259 41.9709 46.2126L42.4256 44.9796C42.7937 43.9815 43.5806 43.1946 44.5787 42.8266L45.8116 42.3718C45.858 42.3548 45.8888 42.3106 45.8888 42.2611C45.8888 42.2117 45.858 42.1675 45.8116 42.1504L44.5786 41.6957C43.5805 41.3276 42.7937 40.5408 42.4256 39.5427L41.9709 38.3097C41.9538 38.2634 41.9096 38.2326 41.8602 38.2326C41.8108 38.2326 41.7666 38.2634 41.7495 38.3097L41.2947 39.5427C40.9267 40.5408 40.1399 41.3276 39.1417 41.6957L37.9087 42.1504C37.8623 42.1675 37.8315 42.2117 37.8315 42.2611C37.8315 42.3106 37.8623 42.3548 37.9087 42.3718L39.1416 42.8266C40.1398 43.1946 40.9267 43.9814 41.2947 44.9796Z" fill="#98570C"/>
<path d="M53.0601 44.9796L53.5149 46.2126C53.532 46.259 53.5762 46.2898 53.6256 46.2898C53.675 46.2898 53.7192 46.259 53.7363 46.2126L54.191 44.9796C54.5591 43.9815 55.346 43.1946 56.344 42.8266L57.577 42.3718C57.6234 42.3548 57.6542 42.3106 57.6542 42.2611C57.6542 42.2117 57.6234 42.1675 57.577 42.1504L56.344 41.6957C55.3459 41.3276 54.559 40.5408 54.191 39.5427L53.7363 38.3097C53.7192 38.2634 53.675 38.2326 53.6256 38.2326C53.5762 38.2326 53.532 38.2634 53.5149 38.3097L53.0601 39.5427C52.692 40.5408 51.9053 41.3276 50.9071 41.6957L49.6741 42.1504C49.6277 42.1675 49.5969 42.2117 49.5969 42.2611C49.5969 42.3106 49.6277 42.3548 49.6741 42.3718L50.907 42.8266C51.9052 43.1946 52.692 43.9814 53.0601 44.9796Z" fill="#98570C"/>
</svg>
