<svg width="126" height="126" viewBox="0 0 126 126" fill="none" xmlns="http://www.w3.org/2000/svg">
<path d="M85.953 61.0103C94.1955 61.0103 99.75 66.7433 99.75 75.2378C99.75 82.8818 93.366 89.25 84.7192 89.25C75.2482 89.25 68.25 81.606 68.25 69.93C68.25 43.3912 87.6015 32.7758 99.75 31.5V43.176C91.5128 44.6617 82.2518 52.941 81.837 62.076C82.2518 61.866 83.895 61.0103 85.953 61.0103Z" fill="#FFEBD5"/>
<path d="M43.9583 61.0103C52.1903 61.0103 57.75 66.7433 57.75 75.2378C57.75 82.8818 51.366 89.25 42.7193 89.25C33.2483 89.25 26.25 81.606 26.25 69.93C26.25 43.3912 45.6015 32.7758 57.75 31.5V43.176C49.5128 44.6617 40.2518 52.941 39.837 62.076C40.2518 61.866 41.895 61.0103 43.9583 61.0103Z" fill="#FFEBD5"/>
</svg>
