<svg width="58" height="58" viewBox="0 0 58 58" fill="none" xmlns="http://www.w3.org/2000/svg">
<rect width="58" height="58" rx="15" fill="#F7931E"/>
<path d="M32.1071 19.3333L23.794 24.751C21.068 26.5276 21.4909 30.6425 24.5213 31.8275L31.4166 34.5238" stroke="#98570C" stroke-width="2" stroke-linecap="round" stroke-linejoin="round"/>
<circle cx="33.2533" cy="18.7533" r="3.25333" fill="#F7931E" stroke="#FFF9F2" stroke-width="2"/>
<path d="M43.1904 35.7667C43.1904 39.2032 40.2765 42.0581 36.5952 42.0581C32.9139 42.0581 29.9999 39.2032 29.9999 35.7667C29.9999 32.3301 32.9139 29.4752 36.5952 29.4752C40.2765 29.4752 43.1904 32.3301 43.1904 35.7667Z" fill="#F7931E" stroke="#FFF9F2" stroke-width="2"/>
<path d="M24.3542 29.0829C24.3542 31.5005 22.2692 33.5514 19.5818 33.5514C16.8945 33.5514 14.8094 31.5005 14.8094 29.0829C14.8094 26.6652 16.8945 24.6143 19.5818 24.6143C22.2692 24.6143 24.3542 26.6652 24.3542 29.0829Z" fill="#F7931E" stroke="#FFF9F2" stroke-width="2"/>
</svg>
