<svg width="632" height="302" viewBox="0 0 632 302" fill="none" xmlns="http://www.w3.org/2000/svg">
<g filter="url(#filter0_d)">
<rect x="5" y="64" width="592" height="228" rx="40" fill="white"/>
<rect x="5.5" y="64.5" width="591" height="227" rx="39.5" stroke="#F1F1F1"/>
</g>
<path d="M498.477 70.7218C513.428 70.7218 525.548 58.591 525.548 43.627C525.548 28.663 513.428 16.5322 498.477 16.5322C483.526 16.5322 471.406 28.663 471.406 43.627C471.406 58.591 483.526 70.7218 498.477 70.7218Z" fill="#FFB8B8"/>
<path d="M478.272 57.1746C478.272 57.1746 483.372 95.657 475.525 99.9764C467.679 104.296 522.213 104.689 522.213 104.689C522.213 104.689 510.05 71.311 515.543 61.1013L478.272 57.1746Z" fill="#FFB8B8"/>
<path d="M562.034 104.883L557.499 125.553L547.909 169.285L547.622 171.68L544.312 199.407L542.111 217.826L540.635 230.198C531.66 234.815 525.155 238.002 525.155 238.002C525.155 238.002 524.595 235.195 523.693 231.602C517.395 233.492 505.74 236.628 495.863 237.254C499.459 241.267 501.112 245.036 498.87 247.818C492.104 256.204 464.17 238.636 454.4 232.085C454.172 233.653 454.086 235.239 454.142 236.823L446.665 231.068L447.405 217.826L448.653 195.42L450.222 167.321C449.727 166.118 449.313 164.884 448.981 163.626C446.691 155.476 443.912 139.201 441.78 125.553C440.065 114.57 438.776 105.288 438.504 103.313C438.467 103.055 438.449 102.923 438.449 102.923L479.838 84.6179C482.779 91.4454 496.514 93.4977 496.514 93.4977C507.893 92.7129 516.813 86.7071 516.813 86.7071L562.034 104.883Z" fill="#432E2D"/>
<path d="M528.295 230.151C528.295 230.151 526.542 230.751 523.693 231.602C517.394 233.492 505.739 236.628 495.862 237.254C487.358 237.8 480.172 236.488 478.858 230.935C478.295 228.548 479.094 226.584 480.835 224.97C486.033 220.147 499.61 218.419 510.378 217.826C513.418 217.66 516.231 217.583 518.572 217.553C522.548 217.501 525.155 217.583 525.155 217.583L525.217 217.826L528.295 230.151Z" fill="#FFB8B8"/>
<path d="M475.956 17.9979L470.894 15.9697C470.894 15.9697 481.478 4.30779 496.202 5.32191L492.061 0.758509C492.061 0.758509 502.184 -3.29776 511.387 7.35002C516.225 12.9473 521.822 19.5267 525.312 26.9382H530.732L528.47 31.9241L536.388 36.9099L528.261 36.0144C528.745 38.7447 528.819 41.5321 528.481 44.2844C528.133 47.0375 526.729 49.5473 524.566 51.2842C524.566 51.2842 518.289 38.2794 518.289 36.2512V41.3216C518.289 41.3216 513.228 36.7583 513.228 33.716L510.467 37.2653L509.086 31.6879L492.061 37.2653L494.822 32.702L484.238 34.2231L488.38 28.6456C488.38 28.6456 476.416 35.2371 475.956 40.8146C475.496 46.392 471.994 51.6769 471.994 51.6769C471.994 51.6769 462.612 25.6034 475.956 17.9979Z" fill="#2F2E41"/>
<path d="M591.459 199.911C588.701 202.903 581.869 207.409 573.586 212.288C570.505 214.101 567.225 215.969 563.878 217.826C555.894 222.258 547.533 226.65 540.635 230.198C531.659 234.815 525.155 238.002 525.155 238.002C525.155 238.002 524.595 235.195 523.693 231.602C522.486 226.794 520.667 220.578 518.771 217.826C518.705 217.73 518.639 217.641 518.572 217.553C518.02 216.827 517.464 216.403 516.916 216.403L544.312 199.407L556.151 192.06L547.622 171.68L536.924 146.117L543.381 125.553L549.871 104.883H562.034C562.034 104.883 566.061 113.682 571.212 125.951C571.981 127.786 572.776 129.699 573.586 131.673C584.181 157.465 597.389 193.482 591.459 199.911Z" fill="#432E2D"/>
<path d="M498.87 247.818C492.104 256.204 464.17 238.636 454.4 232.085C452.272 230.659 451.005 229.756 451.005 229.756L459.944 217.826L462.775 214.049C462.775 214.049 465.307 215.394 469.051 217.583C469.187 217.664 469.324 217.745 469.463 217.826C472.692 219.723 476.745 222.203 480.835 224.97C486.479 228.791 492.185 233.15 495.862 237.254C499.459 241.267 501.112 245.036 498.87 247.818Z" fill="#FFB8B8"/>
<path d="M469.051 217.583C468.052 217.579 467.055 217.66 466.07 217.826C457.606 219.281 455.11 226.949 454.4 232.085C454.172 233.654 454.086 235.239 454.142 236.823L446.665 231.068L443.941 228.972C437.385 226.683 431.543 222.619 426.477 217.826C422.083 213.594 418.141 208.915 414.715 203.865C411.303 198.888 408.262 193.666 405.615 188.242C404.877 186.729 404.48 185.071 404.452 183.387C404.425 181.703 404.768 180.034 405.457 178.497L414.715 157.845L428.248 127.661C428.347 126.943 428.456 126.24 428.575 125.553C431.259 110.152 438.449 103.313 438.449 103.313H443.941L447.615 125.553L452.18 153.184L448.981 163.626L441.589 187.741L448.653 195.42L469.051 217.583Z" fill="#432E2D"/>
<path d="M475.268 153.206L479.963 158.689C481.708 158.356 483.529 157.965 485.406 157.525L484.057 153.206L487.355 157.057C507.233 152.163 531.872 142.649 531.872 142.649C531.872 142.649 505.272 144.602 485.41 140.259C476.623 138.337 467.582 142.697 463.975 150.945C461.879 155.739 462.209 159.892 469.642 159.892C472.154 159.849 474.659 159.613 477.135 159.186L475.268 153.206Z" fill="#F7931E"/>
<path d="M582.31 243.323V245.559C582.312 246.173 582.198 246.782 581.975 247.354C581.877 247.609 581.757 247.855 581.618 248.091C581.18 248.828 580.557 249.438 579.812 249.862C579.066 250.286 578.224 250.508 577.366 250.508H412.977C412.12 250.508 411.277 250.286 410.532 249.862C409.787 249.438 409.164 248.828 408.725 248.091C408.587 247.855 408.467 247.609 408.368 247.354C408.146 246.782 408.032 246.173 408.033 245.559V243.323C408.033 242.673 408.161 242.029 408.409 241.429C408.658 240.829 409.022 240.283 409.481 239.824C409.94 239.364 410.485 238.999 411.085 238.751C411.685 238.502 412.328 238.374 412.977 238.375H422.453V237.332C422.453 237.305 422.458 237.278 422.469 237.253C422.479 237.228 422.494 237.205 422.513 237.186C422.532 237.167 422.555 237.151 422.58 237.141C422.605 237.131 422.632 237.125 422.659 237.125H427.603C427.63 237.125 427.657 237.131 427.682 237.141C427.707 237.151 427.73 237.167 427.749 237.186C427.768 237.205 427.783 237.228 427.794 237.253C427.804 237.278 427.809 237.305 427.809 237.332V238.375H430.898V237.332C430.898 237.305 430.903 237.278 430.913 237.253C430.924 237.228 430.939 237.205 430.958 237.186C430.977 237.167 431 237.151 431.025 237.141C431.05 237.131 431.077 237.125 431.104 237.125H436.048C436.075 237.125 436.102 237.131 436.127 237.141C436.152 237.151 436.175 237.167 436.194 237.186C436.213 237.205 436.228 237.228 436.239 237.253C436.249 237.278 436.254 237.305 436.254 237.332V238.375H439.346V237.332C439.346 237.305 439.352 237.278 439.362 237.253C439.372 237.228 439.388 237.205 439.407 237.186C439.426 237.167 439.449 237.151 439.474 237.141C439.499 237.131 439.526 237.125 439.553 237.125H444.497C444.524 237.125 444.551 237.131 444.576 237.141C444.601 237.151 444.623 237.167 444.643 237.186C444.662 237.205 444.677 237.228 444.687 237.253C444.698 237.278 444.703 237.305 444.703 237.332V238.375H447.791V237.332C447.791 237.305 447.797 237.278 447.807 237.253C447.817 237.228 447.833 237.205 447.852 237.186C447.871 237.167 447.894 237.151 447.919 237.141C447.944 237.131 447.971 237.125 447.998 237.125H452.942C452.969 237.125 452.996 237.131 453.021 237.141C453.046 237.151 453.068 237.167 453.087 237.186C453.107 237.205 453.122 237.228 453.132 237.253C453.143 237.278 453.148 237.305 453.148 237.332V238.375H456.236V237.332C456.236 237.305 456.242 237.278 456.252 237.253C456.262 237.228 456.278 237.205 456.297 237.186C456.316 237.167 456.339 237.151 456.364 237.141C456.389 237.131 456.415 237.125 456.443 237.125H461.387C461.414 237.125 461.44 237.131 461.465 237.141C461.491 237.151 461.513 237.167 461.532 237.186C461.552 237.205 461.567 237.228 461.577 237.253C461.587 237.278 461.593 237.305 461.593 237.332V238.375H464.685V237.332C464.685 237.305 464.69 237.278 464.701 237.253C464.711 237.228 464.726 237.205 464.745 237.186C464.764 237.167 464.787 237.151 464.812 237.141C464.837 237.131 464.864 237.125 464.891 237.125H469.835C469.862 237.125 469.889 237.131 469.914 237.141C469.939 237.151 469.962 237.167 469.981 237.186C470 237.205 470.015 237.228 470.026 237.253C470.036 237.278 470.041 237.305 470.041 237.332V238.375H473.13V237.332C473.13 237.305 473.135 237.278 473.146 237.253C473.156 237.228 473.171 237.205 473.19 237.186C473.209 237.167 473.232 237.151 473.257 237.141C473.282 237.131 473.309 237.125 473.336 237.125H512.064C512.091 237.125 512.117 237.131 512.143 237.141C512.168 237.151 512.19 237.167 512.209 237.186C512.229 237.205 512.244 237.228 512.254 237.253C512.264 237.278 512.27 237.305 512.27 237.332V238.375H515.362V237.332C515.362 237.305 515.367 237.278 515.378 237.253C515.388 237.228 515.403 237.205 515.422 237.186C515.441 237.167 515.464 237.151 515.489 237.141C515.514 237.131 515.541 237.125 515.568 237.125H520.512C520.567 237.126 520.619 237.148 520.657 237.187C520.696 237.225 520.718 237.277 520.718 237.332V238.375H523.807V237.332C523.807 237.305 523.812 237.278 523.823 237.253C523.833 237.228 523.848 237.205 523.867 237.186C523.886 237.167 523.909 237.151 523.934 237.141C523.959 237.131 523.986 237.125 524.013 237.125H528.957C528.984 237.125 529.011 237.131 529.036 237.141C529.061 237.151 529.084 237.167 529.103 237.186C529.122 237.205 529.137 237.228 529.148 237.253C529.158 237.278 529.163 237.305 529.163 237.332V238.375H532.252V237.332C532.252 237.305 532.257 237.278 532.268 237.253C532.278 237.228 532.293 237.205 532.312 237.186C532.331 237.167 532.354 237.151 532.379 237.141C532.404 237.131 532.431 237.125 532.458 237.125H537.402C537.429 237.125 537.456 237.131 537.481 237.141C537.506 237.151 537.529 237.167 537.548 237.186C537.567 237.205 537.582 237.228 537.593 237.253C537.603 237.278 537.608 237.305 537.608 237.332V238.375H540.701V237.332C540.701 237.305 540.706 237.278 540.716 237.253C540.727 237.228 540.742 237.205 540.761 237.186C540.78 237.167 540.803 237.151 540.828 237.141C540.853 237.131 540.88 237.125 540.907 237.125H545.851C545.905 237.126 545.957 237.148 545.994 237.187C546.032 237.226 546.054 237.278 546.053 237.332V238.375H549.146V237.332C549.145 237.305 549.151 237.278 549.161 237.253C549.171 237.228 549.187 237.205 549.206 237.186C549.225 237.167 549.248 237.151 549.273 237.141C549.298 237.131 549.325 237.125 549.352 237.125H554.296C554.323 237.125 554.35 237.131 554.375 237.141C554.4 237.151 554.422 237.167 554.442 237.186C554.461 237.205 554.476 237.228 554.486 237.253C554.497 237.278 554.502 237.305 554.502 237.332V238.375H557.59V237.332C557.59 237.305 557.596 237.278 557.606 237.253C557.616 237.228 557.632 237.205 557.651 237.186C557.67 237.167 557.693 237.151 557.718 237.141C557.743 237.131 557.77 237.125 557.797 237.125H562.741C562.768 237.125 562.795 237.131 562.82 237.141C562.845 237.151 562.867 237.167 562.887 237.186C562.906 237.205 562.921 237.228 562.931 237.253C562.942 237.278 562.947 237.305 562.947 237.332V238.375H577.367C578.016 238.374 578.659 238.502 579.259 238.751C579.859 238.999 580.404 239.364 580.863 239.824C581.322 240.283 581.686 240.829 581.935 241.429C582.183 242.029 582.311 242.673 582.31 243.323Z" fill="#E6E6E6"/>
<path d="M630.112 247.354H360.272V248.091H630.112V247.354Z" fill="#E6E6E6"/>
<path d="M569.074 149.135H507.801V147.871H480.018V149.135H418.492C417.393 149.135 416.339 149.572 415.562 150.35C414.784 151.128 414.348 152.183 414.348 153.283V237.258C414.348 238.358 414.784 239.414 415.562 240.191C416.339 240.969 417.393 241.406 418.492 241.407H569.074C570.173 241.406 571.228 240.969 572.005 240.191C572.782 239.414 573.219 238.358 573.219 237.258V153.283C573.219 152.738 573.112 152.199 572.903 151.695C572.695 151.192 572.39 150.735 572.005 150.35C571.62 149.964 571.163 149.659 570.66 149.45C570.157 149.242 569.619 149.135 569.074 149.135Z" fill="#E6E6E6"/>
<path d="M493.904 187.664C498.987 187.664 503.107 183.54 503.107 178.453C503.107 173.365 498.987 169.241 493.904 169.241C488.821 169.241 484.701 173.365 484.701 178.453C484.701 183.54 488.821 187.664 493.904 187.664Z" stroke="#432E2D" stroke-width="2" stroke-miterlimit="10"/>
<path d="M490.959 190.98C496.042 190.98 500.162 186.856 500.162 181.769C500.162 176.681 496.042 172.557 490.959 172.557C485.876 172.557 481.755 176.681 481.755 181.769C481.755 186.856 485.876 190.98 490.959 190.98Z" fill="#432E2D"/>
<path d="M377.922 243.631H367.615V253.948H377.922V243.631Z" fill="#432E2D"/>
<path d="M371.666 235.525V248.053H384.182V235.525H371.666ZM383.637 247.507H372.207V236.07H383.637V247.507Z" fill="#E6E6E6"/>
<path d="M616.472 243.631H606.164V253.948H616.472V243.631Z" fill="#432E2D"/>
<path d="M610.215 235.525V248.053H622.732V235.525H610.215ZM622.187 247.507H610.756V236.07H622.187V247.507Z" fill="#E6E6E6"/>
<path d="M372.818 84.7864C388.949 84.7864 402.026 71.6982 402.026 55.553C402.026 39.4078 388.949 26.3196 372.818 26.3196C356.687 26.3196 343.61 39.4078 343.61 55.553C343.61 71.6982 356.687 84.7864 372.818 84.7864Z" fill="#F7931E"/>
<path d="M382.996 20.814C380.352 20.4774 377.675 20.4774 375.031 20.814C369.139 21.5883 363.593 24.0379 359.05 27.8723C354.508 31.7068 351.16 36.7649 349.403 42.4467C348.604 45.0361 348.152 47.72 348.058 50.4283C348.045 50.8048 348.036 51.1857 348.036 51.5667C348.044 59.7872 351.31 67.6687 357.118 73.4815C362.926 79.2943 370.8 82.5636 379.014 82.5718C379.673 82.5718 380.332 82.5497 380.983 82.5098C382.51 82.4139 384.028 82.2036 385.523 81.8808C392.666 80.3435 399.036 76.3294 403.508 70.5475C407.98 64.7656 410.267 57.5878 409.965 50.2819C409.663 42.976 406.79 36.0121 401.856 30.6201C396.921 25.2281 390.241 21.7549 382.996 20.814H382.996ZM388.71 80.0825H388.705C386.21 80.9346 383.614 81.4515 380.983 81.6195C380.332 81.6638 379.673 81.6859 379.014 81.6859C371.035 81.6762 363.387 78.4998 357.745 72.8534C352.104 67.2071 348.93 59.5518 348.921 51.5667C348.921 51.1857 348.93 50.8048 348.943 50.4283C349.247 42.6464 352.547 35.2839 358.152 29.882C363.757 24.4802 371.232 21.4577 379.014 21.4474C386.143 21.4478 393.041 23.9814 398.478 28.597C403.915 33.2125 407.538 39.6101 408.702 46.65C409.867 53.6899 408.496 60.9148 404.834 67.0375C401.173 73.1602 395.459 77.7831 388.71 80.0825H388.71Z" fill="#E6E6E6"/>
<path d="M379.456 23.2192H378.571V29.4203H379.456V23.2192Z" fill="#E6E6E6"/>
<path d="M359.299 31.2088L358.673 31.8352L363.054 36.22L363.68 35.5936L359.299 31.2088Z" fill="#E6E6E6"/>
<path d="M350.691 51.1239V52.0098H356.886V51.1239H350.691Z" fill="#E6E6E6"/>
<path d="M358.673 71.2982L359.299 71.9246L363.68 67.5398L363.054 66.9134L358.673 71.2982Z" fill="#E6E6E6"/>
<path d="M394.347 35.5938L394.973 36.2202L399.354 31.8354L398.728 31.209L394.347 35.5938Z" fill="#E6E6E6"/>
<path d="M401.141 51.1239V52.0098H407.336V51.1239H401.141Z" fill="#E6E6E6"/>
<path d="M394.973 66.9134L394.347 67.5398L398.728 71.9246L399.353 71.2982L394.973 66.9134Z" fill="#E6E6E6"/>
<path d="M379.456 73.7134H378.571V79.9144H379.456V73.7134Z" fill="#E6E6E6"/>
<path d="M380.341 49.795C379.958 49.5075 379.492 49.3521 379.013 49.3521C378.535 49.3521 378.069 49.5075 377.686 49.795C377.424 49.9943 377.208 50.2482 377.053 50.5391C376.857 50.9137 376.772 51.3366 376.809 51.7579C376.845 52.1792 377.001 52.5813 377.259 52.9166C377.516 53.2519 377.864 53.5063 378.262 53.65C378.659 53.7936 379.089 53.8204 379.501 53.7271C379.913 53.6339 380.29 53.4245 380.587 53.1237C380.884 52.8229 381.089 52.4433 381.177 52.0298C381.266 51.6162 381.234 51.186 381.086 50.79C380.937 50.394 380.679 50.0487 380.341 49.795H380.341ZM379.013 52.8955C378.662 52.8945 378.324 52.7541 378.076 52.5052C377.827 52.2562 377.687 51.9188 377.686 51.5667C377.687 51.298 377.769 51.0358 377.92 50.8137C378.05 50.6258 378.226 50.4745 378.431 50.3745C378.636 50.2745 378.864 50.2291 379.092 50.2429C379.319 50.2566 379.54 50.329 379.731 50.4529C379.923 50.5769 380.08 50.7482 380.186 50.9504C380.292 51.1526 380.344 51.3788 380.338 51.6071C380.331 51.8355 380.265 52.0582 380.147 52.2538C380.03 52.4493 379.863 52.6112 379.665 52.7236C379.466 52.836 379.242 52.8952 379.013 52.8955V52.8955Z" fill="#E6E6E6"/>
<path d="M382.997 13.0317H375.031V21.0045H382.997V13.0317Z" fill="#E6E6E6"/>
<path d="M379.014 14.3606C384.879 14.3606 389.635 12.675 389.635 10.5957C389.635 8.51642 384.879 6.83081 379.014 6.83081C373.148 6.83081 368.393 8.51642 368.393 10.5957C368.393 12.675 373.148 14.3606 379.014 14.3606Z" fill="#E6E6E6"/>
<path d="M380.341 34.7354H377.686V49.795H380.341V34.7354Z" fill="#E6E6E6"/>
<path d="M421.198 81.2224H338V82.1083H421.198V81.2224Z" fill="#E6E6E6"/>
<path d="M393.438 220.983C393.782 232.755 386.909 237.069 378.285 237.321C378.084 237.327 377.885 237.33 377.686 237.332C377.287 237.335 376.89 237.328 376.498 237.312C368.698 236.988 362.524 232.844 362.204 221.895C361.874 210.566 375.924 195.845 376.979 194.756L376.98 194.755C377.02 194.713 377.041 194.692 377.041 194.692C377.041 194.692 393.095 209.211 393.438 220.983Z" fill="#432E2D"/>
<path d="M377.664 235.537L383.143 227.383L377.675 236.414L377.687 237.332C377.287 237.335 376.89 237.328 376.498 237.312L376.77 225.517L376.763 225.426L376.773 225.408L376.799 224.294L370.799 215.575L376.792 223.46L376.813 223.695L377.018 214.784L371.836 205.744L377.033 213.218L376.979 194.756L376.979 194.694L376.98 194.755L377.324 209.306L382.047 203.395L377.34 210.559L377.443 218.53L381.789 210.751L377.459 219.702L377.516 224.135L383.837 213.298L377.536 225.681L377.664 235.537Z" fill="#E6E6E6"/>
<path d="M631.988 220.983C632.331 232.755 625.459 237.069 616.834 237.321C616.634 237.327 616.434 237.33 616.236 237.332C615.836 237.335 615.44 237.328 615.048 237.312C607.247 236.988 601.073 232.844 600.754 221.895C600.423 210.566 614.474 195.845 615.528 194.756L615.53 194.755C615.57 194.713 615.59 194.692 615.59 194.692C615.59 194.692 631.644 209.211 631.988 220.983Z" fill="#432E2D"/>
<path d="M616.213 235.537L621.692 227.383L616.224 236.414L616.236 237.332C615.836 237.335 615.44 237.328 615.048 237.312L615.319 225.517L615.312 225.426L615.322 225.408L615.348 224.294L609.348 215.575L615.341 223.46L615.362 223.695L615.567 214.784L610.385 205.744L615.582 213.218L615.528 194.756L615.528 194.694L615.53 194.755L615.874 209.306L620.597 203.395L615.889 210.559L615.992 218.53L620.338 210.751L616.008 219.702L616.066 224.135L622.386 213.298L616.085 225.681L616.213 235.537Z" fill="#E6E6E6"/>
<defs>
<filter id="filter0_d" x="0" y="64" width="602" height="238" filterUnits="userSpaceOnUse" color-interpolation-filters="sRGB">
<feFlood flood-opacity="0" result="BackgroundImageFix"/>
<feColorMatrix in="SourceAlpha" type="matrix" values="0 0 0 0 0 0 0 0 0 0 0 0 0 0 0 0 0 0 127 0"/>
<feOffset dy="5"/>
<feGaussianBlur stdDeviation="2.5"/>
<feColorMatrix type="matrix" values="0 0 0 0 0.845833 0 0 0 0 0.845833 0 0 0 0 0.845833 0 0 0 0.05 0"/>
<feBlend mode="normal" in2="BackgroundImageFix" result="effect1_dropShadow"/>
<feBlend mode="normal" in="SourceGraphic" in2="effect1_dropShadow" result="shape"/>
</filter>
</defs>
</svg>
