<svg width="651" height="349" viewBox="0 0 651 349" fill="none" xmlns="http://www.w3.org/2000/svg">
<g filter="url(#filter0_d)">
<rect x="54" y="111" width="592" height="228" rx="40" fill="white"/>
<rect x="54.5" y="111.5" width="591" height="227" rx="39.5" stroke="#F1F1F1"/>
</g>
<path d="M106.305 302.275H21.5969C21.4648 302.275 21.338 302.223 21.2446 302.13C21.1511 302.037 21.0986 301.911 21.0986 301.779C21.0986 301.647 21.1511 301.521 21.2446 301.428C21.338 301.335 21.4648 301.283 21.5969 301.283H106.305C106.437 301.283 106.564 301.335 106.657 301.428C106.751 301.521 106.803 301.647 106.803 301.779C106.803 301.911 106.751 302.037 106.657 302.13C106.564 302.223 106.437 302.275 106.305 302.275Z" fill="#CCCCCC"/>
<rect x="84.9116" y="0.5" width="169.29" height="230.42" rx="3.5" fill="white" stroke="#F0F0F0"/>
<path d="M117.159 48.0304C115.849 48.0304 114.569 47.6436 113.479 46.9188C112.39 46.1941 111.541 45.1639 111.04 43.9587C110.539 42.7534 110.407 41.4272 110.663 40.1477C110.919 38.8683 111.549 37.693 112.476 36.7705C113.402 35.8481 114.582 35.2199 115.867 34.9654C117.152 34.7109 118.484 34.8415 119.694 35.3407C120.905 35.8399 121.939 36.6853 122.667 37.77C123.395 38.8547 123.783 40.13 123.783 41.4345C123.781 43.1833 123.083 44.8598 121.841 46.0964C120.599 47.3329 118.916 48.0285 117.159 48.0304ZM117.159 35.7181C116.024 35.7181 114.914 36.0533 113.97 36.6815C113.026 37.3096 112.29 38.2024 111.856 39.2469C111.421 40.2915 111.308 41.4409 111.529 42.5497C111.751 43.6586 112.297 44.6772 113.1 45.4767C113.903 46.2761 114.926 46.8206 116.04 47.0411C117.153 47.2617 118.307 47.1485 119.356 46.7158C120.405 46.2832 121.302 45.5505 121.933 44.6104C122.563 43.6704 122.9 42.5651 122.9 41.4345C122.898 39.919 122.293 38.466 121.217 37.3943C120.141 36.3226 118.681 35.7198 117.159 35.7181Z" fill="#CCCCCC"/>
<path d="M117.013 39.9376H117.001L116.302 40.3134L116.197 39.9007L117.075 39.4326H117.539V43.4365H117.013V39.9376Z" fill="#CCCCCC"/>
<path d="M117.159 163.685C115.864 163.685 114.598 163.303 113.521 162.586C112.444 161.87 111.604 160.851 111.108 159.659C110.613 158.468 110.483 157.156 110.736 155.891C110.988 154.626 111.612 153.464 112.528 152.552C113.444 151.639 114.611 151.018 115.882 150.767C117.152 150.515 118.469 150.644 119.666 151.138C120.863 151.631 121.886 152.467 122.605 153.54C123.325 154.612 123.709 155.873 123.709 157.163C123.709 158.893 123.019 160.552 121.791 161.775C120.562 162.998 118.897 163.685 117.159 163.685ZM117.159 151.511C116.037 151.511 114.939 151.842 114.006 152.464C113.072 153.085 112.345 153.967 111.915 155C111.486 156.033 111.373 157.17 111.592 158.266C111.811 159.363 112.352 160.37 113.146 161.16C113.94 161.951 114.951 162.489 116.052 162.707C117.153 162.925 118.294 162.813 119.332 162.386C120.369 161.958 121.255 161.233 121.879 160.304C122.503 159.374 122.836 158.281 122.836 157.163V157.163C122.834 155.665 122.235 154.228 121.171 153.168C120.107 152.109 118.664 151.513 117.159 151.511V151.511Z" fill="#CCCCCC"/>
<path d="M116.065 158.528C116.332 158.685 116.635 158.771 116.945 158.778C117.637 158.778 117.851 158.339 117.844 158.01C117.838 157.456 117.337 157.219 116.817 157.219H116.517V156.816H116.817C117.209 156.816 117.704 156.616 117.704 156.146C117.704 155.83 117.502 155.549 117.007 155.549C116.722 155.557 116.445 155.649 116.212 155.812L116.071 155.422C116.38 155.221 116.742 155.115 117.111 155.117C117.894 155.117 118.248 155.58 118.248 156.062C118.244 156.275 118.17 156.482 118.038 156.65C117.905 156.818 117.721 156.938 117.514 156.993V157.005C117.76 157.041 117.985 157.163 118.147 157.35C118.31 157.536 118.4 157.775 118.401 158.022C118.401 158.656 117.905 159.21 116.952 159.21C116.589 159.215 116.232 159.122 115.918 158.942L116.065 158.528Z" fill="#CCCCCC"/>
<path d="M199.175 65.864C199.432 65.8728 199.686 65.8045 199.904 65.6678C200.121 65.5311 200.292 65.3323 200.395 65.0974C200.497 64.8626 200.527 64.6024 200.479 64.3508C200.431 64.0992 200.308 63.8678 200.126 63.6867C199.944 63.5056 199.712 63.3832 199.459 63.3354C199.206 63.2876 198.945 63.3166 198.709 63.4187C198.473 63.5208 198.274 63.6912 198.136 63.9078C197.999 64.1244 197.93 64.3771 197.939 64.633C197.95 64.9559 198.084 65.2626 198.314 65.491C198.543 65.7195 198.851 65.8528 199.175 65.864Z" fill="#E6E6E6"/>
<path d="M117.159 104.372C115.864 104.372 114.598 103.99 113.521 103.273C112.444 102.556 111.604 101.538 111.108 100.346C110.613 99.1543 110.483 97.8429 110.736 96.5778C110.988 95.3126 111.612 94.1505 112.528 93.2384C113.444 92.3263 114.611 91.7051 115.882 91.4534C117.152 91.2018 118.469 91.3309 119.666 91.8246C120.863 92.3182 121.886 93.1542 122.605 94.2267C123.325 95.2993 123.709 96.5602 123.709 97.8502C123.709 98.7066 123.54 99.5547 123.211 100.346C122.881 101.137 122.399 101.856 121.791 102.462C121.183 103.068 120.461 103.548 119.666 103.876C118.871 104.203 118.02 104.372 117.159 104.372ZM117.159 92.1977C116.037 92.1977 114.939 92.5292 114.006 93.1503C113.072 93.7714 112.345 94.6542 111.915 95.6871C111.486 96.7199 111.373 97.8564 111.592 98.9529C111.811 100.049 112.352 101.057 113.146 101.847C113.94 102.638 114.951 103.176 116.052 103.394C117.153 103.612 118.294 103.5 119.332 103.072C120.369 102.645 121.255 101.92 121.879 100.99C122.503 100.061 122.836 98.9681 122.836 97.8502V97.8502C122.834 96.3516 122.235 94.9149 121.171 93.8552C120.107 92.7955 118.664 92.1995 117.159 92.1977V92.1977Z" fill="#CCCCCC"/>
<path d="M116.001 99.8635V99.5345L116.423 99.1264C117.438 98.1643 117.897 97.6522 117.903 97.0556C117.914 96.9503 117.901 96.844 117.865 96.7444C117.829 96.6448 117.771 96.5545 117.695 96.4803C117.62 96.4061 117.528 96.3497 117.427 96.3155C117.327 96.2812 117.22 96.2699 117.114 96.2824C116.803 96.2938 116.504 96.412 116.27 96.617L116.099 96.2395C116.415 95.9777 116.813 95.8353 117.224 95.8374C117.382 95.8234 117.542 95.8431 117.692 95.8951C117.842 95.9472 117.979 96.0304 118.094 96.1393C118.209 96.2482 118.299 96.3802 118.359 96.5267C118.419 96.6731 118.447 96.8305 118.441 96.9885C118.441 97.7193 117.909 98.3103 117.071 99.1141L116.753 99.4067V99.4186H118.539V99.8635H116.001Z" fill="#CCCCCC"/>
<path d="M170.389 113.088H141.252C140.653 113.088 140.078 112.85 139.655 112.428C139.231 112.006 138.992 111.434 138.992 110.837V93.5792C138.992 92.9824 139.231 92.4102 139.655 91.9882C140.078 91.5662 140.653 91.3288 141.252 91.3281H170.389C170.988 91.3288 171.563 91.5662 171.986 91.9882C172.41 92.4102 172.649 92.9824 172.649 93.5792V110.837C172.649 111.434 172.41 112.006 171.986 112.428C171.563 112.85 170.988 113.088 170.389 113.088Z" fill="white"/>
<path d="M165.725 95.9981H145.916C145.819 95.9983 145.725 95.9599 145.657 95.8914C145.588 95.823 145.549 95.7301 145.549 95.6333C145.549 95.5364 145.587 95.4434 145.656 95.3748C145.725 95.3063 145.818 95.2677 145.915 95.2676H165.725C165.822 95.2675 165.915 95.3059 165.984 95.3743C166.053 95.4427 166.092 95.5356 166.092 95.6325C166.092 95.7294 166.054 95.8223 165.985 95.8909C165.916 95.9595 165.823 95.998 165.726 95.9981H165.725Z" fill="#E6E6E6"/>
<path d="M165.725 99.2857H145.916C145.819 99.2859 145.725 99.2475 145.657 99.179C145.588 99.1106 145.549 99.0177 145.549 98.9209C145.549 98.824 145.587 98.731 145.656 98.6624C145.725 98.5939 145.818 98.5553 145.915 98.5552H165.725C165.822 98.5552 165.915 98.5937 165.984 98.6622C166.053 98.7307 166.092 98.8236 166.092 98.9205C166.092 99.0173 166.053 99.1103 165.984 99.1788C165.915 99.2473 165.822 99.2857 165.725 99.2857H165.725Z" fill="#E6E6E6"/>
<path d="M165.725 102.574H145.916C145.819 102.574 145.725 102.535 145.657 102.467C145.588 102.398 145.549 102.306 145.549 102.209C145.549 102.112 145.587 102.019 145.656 101.95C145.725 101.882 145.818 101.843 145.915 101.843H165.725C165.822 101.843 165.915 101.881 165.984 101.95C166.053 102.018 166.092 102.111 166.092 102.208C166.092 102.305 166.054 102.398 165.985 102.466C165.916 102.535 165.823 102.573 165.726 102.574H165.725Z" fill="#E6E6E6"/>
<path d="M165.725 105.861H145.916C145.819 105.861 145.726 105.822 145.657 105.754C145.589 105.686 145.55 105.593 145.55 105.496C145.55 105.399 145.588 105.306 145.657 105.238C145.725 105.169 145.818 105.131 145.915 105.13H165.725C165.822 105.131 165.915 105.169 165.984 105.238C166.052 105.306 166.091 105.399 166.091 105.496C166.091 105.592 166.052 105.685 165.984 105.754C165.915 105.822 165.822 105.861 165.725 105.861H165.725Z" fill="#E6E6E6"/>
<path d="M165.725 109.149H145.916C145.819 109.149 145.726 109.11 145.657 109.042C145.588 108.973 145.549 108.88 145.549 108.783C145.549 108.686 145.588 108.593 145.657 108.525C145.726 108.456 145.819 108.418 145.916 108.418H165.725C165.822 108.418 165.916 108.456 165.984 108.525C166.053 108.593 166.092 108.686 166.092 108.783C166.092 108.88 166.054 108.973 165.985 109.041C165.916 109.11 165.823 109.148 165.726 109.149H165.725Z" fill="#E6E6E6"/>
<path d="M170.389 113.088H141.252C140.653 113.088 140.078 112.85 139.655 112.428C139.231 112.006 138.992 111.434 138.992 110.837V93.5792C138.992 92.9824 139.231 92.4102 139.655 91.9882C140.078 91.5662 140.653 91.3288 141.252 91.3281H170.389C170.988 91.3288 171.563 91.5662 171.986 91.9882C172.41 92.4102 172.649 92.9824 172.649 93.5792V110.837C172.649 111.434 172.41 112.006 171.986 112.428C171.563 112.85 170.988 113.088 170.389 113.088ZM141.252 91.8284C140.786 91.8289 140.339 92.0135 140.01 92.3417C139.68 92.67 139.495 93.115 139.494 93.5792V110.837C139.495 111.302 139.68 111.747 140.01 112.075C140.339 112.403 140.786 112.588 141.252 112.588H170.389C170.855 112.588 171.302 112.403 171.631 112.075C171.961 111.747 172.146 111.301 172.147 110.837V93.5792C172.146 93.115 171.961 92.67 171.631 92.3417C171.302 92.0135 170.855 91.8289 170.389 91.8284H141.252Z" fill="#E6E6E6"/>
<path d="M211.522 114.767H196.548C196.423 114.767 196.304 114.718 196.217 114.631C196.129 114.544 196.08 114.425 196.08 114.301C196.08 114.178 196.129 114.059 196.217 113.972C196.304 113.885 196.423 113.835 196.548 113.835H211.522C211.584 113.835 211.644 113.847 211.701 113.871C211.758 113.894 211.81 113.928 211.853 113.972C211.897 114.015 211.931 114.066 211.955 114.123C211.978 114.179 211.991 114.24 211.991 114.301C211.991 114.362 211.979 114.423 211.955 114.479C211.932 114.536 211.897 114.587 211.854 114.631C211.81 114.674 211.759 114.708 211.702 114.732C211.645 114.755 211.585 114.767 211.523 114.767H211.522Z" fill="#E6E6E6"/>
<path d="M215.539 108.508H189.265C188.67 108.507 188.1 108.272 187.68 107.853C187.259 107.434 187.023 106.866 187.022 106.274V95.745C187.023 95.1528 187.259 94.5851 187.68 94.1664C188.1 93.7477 188.67 93.5121 189.265 93.5115H215.539C216.134 93.5121 216.704 93.7477 217.125 94.1664C217.545 94.5851 217.782 95.1528 217.782 95.745V106.274C217.782 106.866 217.545 107.434 217.125 107.853C216.704 108.272 216.134 108.507 215.539 108.508ZM189.265 94.1496C188.84 94.1501 188.433 94.3183 188.133 94.6174C187.832 94.9165 187.663 95.322 187.663 95.745V106.274C187.663 106.697 187.832 107.103 188.133 107.402C188.433 107.701 188.84 107.869 189.265 107.87H215.539C215.964 107.869 216.371 107.701 216.672 107.402C216.972 107.103 217.141 106.697 217.141 106.274V95.745C217.141 95.322 216.972 94.9165 216.672 94.6174C216.371 94.3183 215.964 94.1501 215.539 94.1496H189.265Z" fill="#E6E6E6"/>
<path d="M216.862 94.2024L187.721 107.281L187.984 107.863L217.125 94.7842L216.862 94.2024Z" fill="#E6E6E6"/>
<path d="M188.106 94.0405L187.839 94.6204L216.818 107.862L217.085 107.282L188.106 94.0405Z" fill="#E6E6E6"/>
<path d="M173.63 133.931C173.673 133.912 173.713 133.887 173.749 133.858L173.749 133.858L177.84 130.107C177.891 130.061 177.931 130.005 177.958 129.945C177.986 129.884 178 129.819 178 129.753C178 129.688 177.986 129.622 177.959 129.562C177.931 129.501 177.891 129.446 177.84 129.399C177.79 129.353 177.729 129.316 177.663 129.291C177.597 129.266 177.526 129.253 177.454 129.253C177.383 129.253 177.312 129.266 177.245 129.291C177.179 129.316 177.119 129.353 177.069 129.4L173.909 132.297L173.909 119.5C173.909 119.368 173.852 119.24 173.749 119.147C173.647 119.053 173.508 119 173.364 119C173.219 119 173.08 119.053 172.978 119.147C172.876 119.24 172.818 119.368 172.818 119.5L172.818 132.297L169.932 129.65C169.881 129.603 169.821 129.566 169.755 129.541C169.689 129.516 169.618 129.503 169.546 129.503C169.474 129.502 169.403 129.515 169.337 129.541C169.271 129.566 169.21 129.603 169.16 129.649C169.109 129.696 169.069 129.751 169.041 129.812C169.014 129.872 169 129.937 169 130.003C169 130.069 169.014 130.134 169.042 130.195C169.069 130.256 169.11 130.311 169.161 130.357L172.978 133.858L172.978 133.858C173.063 133.935 173.173 133.983 173.29 133.996C173.408 134.01 173.527 133.987 173.63 133.931Z" fill="#CCCCCC"/>
<path d="M159.006 154.737H158.809V149.377C158.809 148.97 158.729 148.566 158.572 148.19C158.416 147.814 158.186 147.472 157.897 147.184C157.608 146.895 157.264 146.667 156.886 146.511C156.508 146.355 156.103 146.275 155.694 146.275H144.29C143.881 146.275 143.476 146.355 143.098 146.511C142.72 146.667 142.377 146.895 142.087 147.184C141.798 147.472 141.569 147.814 141.412 148.19C141.255 148.566 141.175 148.97 141.175 149.377V178.782C141.175 179.605 141.503 180.394 142.087 180.976C142.671 181.558 143.464 181.884 144.29 181.884H155.694C156.103 181.884 156.508 181.804 156.886 181.648C157.264 181.492 157.608 181.264 157.897 180.976C158.186 180.688 158.416 180.346 158.572 179.969C158.729 179.593 158.809 179.19 158.809 178.782V158.552H159.006V154.737Z" fill="#CCCCCC"/>
<path d="M158.146 149.399V178.761C158.146 179.375 157.901 179.964 157.464 180.399C157.028 180.833 156.436 181.078 155.819 181.078H144.361C143.744 181.077 143.152 180.833 142.716 180.399C142.279 179.964 142.034 179.375 142.034 178.761V149.399C142.034 148.784 142.279 148.195 142.716 147.761C143.152 147.326 143.744 147.082 144.361 147.082H145.751C145.683 147.249 145.657 147.43 145.675 147.61C145.694 147.789 145.756 147.962 145.857 148.111C145.958 148.261 146.095 148.384 146.255 148.469C146.415 148.554 146.593 148.598 146.774 148.598H153.307C153.489 148.598 153.667 148.554 153.827 148.469C153.987 148.384 154.123 148.261 154.225 148.111C154.326 147.962 154.388 147.789 154.407 147.61C154.425 147.43 154.399 147.249 154.331 147.082H155.819C156.436 147.082 157.028 147.326 157.464 147.761C157.901 148.195 158.146 148.784 158.146 149.399Z" fill="white"/>
<path d="M137.472 61.2738C137.265 61.0138 137.121 60.7104 137.05 60.3865C136.979 60.0627 136.984 59.7271 137.063 59.4052C138.952 51.5263 138.952 43.3153 137.063 35.4365C136.984 35.1146 136.979 34.779 137.05 34.4552C137.121 34.1314 137.265 33.8279 137.472 33.5679C137.674 33.3116 137.932 33.1045 138.226 32.9624C138.521 32.8203 138.844 32.747 139.171 32.7481H159.365C159.881 32.749 160.38 32.9323 160.773 33.2653C161.166 33.5984 161.427 34.0595 161.511 34.5665C162.828 43.0859 162.828 51.7558 161.511 60.2752C161.427 60.7823 161.166 61.2434 160.773 61.5764C160.38 61.9094 159.881 62.0927 159.365 62.0937H139.171C138.844 62.0947 138.521 62.0214 138.226 61.8793C137.932 61.7372 137.674 61.5301 137.472 61.2738Z" fill="#CCCCCC"/>
<path d="M155.468 43.5758H144.83C144.434 43.5753 144.054 43.4184 143.774 43.1393C143.494 42.8602 143.336 42.4819 143.335 42.0872V41.4551C143.336 41.0604 143.494 40.6821 143.774 40.403C144.054 40.124 144.434 39.967 144.83 39.9666H155.468C155.865 39.967 156.245 40.124 156.525 40.403C156.805 40.6821 156.963 41.0604 156.963 41.4551V42.0872C156.963 42.4819 156.805 42.8602 156.525 43.1393C156.245 43.4184 155.865 43.5753 155.468 43.5758Z" fill="white"/>
<path d="M155.468 49.8013H144.83C144.434 49.8009 144.054 49.6439 143.774 49.3649C143.494 49.0858 143.336 48.7075 143.335 48.3128V47.6807C143.336 47.286 143.494 46.9077 143.774 46.6286C144.054 46.3495 144.434 46.1926 144.83 46.1921H155.468C155.865 46.1926 156.245 46.3495 156.525 46.6286C156.805 46.9077 156.963 47.286 156.963 47.6807V48.3128C156.963 48.7075 156.805 49.0858 156.525 49.3649C156.245 49.6439 155.865 49.8009 155.468 49.8013Z" fill="white"/>
<path d="M269.885 222.504C268.589 214.123 268.589 205.593 269.885 197.211C269.967 196.712 270.224 196.259 270.611 195.931C270.998 195.603 271.489 195.423 271.996 195.422H291.864C292.186 195.421 292.504 195.493 292.794 195.633C293.083 195.773 293.337 195.977 293.536 196.229C293.739 196.485 293.881 196.783 293.95 197.102C294.02 197.42 294.016 197.751 293.938 198.067C292.08 205.819 292.08 213.897 293.938 221.648C294.016 221.965 294.02 222.295 293.95 222.614C293.881 222.932 293.739 223.231 293.536 223.487C293.337 223.739 293.083 223.943 292.794 224.082C292.504 224.222 292.186 224.294 291.864 224.293H271.996C271.489 224.292 270.998 224.112 270.611 223.784C270.224 223.457 269.967 223.003 269.885 222.504Z" fill="#CCCCCC"/>
<path d="M286.113 208.279H275.687C275.291 208.278 274.911 208.121 274.631 207.842C274.35 207.563 274.193 207.185 274.192 206.79V206.209C274.193 205.814 274.35 205.435 274.631 205.156C274.911 204.877 275.291 204.72 275.687 204.72H286.113C286.509 204.72 286.889 204.877 287.17 205.156C287.45 205.435 287.608 205.814 287.608 206.209V206.79C287.608 207.185 287.45 207.563 287.17 207.842C286.889 208.121 286.509 208.278 286.113 208.279Z" fill="white"/>
<path d="M275.721 199.366C276.313 198.173 276.432 196.801 276.055 195.524C275.678 194.247 274.832 193.158 273.685 192.474C273.453 192.346 273.211 192.238 272.961 192.151L272.552 174.134L265.325 179.433L266.821 195.73C266.554 196.823 266.646 197.973 267.084 199.011C267.522 200.049 268.283 200.919 269.254 201.494C269.814 201.804 270.431 201.995 271.069 202.055C271.706 202.115 272.348 202.042 272.956 201.842C273.564 201.643 274.123 201.319 274.599 200.893C275.075 200.467 275.457 199.947 275.721 199.366Z" fill="#F4BFB0"/>
<path d="M272.676 191.367L267.496 191.678C266.943 191.692 266.406 191.498 265.99 191.135C265.574 190.772 265.311 190.267 265.253 189.719L260.951 157.494L254 137.837C253.414 136.199 253.478 134.4 254.18 132.808C254.506 132.041 254.987 131.348 255.591 130.773C256.196 130.197 256.912 129.751 257.697 129.461C260.862 128.316 264.328 130.13 265.422 133.505L272.491 156.042L274.671 188.955C274.715 189.552 274.528 190.143 274.148 190.606C273.911 190.898 273.599 191.12 273.245 191.25C273.062 191.316 272.87 191.356 272.676 191.367Z" fill="#3F3D56"/>
<path d="M242.476 290.416L236.367 290.416L233.461 266.952L242.477 266.953L242.476 290.416Z" fill="#F4BFB0"/>
<path d="M244.033 296.313L224.336 296.312V296.064C224.336 295.062 224.534 294.069 224.919 293.142C225.305 292.216 225.87 291.375 226.581 290.666C227.293 289.957 228.139 289.394 229.069 289.011C229.999 288.627 230.996 288.43 232.003 288.43H232.003L244.034 288.43L244.033 296.313Z" fill="#2F2E41"/>
<path d="M260.414 290.416L254.305 290.416L251.399 266.952L260.415 266.953L260.414 290.416Z" fill="#F4BFB0"/>
<path d="M261.972 296.313L242.274 296.312V296.064C242.274 295.062 242.473 294.069 242.858 293.142C243.243 292.216 243.808 291.375 244.52 290.666C245.232 289.957 246.077 289.394 247.007 289.011C247.937 288.627 248.934 288.43 249.941 288.43H249.942L261.972 288.43L261.972 296.313Z" fill="#2F2E41"/>
<path d="M264.514 195.592L263.055 281.776C263.05 282.049 262.989 282.318 262.875 282.566C262.762 282.815 262.598 283.037 262.394 283.219C262.19 283.402 261.95 283.54 261.69 283.626C261.43 283.712 261.155 283.744 260.882 283.719L253.733 283.072C253.264 283.029 252.826 282.823 252.495 282.489C252.164 282.156 251.963 281.716 251.926 281.249L247.741 227.49C247.732 227.363 247.674 227.246 247.579 227.16C247.485 227.075 247.362 227.029 247.235 227.032C247.108 227.034 246.986 227.085 246.895 227.174C246.805 227.263 246.751 227.383 246.747 227.509L244.655 282.499C244.635 283.012 244.417 283.498 244.046 283.854C243.674 284.21 243.179 284.409 242.663 284.409H234.997C234.489 284.409 234.001 284.216 233.631 283.87C233.261 283.523 233.038 283.05 233.007 282.545L227.641 195.096L259.531 187.157L264.514 195.592Z" fill="#2F2E41"/>
<path d="M241.383 114.666C248.142 114.666 253.621 109.21 253.621 102.479C253.621 95.7484 248.142 90.2922 241.383 90.2922C234.624 90.2922 229.145 95.7484 229.145 102.479C229.145 109.21 234.624 114.666 241.383 114.666Z" fill="#F4BFB0"/>
<path d="M226.549 198.155C226.337 197.951 226.167 197.707 226.051 197.438C225.934 197.168 225.872 196.878 225.869 196.585L225.043 137.815C224.994 134.826 225.897 131.898 227.623 129.451C229.349 127.005 231.81 125.166 234.651 124.2C235.798 119.02 241.9 118.371 245.458 118.448C246.346 118.467 247.216 118.699 247.995 119.125C248.773 119.55 249.438 120.156 249.931 120.891L252.481 124.7L258.102 127.981C260.703 129.493 262.755 131.788 263.961 134.537C265.168 137.285 265.466 140.344 264.814 143.272L263.949 147.191C260.901 161.064 261.191 175.458 264.795 189.198L266.536 195.809C266.627 196.154 266.633 196.515 266.556 196.862C266.478 197.209 266.318 197.533 266.089 197.807C265.859 198.08 265.568 198.295 265.239 198.433C264.909 198.571 264.551 198.629 264.195 198.602L262.173 198.447C261.648 198.407 261.153 198.185 260.777 197.818C260.4 197.452 260.165 196.965 260.114 196.443L259.779 193.11C259.773 193.049 259.744 192.992 259.698 192.951C259.652 192.91 259.593 192.887 259.531 192.887C259.469 192.887 259.41 192.91 259.364 192.951C259.318 192.992 259.289 193.049 259.283 193.11L258.959 196.337C258.904 196.882 258.65 197.388 258.245 197.759C257.84 198.13 257.312 198.339 256.762 198.347L228.146 198.786C228.134 198.786 228.122 198.787 228.11 198.787C227.527 198.788 226.966 198.561 226.549 198.155Z" fill="#3F3D56"/>
<path d="M242.34 109.504C242.39 111.227 243.591 112.223 245.066 113.126C246.54 114.028 248.264 114.419 249.953 114.797C250.18 114.917 250.434 114.976 250.69 114.97C250.947 114.964 251.198 114.892 251.419 114.761C251.639 114.63 251.822 114.445 251.95 114.223C252.078 114.001 252.146 113.75 252.148 113.494L253.697 107.628C254.245 105.754 254.643 103.84 254.889 101.903C255.262 98.1775 254.375 94.1694 251.764 91.4755C249.152 88.7815 244.623 87.8246 241.493 89.9002C237.779 85.1766 220.803 95.6128 224.991 98.8974C225.736 99.4817 226.875 98.7423 227.82 98.6707C228.766 98.599 229.825 98.7646 230.426 99.4954C231.211 100.45 230.869 101.872 231.193 103.063C231.326 103.482 231.542 103.871 231.827 104.207C232.113 104.542 232.462 104.818 232.855 105.019C233.248 105.22 233.677 105.341 234.117 105.375C234.557 105.41 235 105.358 235.42 105.221C236.202 104.837 236.937 104.367 237.612 103.817C238.338 103.336 239.254 102.981 240.071 103.284C241.147 103.684 241.529 104.996 241.626 106.136C241.79 107.273 242.029 108.398 242.34 109.504Z" fill="#2F2E41"/>
<path opacity="0.2" d="M239.481 142.165L237.488 166.478L227.024 191.784L242.471 166.974L239.481 142.165Z" fill="black"/>
<path d="M224.578 201.208C225.149 200.751 225.613 200.175 225.937 199.521C226.26 198.866 226.436 198.149 226.451 197.42C226.466 196.691 226.32 195.967 226.024 195.3C225.728 194.633 225.288 194.038 224.736 193.558L231.403 177.117L222.333 178.941L217.393 194.274C216.645 195.251 216.283 196.467 216.375 197.691C216.467 198.916 217.007 200.064 217.893 200.919C218.779 201.774 219.948 202.275 221.18 202.328C222.413 202.381 223.621 201.983 224.578 201.208V201.208Z" fill="#F4BFB0"/>
<path d="M224.383 193.956L219.249 192.114C218.72 191.921 218.283 191.538 218.023 191.04C217.764 190.543 217.701 189.966 217.846 189.424L226.316 158.552L227.607 130.651C227.646 129.808 227.853 128.982 228.215 128.22C228.577 127.459 229.088 126.776 229.718 126.212C230.348 125.649 231.084 125.216 231.883 124.938C232.682 124.66 233.529 124.543 234.374 124.594C235.219 124.645 236.046 124.863 236.806 125.235C237.565 125.607 238.243 126.125 238.8 126.761C239.357 127.396 239.781 128.135 240.048 128.935C240.316 129.735 240.421 130.58 240.357 131.42L238.051 161.972L227.259 192.596C227.096 193.058 226.784 193.455 226.372 193.724C225.96 193.992 225.47 194.119 224.979 194.084C224.776 194.068 224.575 194.025 224.383 193.956Z" fill="#3F3D56"/>
<path d="M78.4355 293.075L90.466 293.075H90.4665C91.4733 293.075 92.4703 293.272 93.4004 293.656C94.3306 294.039 95.1758 294.602 95.8878 295.311C96.5997 296.02 97.1644 296.861 97.5497 297.788C97.935 298.714 98.1333 299.707 98.1333 300.709V300.957L78.4359 300.958L78.4355 293.075Z" fill="#2F2E41"/>
<path d="M18.4179 220.399C22.5905 213.006 27.8747 206.293 34.0871 200.492C34.4608 200.15 34.9443 199.951 35.4516 199.93C35.9588 199.91 36.4569 200.07 36.8571 200.381L52.494 212.585C52.748 212.782 52.9536 213.034 53.095 213.322C53.2364 213.61 53.3099 213.927 53.31 214.247C53.3113 214.573 53.238 214.895 53.0955 215.189C52.9531 215.482 52.7453 215.74 52.4879 215.941C46.2231 220.9 41.2186 227.258 37.8792 234.501C37.7443 234.798 37.5431 235.06 37.2909 235.268C37.0387 235.476 36.7422 235.624 36.424 235.7C36.1113 235.777 35.7852 235.781 35.4706 235.713C35.1559 235.646 34.861 235.507 34.6082 235.308L18.9713 223.104C18.5724 222.791 18.2978 222.348 18.1965 221.852C18.0951 221.357 18.1736 220.842 18.4179 220.399Z" fill="#CCCCCC"/>
<path d="M40.0966 218.466L31.8909 212.062C31.5792 211.818 31.3774 211.461 31.3297 211.069C31.282 210.677 31.3924 210.283 31.6365 209.972L31.9967 209.514C32.2416 209.204 32.6 209.003 32.9935 208.955C33.3869 208.908 33.7832 209.018 34.0954 209.261L42.3011 215.665C42.6128 215.909 42.8146 216.266 42.8623 216.658C42.9099 217.05 42.7996 217.444 42.5555 217.755L42.1952 218.213C41.9504 218.523 41.5919 218.724 41.1985 218.772C40.8051 218.819 40.4088 218.709 40.0966 218.466Z" fill="white"/>
<path d="M36.3021 223.287L28.0964 216.882C27.7848 216.638 27.583 216.281 27.5353 215.89C27.4876 215.498 27.5979 215.103 27.8421 214.792L28.2025 214.335C28.4473 214.024 28.8058 213.823 29.1992 213.776C29.5926 213.728 29.9889 213.838 30.3011 214.081L38.5068 220.486C38.8185 220.73 39.0203 221.087 39.068 221.478C39.1157 221.87 39.0053 222.265 38.7612 222.576L38.4008 223.033C38.156 223.344 37.7975 223.545 37.4041 223.592C37.0106 223.64 36.6143 223.53 36.3021 223.287Z" fill="white"/>
<path d="M25.6343 287.713L31.1199 290.39L44.1011 270.596L36.0055 266.645L25.6343 287.713Z" fill="#F4CDC3"/>
<path d="M25.1131 285.246L35.9156 290.519L35.916 290.519C36.82 290.961 37.6279 291.575 38.2936 292.327C38.9592 293.079 39.4695 293.955 39.7954 294.903C40.1213 295.852 40.2563 296.855 40.1928 297.856C40.1293 298.856 39.8685 299.835 39.4253 300.735L39.3156 300.958L21.6289 292.324L25.1131 285.246Z" fill="#2F2E41"/>
<path d="M79.9942 297.046L86.1031 297.046L89.0091 273.582L79.9932 273.583L79.9942 297.046Z" fill="#F4CDC3"/>
<path d="M66.8721 135.115C73.6312 135.115 79.1105 129.659 79.1105 122.928C79.1105 116.197 73.6312 110.741 66.8721 110.741C60.1131 110.741 54.6338 116.197 54.6338 122.928C54.6338 129.659 60.1131 135.115 66.8721 135.115Z" fill="#F4CDC3"/>
<path d="M79.0591 289.307C78.4818 289.306 77.927 289.084 77.5102 288.686C77.0934 288.288 76.8467 287.746 76.8215 287.172L72.091 224.473C72.0855 224.309 72.0256 224.151 71.9206 224.024C71.8156 223.897 71.6714 223.809 71.5105 223.772C71.3496 223.735 71.181 223.753 71.0311 223.822C70.8812 223.89 70.7583 224.007 70.6817 224.152L40.4202 281.681C40.1455 282.197 39.6796 282.586 39.1215 282.765C38.5634 282.945 37.957 282.901 37.4311 282.642L28.9952 278.442C28.466 278.177 28.0632 277.715 27.8745 277.156C27.6857 276.597 27.7263 275.986 27.9873 275.456L46.0445 239.021L58.0046 211.728C62.621 202.673 67.5232 198.007 72.9912 197.463C78.6009 196.905 84.5916 200.746 91.3089 209.206L91.3637 209.275L91.3626 209.363L90.366 285.952C90.3676 286.509 90.1597 287.045 89.7833 287.456C89.4069 287.867 88.8894 288.123 88.333 288.172L79.2785 289.297C79.2049 289.304 79.1318 289.307 79.0591 289.307Z" fill="#2F2E41"/>
<path d="M53.9558 216.136C54.6218 215.727 55.1896 215.177 55.6192 214.526C56.0488 213.874 56.3298 213.137 56.4423 212.366C56.5548 211.595 56.4962 210.808 56.2705 210.062C56.0448 209.316 55.6576 208.628 55.1361 208.047L56.9815 159.493L48.0124 160.606L47.2561 207.842C46.334 208.779 45.7891 210.021 45.7247 211.331C45.6603 212.642 46.0809 213.93 46.9067 214.952C47.7325 215.975 48.9062 216.66 50.2054 216.878C51.5047 217.096 52.8391 216.832 53.9558 216.136Z" fill="#F4CDC3"/>
<path d="M59.6288 168.077L47.5842 166.714C47.2415 166.676 46.9112 166.564 46.6159 166.386C46.3205 166.209 46.067 165.97 45.8726 165.687C45.6782 165.403 45.5475 165.081 45.4894 164.742C45.4313 164.404 45.4471 164.057 45.5358 163.725L48.6454 152.096C48.8545 150.351 49.75 148.759 51.1354 147.671C52.5209 146.582 54.2833 146.086 56.0362 146.289C57.7891 146.493 59.3894 147.38 60.4862 148.757C61.583 150.133 62.0868 151.887 61.8871 153.633L62.2986 165.622C62.3103 165.965 62.2475 166.307 62.1146 166.624C61.9817 166.941 61.7817 167.225 61.5284 167.458C61.275 167.691 60.9742 167.867 60.6464 167.974C60.3186 168.081 59.9715 168.116 59.6288 168.077L59.6288 168.077Z" fill="#2F2E41"/>
<path d="M111.514 137.513C111.453 137.78 111.413 138.052 111.394 138.326L89.9895 150.623L84.7867 147.64L79.2402 154.871L87.9354 161.042C88.6379 161.541 89.4838 161.799 90.3462 161.778C91.2085 161.757 92.0408 161.458 92.7181 160.926L114.79 143.586C115.786 143.954 116.871 144.01 117.9 143.748C118.929 143.487 119.854 142.919 120.551 142.121C121.249 141.324 121.686 140.333 121.804 139.282C121.922 138.231 121.716 137.169 121.214 136.237C120.711 135.305 119.936 134.548 118.99 134.066C118.045 133.584 116.974 133.4 115.921 133.538C114.868 133.677 113.883 134.131 113.095 134.841C112.308 135.551 111.756 136.483 111.514 137.513V137.513Z" fill="#F4CDC3"/>
<path d="M89.274 151.205L82.3559 160.133C82.1591 160.388 81.9096 160.596 81.6244 160.746C81.3392 160.895 81.025 160.981 80.7033 160.999C80.3816 161.017 80.0598 160.965 79.7599 160.847C79.4601 160.73 79.1892 160.549 78.9657 160.318L71.134 152.22C69.8337 151.21 68.9889 149.728 68.7847 148.098C68.5806 146.469 69.0338 144.825 70.045 143.528C71.0562 142.231 72.5427 141.386 74.1786 141.179C75.8144 140.972 77.466 141.419 78.771 142.423L88.5936 147.893C88.8748 148.049 89.1188 148.265 89.3089 148.524C89.4991 148.783 89.6309 149.079 89.6955 149.394C89.7601 149.708 89.7558 150.033 89.6831 150.345C89.6104 150.658 89.4708 150.951 89.274 151.205H89.274Z" fill="#2F2E41"/>
<path d="M94.9173 213.003L81.6361 148.584C81.0049 145.522 79.2064 142.823 76.6186 141.054C74.0307 139.285 70.8551 138.584 67.7589 139.098L63.3296 139.833C61.7909 140.088 60.3178 140.643 58.9943 141.465C57.6709 142.287 56.5231 143.361 55.6164 144.625C54.1758 146.634 53.2054 148.938 52.7765 151.369C52.3477 153.799 52.4714 156.295 53.1384 158.672L60.4693 184.799L55.0288 212.789C54.9681 213.1 54.9828 213.42 55.0717 213.724C55.1606 214.028 55.3212 214.306 55.54 214.535C55.7588 214.764 56.0295 214.938 56.3295 215.042C56.6295 215.145 56.9501 215.176 57.2646 215.132C59.9883 214.744 64.478 214.19 69.6345 213.888L72.4281 203.157L73.5643 213.717C79.8987 213.541 86.7749 213.85 92.4475 215.317C92.7757 215.405 93.1208 215.407 93.4501 215.325C93.7795 215.242 94.0822 215.077 94.3296 214.845C94.5769 214.613 94.7607 214.322 94.8636 214C94.9664 213.678 94.9849 213.334 94.9173 213.003Z" fill="#F7931E"/>
<path d="M80.9664 112.639C80.236 108.408 76.8254 104.901 72.7625 103.466C68.6995 102.031 64.1182 102.498 60.1394 104.15C55.8928 105.87 52.3773 109.004 50.1935 113.018C49.6759 112.787 49.1782 112.514 48.7057 112.202C46.3496 110.641 44.4377 108.417 41.8886 107.193C37.3943 105.034 31.9609 106.469 27.5871 108.86C23.2132 111.251 19.336 114.554 14.7156 116.43C10.0956 118.306 4.20013 118.399 0.701682 114.856C-0.159276 117.34 -0.22968 120.028 0.500068 122.553C1.22982 125.078 2.72417 127.318 4.77925 128.966C6.83433 130.614 9.35003 131.591 11.9831 131.762C14.6162 131.934 17.2384 131.293 19.4919 129.926C24.5541 126.855 27.3504 120.417 33.0283 118.723C36.17 117.785 39.5439 118.54 42.7195 119.358C44.5901 119.894 46.499 120.287 48.4296 120.534C48.4522 124.004 49.7646 127.342 52.1134 129.905C56.0318 134.013 62.1815 135.107 67.8704 135.041L67.9894 134.921C66.2476 132.324 64.8729 128.724 66.7906 126.254C68.6838 123.816 72.4175 124.175 75.3167 123.096C79.3547 121.593 81.6968 116.87 80.9664 112.639Z" fill="#2F2E41"/>
<path d="M281.873 296.916H197.165C197.033 296.916 196.906 296.864 196.813 296.771C196.719 296.678 196.667 296.552 196.667 296.42C196.667 296.288 196.719 296.162 196.813 296.069C196.906 295.976 197.033 295.924 197.165 295.924H281.873C282.006 295.924 282.132 295.976 282.226 296.069C282.319 296.162 282.372 296.288 282.372 296.42C282.372 296.552 282.319 296.678 282.226 296.771C282.132 296.864 282.006 296.916 281.873 296.916Z" fill="#CCCCCC"/>
<defs>
<filter id="filter0_d" x="49" y="111" width="602" height="238" filterUnits="userSpaceOnUse" color-interpolation-filters="sRGB">
<feFlood flood-opacity="0" result="BackgroundImageFix"/>
<feColorMatrix in="SourceAlpha" type="matrix" values="0 0 0 0 0 0 0 0 0 0 0 0 0 0 0 0 0 0 127 0"/>
<feOffset dy="5"/>
<feGaussianBlur stdDeviation="2.5"/>
<feColorMatrix type="matrix" values="0 0 0 0 0.845833 0 0 0 0 0.845833 0 0 0 0 0.845833 0 0 0 0.05 0"/>
<feBlend mode="normal" in2="BackgroundImageFix" result="effect1_dropShadow"/>
<feBlend mode="normal" in="SourceGraphic" in2="effect1_dropShadow" result="shape"/>
</filter>
</defs>
</svg>
