<svg width="228" height="65" viewBox="0 0 228 65" fill="none" xmlns="http://www.w3.org/2000/svg">
<path d="M14.6 47.06L12.6686 47.5795L13.0694 49.0694L14.6122 49.06L14.6 47.06ZM24.44 47L24.4522 49L25.9658 48.9907L26.3681 47.5315L24.44 47ZM32.66 17.18L34.5939 16.6702L32.7032 9.49708L30.7319 16.6485L32.66 17.18ZM40.52 47L38.5861 47.5098L38.9789 49H40.52V47ZM50.42 47V49H51.9378L52.3462 47.5381L50.42 47ZM62.12 5.12L64.0462 5.65813L64.7553 3.12H62.12V5.12ZM53.06 5.12V3.12H51.4679L51.1109 4.6716L53.06 5.12ZM45.62 37.46L43.6791 37.9425L47.5691 37.9084L45.62 37.46ZM37.58 5.12L39.5209 4.63747L39.1437 3.12H37.58V5.12ZM28.22 5.12V3.12H26.6765L26.2853 4.61312L28.22 5.12ZM19.7 37.64L17.7496 38.0826L21.6347 38.1469L19.7 37.64ZM12.32 5.12L14.2704 4.67738L13.917 3.12H12.32V5.12ZM3.32 5.12V3.12H0.711015L1.38864 5.63945L3.32 5.12ZM14.6122 49.06L24.4522 49L24.4278 45L14.5878 45.06L14.6122 49.06ZM26.3681 47.5315L34.5881 17.7115L30.7319 16.6485L22.5119 46.4685L26.3681 47.5315ZM30.7261 17.6898L38.5861 47.5098L42.4539 46.4902L34.5939 16.6702L30.7261 17.6898ZM40.52 49H50.42V45H40.52V49ZM52.3462 47.5381L64.0462 5.65813L60.1938 4.58187L48.4938 46.4619L52.3462 47.5381ZM62.12 3.12H53.06V7.12H62.12V3.12ZM51.1109 4.6716L43.6709 37.0116L47.5691 37.9084L55.0091 5.5684L51.1109 4.6716ZM47.5609 36.9775L39.5209 4.63747L35.6391 5.60253L43.6791 37.9425L47.5609 36.9775ZM37.58 3.12H28.22V7.12H37.58V3.12ZM26.2853 4.61312L17.7653 37.1331L21.6347 38.1469L30.1547 5.62688L26.2853 4.61312ZM21.6504 37.1974L14.2704 4.67738L10.3696 5.56262L17.7496 38.0826L21.6504 37.1974ZM12.32 3.12H3.32V7.12H12.32V3.12ZM1.38864 5.63945L12.6686 47.5795L16.5314 46.5406L5.25136 4.60055L1.38864 5.63945ZM67.6048 47H65.6048V49H67.6048V47ZM76.0048 47V49H78.0048V47H76.0048ZM90.8848 47H88.8848V49H90.8848V47ZM99.2848 47V49H101.285V47H99.2848ZM76.0048 17.9H74.0048V23.8002L77.5926 19.1162L76.0048 17.9ZM76.0048 2.6H78.0048V0.599998H76.0048V2.6ZM67.6048 2.6V0.599998H65.6048V2.6H67.6048ZM67.6048 49H76.0048V45H67.6048V49ZM78.0048 47V28.64H74.0048V47H78.0048ZM78.0048 28.64C78.0048 26.3273 78.6374 24.8167 79.5017 23.8977C80.3527 22.993 81.6547 22.42 83.5048 22.42V18.42C80.795 18.42 78.347 19.287 76.588 21.1573C74.8423 23.0133 74.0048 25.6127 74.0048 28.64H78.0048ZM83.5048 22.42C85.2803 22.42 86.5531 22.9837 87.3951 23.8893C88.2521 24.8111 88.8848 26.3274 88.8848 28.64H92.8848C92.8848 25.6126 92.0476 23.0189 90.3246 21.1657C88.5866 19.2963 86.1693 18.42 83.5048 18.42V22.42ZM88.8848 28.64V47H92.8848V28.64H88.8848ZM90.8848 49H99.2848V45H90.8848V49ZM101.285 47V27.5H97.2848V47H101.285ZM101.285 27.5C101.285 22.5122 99.7947 18.4217 97.0627 15.5652C94.3263 12.704 90.5331 11.28 86.3248 11.28V15.28C89.6166 15.28 92.3034 16.376 94.172 18.3298C96.045 20.2883 97.2848 23.3078 97.2848 27.5H101.285ZM86.3248 11.28C81.3534 11.28 77.0076 13.3017 74.4171 16.6838L77.5926 19.1162C79.3221 16.8583 82.4163 15.28 86.3248 15.28V11.28ZM78.0048 17.9V2.6H74.0048V17.9H78.0048ZM76.0048 0.599998H67.6048V4.6H76.0048V0.599998ZM65.6048 2.6V47H69.6048V2.6H65.6048ZM121.433 36.98L119.557 37.6732L121.42 42.715L123.306 37.6817L121.433 36.98ZM112.853 13.76L114.729 13.0668L114.246 11.76H112.853V13.76ZM103.433 13.76V11.76H100.448L101.583 14.5205L103.433 13.76ZM116.753 46.16L118.587 46.9575L118.924 46.1818L118.603 45.3995L116.753 46.16ZM109.553 62.72L107.719 61.9225L106.502 64.72H109.553V62.72ZM118.493 62.72V64.72H119.822L120.337 63.495L118.493 62.72ZM139.073 13.76L140.917 14.535L142.083 11.76H139.073V13.76ZM130.133 13.76V11.76H128.746L128.26 13.0583L130.133 13.76ZM123.309 36.2868L114.729 13.0668L110.977 14.4532L119.557 37.6732L123.309 36.2868ZM112.853 11.76H103.433V15.76H112.853V11.76ZM101.583 14.5205L114.903 46.9205L118.603 45.3995L105.283 12.9995L101.583 14.5205ZM114.919 45.3625L107.719 61.9225L111.387 63.5175L118.587 46.9575L114.919 45.3625ZM109.553 64.72H118.493V60.72H109.553V64.72ZM120.337 63.495L140.917 14.535L137.229 12.985L116.649 61.945L120.337 63.495ZM139.073 11.76H130.133V15.76H139.073V11.76ZM128.26 13.0583L119.56 36.2783L123.306 37.6817L132.006 14.4617L128.26 13.0583ZM191.618 5.12H193.618V3.12H191.618V5.12ZM183.158 5.12V3.12H181.158V5.12H183.158ZM166.178 5.12H168.178V3.12H166.178V5.12ZM157.778 5.12V3.12H155.778V5.12H157.778ZM155.778 30.98C155.778 36.9866 157.852 41.6673 161.368 44.8275C164.851 47.9578 169.551 49.42 174.518 49.42V45.42C170.305 45.42 166.634 44.1822 164.042 41.8525C161.483 39.5527 159.778 36.0134 159.778 30.98H155.778ZM174.518 49.42C179.482 49.42 184.259 47.96 187.826 44.8467C191.432 41.6989 193.618 37.0171 193.618 30.98H189.618C189.618 35.9829 187.844 39.5211 185.195 41.8333C182.507 44.18 178.734 45.42 174.518 45.42V49.42ZM193.618 30.98V5.12H189.618V30.98H193.618ZM191.618 3.12H183.158V7.12H191.618V3.12ZM181.158 5.12V31.04H185.158V5.12H181.158ZM181.158 31.04C181.158 33.5707 180.477 35.1872 179.501 36.1731C178.528 37.1564 176.976 37.8 174.638 37.8V41.8C177.699 41.8 180.408 40.9436 182.344 38.9869C184.278 37.0328 185.158 34.2693 185.158 31.04H181.158ZM174.638 37.8C172.335 37.8 170.798 37.1597 169.83 36.1767C168.859 35.1899 168.178 33.5708 168.178 31.04H164.178C164.178 34.2692 165.057 37.0301 166.98 38.9833C168.907 40.9403 171.601 41.8 174.638 41.8V37.8ZM168.178 31.04V5.12H164.178V31.04H168.178ZM166.178 3.12H157.778V7.12H166.178V3.12ZM155.778 5.12V30.98H159.778V5.12H155.778ZM225.534 37.52H227.534V37.5003L227.533 37.4806L225.534 37.52ZM217.194 24.2L215.202 24.3852L215.371 26.2H217.194V24.2ZM225.234 24.2V26.2H227.384L227.228 24.0549L225.234 24.2ZM206.394 36.5L208.38 36.2636L208.17 34.5H206.394V36.5ZM197.934 36.5V34.5H195.814L195.937 36.6163L197.934 36.5ZM227.533 37.4806C227.462 33.8363 225.988 31.2456 223.79 29.4319C221.695 27.7025 219.031 26.7539 216.667 26.0731C215.485 25.7325 214.265 25.4299 213.229 25.1541C212.153 24.8676 211.242 24.6017 210.495 24.3046C208.869 23.6583 208.874 23.2259 208.874 23.06H204.874C204.874 25.9241 207.181 27.2917 209.017 28.0216C210 28.4127 211.109 28.7289 212.2 29.0195C213.332 29.3208 214.425 29.59 215.56 29.9169C217.832 30.5711 219.818 31.34 221.244 32.5169C222.567 33.6093 223.486 35.1137 223.534 37.5594L227.533 37.4806ZM208.874 23.06C208.874 22.7427 208.968 22.5647 209.219 22.3899C209.555 22.1548 210.283 21.88 211.614 21.88V17.88C209.825 17.88 208.182 18.2352 206.929 19.1101C205.589 20.0453 204.874 21.4573 204.874 23.06H208.874ZM211.614 21.88C212.92 21.88 213.784 22.2226 214.306 22.6378C214.806 23.0353 215.13 23.6034 215.202 24.3852L219.185 24.0148C219.018 22.2166 218.201 20.6247 216.796 19.5072C215.413 18.4074 213.607 17.88 211.614 17.88V21.88ZM217.194 26.2H225.234V22.2H217.194V26.2ZM227.228 24.0549C226.954 20.2776 225.404 17.0099 222.667 14.7052C219.948 12.4155 216.231 11.22 211.854 11.22V15.22C215.516 15.22 218.249 16.2145 220.09 17.7648C221.914 19.3001 223.034 21.5224 223.239 24.3451L227.228 24.0549ZM211.854 11.22C207.395 11.22 203.64 12.4248 200.954 14.5662C198.245 16.7263 196.714 19.7809 196.714 23.18H200.714C200.714 21.0591 201.642 19.1337 203.448 17.6938C205.277 16.2352 208.092 15.22 211.854 15.22V11.22ZM196.714 23.18C196.714 26.8379 198.167 29.4459 200.376 31.267C202.477 32.9986 205.169 33.9425 207.562 34.6154C208.765 34.9533 209.996 35.2493 211.054 35.521C212.149 35.8023 213.081 36.063 213.847 36.355C214.632 36.6542 215.077 36.9266 215.308 37.1465C215.474 37.305 215.494 37.3897 215.494 37.52H219.494C219.494 36.1653 218.926 35.0688 218.066 34.2495C217.27 33.4915 216.248 32.9896 215.272 32.6175C214.277 32.2383 213.155 31.9308 212.049 31.6468C210.906 31.3532 209.79 31.0867 208.645 30.7646C206.343 30.1175 204.341 29.3514 202.92 28.1805C201.608 27.0991 200.714 25.6121 200.714 23.18H196.714ZM215.494 37.52C215.494 37.7841 215.398 38.0522 215.02 38.3216C214.595 38.625 213.767 38.94 212.394 38.94V42.94C214.321 42.94 216.043 42.505 217.342 41.5784C218.69 40.6178 219.494 39.1759 219.494 37.52H215.494ZM212.394 38.94C209.77 38.94 208.53 37.5246 208.38 36.2636L204.408 36.7364C204.858 40.5154 208.298 42.94 212.394 42.94V38.94ZM206.394 34.5H197.934V38.5H206.394V34.5ZM195.937 36.6163C196.378 44.1764 203.411 49.54 212.454 49.54V45.54C204.817 45.54 200.21 41.1836 199.93 36.3837L195.937 36.6163ZM212.454 49.54C216.845 49.54 220.586 48.3688 223.275 46.2338C225.993 44.0753 227.534 41.0014 227.534 37.52H223.534C223.534 39.7386 222.584 41.6747 220.788 43.1012C218.961 44.5512 216.162 45.54 212.454 45.54V49.54Z" fill="#FFF3E4" fill-opacity="0.8"/>
</svg>
