<?xml version="1.0" encoding="utf-8"?>
<!-- Generator: Adobe Illustrator 24.3.0, SVG Export Plug-In . SVG Version: 6.00 Build 0)  -->
<svg version="1.1" id="Layer_1" xmlns="http://www.w3.org/2000/svg" xmlns:xlink="http://www.w3.org/1999/xlink" x="0px" y="0px"
	 viewBox="0 0 30 24.1" style="enable-background:new 0 0 30 24.1;" xml:space="preserve">
<style type="text/css">
	.st0{fill:#F7931E;}
</style>
<path class="st0" d="M28,12.3L28,12.3V4c0-2.2-1.8-4-4-4H4C1.8,0,0,1.8,0,4v11.3c0,1.6,0.9,2.9,2.3,3.5c0.5,0.2,1,0.3,1.5,0.3
	c1,0,1.9-0.4,2.7-1.1l0.2-0.2c0.7-0.7,1.7-1.1,2.7-1.2l4.9-0.1v3.7c0,1.1,0.9,2,2,2l8.5,0.2c0.5,0,1.1,0.2,1.4,0.6l0.4,0.4
	c0.4,0.4,0.9,0.7,1.5,0.7c0.2,0,0.5,0,0.7-0.1c0.8-0.3,1.3-1,1.3-1.9v-7.9C30,13.2,29.1,12.3,28,12.3z M9.4,14.7
	c-1.6,0-3,0.6-4.1,1.7l-0.2,0.2c-0.5,0.5-1.3,0.7-2,0.4C2.4,16.7,2,16.1,2,15.3V4c0-1.1,0.9-2,2-2h20c1.1,0,2,0.9,2,2v8.3h-9.6
	c-1.1,0-2,0.9-2,2v0.3L9.4,14.7z M29,22.1c0,0.5-0.3,0.8-0.6,0.9s-0.8,0.1-1.1-0.3L27,22.3c-0.5-0.6-1.3-1-2.2-1l-8.5-0.2
	c-0.5,0-1-0.5-1-1v-3.7v-2v-0.3c0-0.5,0.5-1,1-1h9.4h2.1H28c0.5,0,1,0.5,1,1V22.1z"/>
</svg>
