<svg width="58" height="58" viewBox="0 0 58 58" fill="none" xmlns="http://www.w3.org/2000/svg">
<rect width="58" height="58" rx="8" fill="#F7931E"/>
<path d="M14 38.5L22.5983 29.9017C24.0628 28.4372 26.4372 28.4372 27.9017 29.9017L36.5 38.5M32.75 34.75L35.7233 31.7767C37.1878 30.3122 39.5622 30.3122 41.0267 31.7767L44 34.75M17.75 46H40.25C42.3211 46 44 44.3211 44 42.25V19.75C44 17.6789 42.3211 16 40.25 16H17.75C15.6789 16 14 17.6789 14 19.75V42.25C14 44.3211 15.6789 46 17.75 46Z" stroke="white" stroke-width="2" stroke-linecap="round" stroke-linejoin="round"/>
<circle cx="35" cy="24" r="3" fill="#98570C"/>
</svg>
