<svg width="58" height="58" viewBox="0 0 58 58" fill="none" xmlns="http://www.w3.org/2000/svg">
<rect width="58" height="58" rx="15" fill="#F7931E"/>
<mask id="path-2-inside-1" fill="white">
<path d="M40.0474 29.0001C40.0474 31.1851 39.3995 33.3211 38.1855 35.1379C36.9716 36.9546 35.2462 38.3706 33.2275 39.2068C31.2088 40.043 28.9875 40.2618 26.8445 39.8355C24.7015 39.4092 22.733 38.357 21.1879 36.812C19.6429 35.2669 18.5907 33.2984 18.1644 31.1554C17.7382 29.0124 17.9569 26.7911 18.7931 24.7724C19.6293 22.7537 21.0453 21.0283 22.862 19.8144C24.6788 18.6004 26.8148 17.9525 28.9998 17.9525V29.0001H40.0474Z"/>
</mask>
<path d="M40.0474 29.0001C40.0474 31.1851 39.3995 33.3211 38.1855 35.1379C36.9716 36.9546 35.2462 38.3706 33.2275 39.2068C31.2088 40.043 28.9875 40.2618 26.8445 39.8355C24.7015 39.4092 22.733 38.357 21.1879 36.812C19.6429 35.2669 18.5907 33.2984 18.1644 31.1554C17.7382 29.0124 17.9569 26.7911 18.7931 24.7724C19.6293 22.7537 21.0453 21.0283 22.862 19.8144C24.6788 18.6004 26.8148 17.9525 28.9998 17.9525V29.0001H40.0474Z" stroke="#FFF9F2" stroke-width="4" mask="url(#path-2-inside-1)"/>
<path d="M35.7533 15.2683C36.0626 14.6394 36.8261 14.3762 37.4294 14.7327C40.0143 16.2598 42.1363 18.4613 43.5674 21.1006C43.9014 21.7166 43.6104 22.47 42.9706 22.7559V22.7559C42.3308 23.0418 41.5854 22.7515 41.2428 22.1402C40.0645 20.037 38.3635 18.2724 36.3051 17.0175C35.7068 16.6527 35.444 15.8971 35.7533 15.2683V15.2683Z" fill="#98570C"/>
<path d="M22.2467 15.2683C21.9374 14.6394 21.1739 14.3762 20.5706 14.7327C17.9857 16.2598 15.8637 18.4613 14.4326 21.1006C14.0986 21.7166 14.3896 22.47 15.0294 22.7559V22.7559C15.6692 23.0418 16.4146 22.7515 16.7572 22.1402C17.9355 20.037 19.6365 18.2724 21.6949 17.0175C22.2932 16.6527 22.556 15.8971 22.2467 15.2683V15.2683Z" fill="#98570C"/>
</svg>
