<svg width="64" height="65" viewBox="0 0 64 65" fill="none" xmlns="http://www.w3.org/2000/svg">
<path d="M20.341 31.4735C16.1543 31.4735 13.333 34.431 13.333 38.8131C13.333 42.7565 16.5757 46.0417 20.9677 46.0417C25.7783 46.0417 29.333 42.0983 29.333 36.075C29.333 22.3844 19.5037 16.9081 13.333 16.25V22.2733C17.517 23.0398 22.221 27.3108 22.4317 32.0233C22.221 31.915 21.3863 31.4735 20.341 31.4735Z" fill="#FFEBD5"/>
<path d="M41.6718 31.4735C37.4905 31.4735 34.6665 34.431 34.6665 38.8131C34.6665 42.7565 37.9092 46.0417 42.3012 46.0417C47.1118 46.0417 50.6665 42.0983 50.6665 36.075C50.6665 22.3844 40.8372 16.9081 34.6665 16.25V22.2733C38.8505 23.0398 43.5545 27.3108 43.7652 32.0233C43.5545 31.915 42.7198 31.4735 41.6718 31.4735Z" fill="#FFEBD5"/>
</svg>
