<svg width="58" height="58" viewBox="0 0 58 58" fill="none" xmlns="http://www.w3.org/2000/svg">
<rect width="58" height="58" rx="15" fill="#F7931E"/>
<path d="M32.107 19.3333L23.7939 24.751C21.0679 26.5276 21.4907 30.6425 24.5212 31.8275L31.4165 34.5238" stroke="#98570C" stroke-width="2" stroke-linecap="round" stroke-linejoin="round"/>
<circle cx="33.2533" cy="18.7533" r="3.25333" fill="#F7931E" stroke="#FFF9F2" stroke-width="2"/>
<path d="M43.1905 35.7666C43.1905 39.2032 40.2766 42.0581 36.5952 42.0581C32.9139 42.0581 30 39.2032 30 35.7666C30 32.3301 32.9139 29.4752 36.5952 29.4752C40.2766 29.4752 43.1905 32.3301 43.1905 35.7666Z" fill="#F7931E" stroke="#FFF9F2" stroke-width="2"/>
<path d="M24.3543 29.0829C24.3543 31.5006 22.2693 33.5515 19.582 33.5515C16.8946 33.5515 14.8096 31.5006 14.8096 29.0829C14.8096 26.6652 16.8946 24.6143 19.582 24.6143C22.2693 24.6143 24.3543 26.6652 24.3543 29.0829Z" fill="#F7931E" stroke="#FFF9F2" stroke-width="2"/>
</svg>
