<svg width="58" height="58" viewBox="0 0 58 58" fill="none" xmlns="http://www.w3.org/2000/svg">
<rect width="58" height="58" rx="8" fill="#F7931E"/>
<circle cx="19.3333" cy="27.6192" r="11.0476" fill="#98570C"/>
<path d="M27.4648 25.6375L25.7924 32.4525H23.4628L22.5251 28.2765L21.5681 32.4525H19.2384L17.5854 25.6375H19.6348L20.4274 30.2968L21.5004 25.6375H23.5788L24.6228 30.2581L25.4154 25.6375H27.4648Z" fill="#FFF9F2"/>
<path d="M37.8678 25.6375L36.1954 32.4525H33.8658L32.9281 28.2765L31.9711 32.4525H29.6414L27.9884 25.6375H30.0378L30.8304 30.2968L31.9034 25.6375H33.9818L35.0258 30.2581L35.8184 25.6375H37.8678Z" fill="#FFF9F2"/>
<path d="M48.2708 25.6375L46.5984 32.4525H44.2688L43.3311 28.2765L42.3741 32.4525H40.0444L38.3914 25.6375H40.4408L41.2334 30.2968L42.3064 25.6375H44.3848L45.4288 30.2581L46.2214 25.6375H48.2708Z" fill="#FFF9F2"/>
</svg>
