<svg width="17" height="19" viewBox="0 0 17 19" fill="none" xmlns="http://www.w3.org/2000/svg">
<path d="M7.10426 7.39767C4.47114 7.27066 2.64029 8.20934 1.61262 10.2146C0.0715641 13.2216 1.34564 18.1426 6.48757 18.1426C11.6299 18.1426 11.7784 13.1737 11.7784 12.6527V6.83241C12.8785 7.5287 13.8056 7.94817 14.5605 8.09038C15.3153 8.23215 15.7947 8.2952 16 8.2791V5.38303C15.3019 5.29895 14.6982 5.13841 14.1888 4.90184C13.4246 4.54676 11.9099 3.56157 11.9099 2.11756C11.9108 2.12471 11.9108 1.75219 11.9099 1H8.72671C8.71732 8.07294 8.71732 11.9573 8.72671 12.6532C8.74102 13.697 7.93114 15.1575 6.28946 15.1575C4.64733 15.1575 3.8379 13.6983 3.8379 12.7574C3.8379 12.1814 4.03556 11.3465 4.85349 10.728C5.33871 10.3613 6.01175 10.215 7.10426 10.215V7.39767V7.39767Z" stroke="#858585" stroke-linejoin="round"/>
</svg>
