<svg width="617" height="311" viewBox="0 0 617 311" fill="none" xmlns="http://www.w3.org/2000/svg">
<g filter="url(#filter0_d)">
<rect x="5" y="73" width="592" height="228" rx="40" fill="white"/>
<rect x="5.5" y="73.5" width="591" height="227" rx="39.5" stroke="#F3F3F3"/>
</g>
<path d="M547.137 101.396C546.516 101.824 545.908 102.259 545.301 102.707C539.443 119.707 536.468 137.573 536.5 155.561C536.498 157.641 536.543 159.716 536.635 161.786C537.282 177.309 540.233 192.648 545.391 207.298C545.663 208.069 545.94 208.837 546.222 209.601C546.424 210.15 546.629 210.703 546.85 211.247C547.07 211.52 547.288 211.789 547.505 212.057C547.52 212.069 547.533 212.089 547.549 212.101C547.636 212.209 547.724 212.318 547.803 212.424C548.178 212.885 548.559 213.342 548.934 213.802L548.637 213.836L547.892 213.917L547.896 213.922C548.146 213.906 548.402 213.886 548.654 213.861C548.746 213.857 548.846 213.854 548.939 213.842C549.023 213.837 549.111 213.828 549.195 213.822C559.949 213.038 570.944 211.996 580.542 207.131C590.588 202.034 598.834 191.63 597.881 180.379C597.752 178.905 597.463 177.451 597.018 176.041C596.832 175.452 596.618 174.874 596.39 174.299C595.005 170.776 592.71 167.687 589.741 165.35C586.772 163.012 583.235 161.51 579.496 160.998C575.756 160.486 571.949 160.983 568.464 162.437C564.979 163.892 561.943 166.251 559.668 169.273C562.082 157.548 574.432 151.058 585.634 146.943C596.844 142.831 609.469 138.488 614.806 127.779C617.786 121.82 617.558 115.045 615.158 108.889C615.085 108.705 615.008 108.517 614.927 108.331C611.928 101.096 606.318 95.263 599.219 91.9977C585.93 86.134 570.24 89.1328 557.185 95.5035C553.692 97.2101 550.333 99.18 547.137 101.396Z" fill="#493333"/>
<rect x="433.5" y="0.5" width="131" height="253" rx="19.5" fill="white" stroke="#F0F0F0"/>
<path d="M347.492 257.793H352.286L354.566 239.242H347.492L347.492 257.793Z" fill="#F7931E"/>
<path d="M587.789 174.739C577.617 176.148 568.165 180.803 560.833 188.017C554.591 194.227 550.13 202.008 547.919 210.544C547.789 211.033 547.674 211.52 547.567 212.008C547.286 211.527 547.013 211.034 546.742 210.546C546.568 210.234 546.391 209.916 546.222 209.601C546.424 210.149 546.63 210.703 546.85 211.246C547.071 211.52 547.288 211.789 547.505 212.057C547.52 212.069 547.534 212.089 547.549 212.1C547.636 212.209 547.724 212.317 547.803 212.424C548.178 212.884 548.559 213.341 548.934 213.802L548.637 213.836L547.893 213.917L547.896 213.922C548.146 213.905 548.402 213.885 548.654 213.86C548.746 213.857 548.846 213.854 548.939 213.842C548.964 213.694 548.996 213.548 549.029 213.402C551.183 202.409 557.229 192.57 566.05 185.703C574.871 178.835 585.871 175.403 597.018 176.04C596.832 175.451 596.618 174.874 596.391 174.299C593.516 174.194 590.638 174.342 587.789 174.739Z" fill="white"/>
<path d="M551.905 133.417C547.946 136.686 544.484 140.517 541.628 144.79C540.143 147.066 538.872 149.476 537.832 151.988C537.338 153.155 536.894 154.353 536.501 155.561C536.498 157.641 536.543 159.716 536.636 161.786C536.945 160.204 537.338 158.64 537.813 157.1C538.059 156.255 538.336 155.425 538.633 154.604C541.97 145.405 548.433 137.967 556.191 132.182C564.505 125.992 573.976 121.197 583.628 117.513C593.52 113.722 603.837 111.162 614.349 109.89C614.586 109.86 614.803 109.739 614.953 109.552C615.104 109.366 615.177 109.128 615.158 108.889C615.156 108.68 615.074 108.48 614.927 108.331C614.85 108.261 614.757 108.211 614.657 108.184C614.557 108.157 614.451 108.154 614.35 108.175C613.053 108.332 611.759 108.495 610.467 108.692C599.716 110.301 589.206 113.246 579.179 117.459C569.499 121.512 559.969 126.63 551.905 133.417Z" fill="white"/>
<path d="M503.461 5.59185C503.892 5.59185 504.242 5.24059 504.242 4.80728C504.242 4.37397 503.892 4.02271 503.461 4.02271C503.029 4.02271 502.679 4.37397 502.679 4.80728C502.679 5.24059 503.029 5.59185 503.461 5.59185Z" fill="white"/>
<path d="M584.154 262.54H323.391C323.287 262.54 323.188 262.499 323.115 262.425C323.041 262.351 323 262.252 323 262.148C323 262.044 323.041 261.944 323.115 261.87C323.188 261.797 323.287 261.755 323.391 261.755H584.154C584.258 261.755 584.357 261.797 584.43 261.87C584.504 261.944 584.545 262.044 584.545 262.148C584.545 262.252 584.504 262.351 584.43 262.425C584.357 262.499 584.258 262.54 584.154 262.54Z" fill="#858585"/>
<path d="M346.27 256.223L355.709 256.222H355.709C357.305 256.222 358.835 256.858 359.963 257.99C361.091 259.122 361.725 260.657 361.725 262.258V262.454L346.27 262.455L346.27 256.223Z" fill="#2F2E41"/>
<path d="M391.67 257.793H396.463L398.743 239.242H391.669L391.67 257.793Z" fill="#F7931E"/>
<path d="M390.447 256.223L399.886 256.222H399.887C401.482 256.222 403.012 256.858 404.14 257.99C405.268 259.122 405.902 260.657 405.902 262.258V262.454L390.448 262.455L390.447 256.223Z" fill="#2F2E41"/>
<path d="M385.882 108.764L389.01 128.77L359.298 129.163L363.207 109.941L385.882 108.764Z" fill="#F4CDC3"/>
<path d="M390.183 123.67L397.611 149.169L398.784 253.95H390.769L371.613 169.764L354.02 251.752H346.201L351.674 159.564C351.674 159.564 348.938 136.812 358.321 130.143V124.291L390.183 123.67Z" fill="#432E2D"/>
<path d="M347.556 143.595C348.383 143.369 349.151 142.963 349.805 142.407C350.46 141.851 350.984 141.158 351.343 140.376C351.701 139.594 351.884 138.743 351.879 137.883C351.874 137.023 351.681 136.174 351.314 135.396L363.954 94.0458L354.657 92.1965L343.096 132.729C341.835 133.434 340.876 134.58 340.401 135.947C339.925 137.315 339.966 138.81 340.516 140.15C341.066 141.489 342.086 142.58 343.384 143.215C344.681 143.85 346.166 143.985 347.556 143.595Z" fill="#F4CDC3"/>
<path d="M382.822 67.5021C388.059 62.2473 388.059 53.7278 382.822 48.473C377.585 43.2183 369.095 43.2183 363.858 48.473C358.621 53.7278 358.621 62.2473 363.858 67.5021C369.095 72.7568 377.585 72.7568 382.822 67.5021Z" fill="#F4CDC3"/>
<path d="M363.752 119.551C363.225 119.446 362.748 119.171 362.392 118.767C362.037 118.364 361.823 117.854 361.784 117.317C361.489 113.265 360.03 106.224 357.449 96.388C356.867 94.1649 356.76 91.8435 357.136 89.576C357.511 87.3086 358.36 85.1465 359.626 83.2314C360.893 81.3163 362.549 79.6915 364.485 78.4637C366.422 77.2359 368.595 76.4328 370.862 76.107C373.012 75.7949 375.202 75.9184 377.303 76.4705C379.404 77.0225 381.373 77.9918 383.095 79.321C384.816 80.6501 386.254 82.3122 387.324 84.2088C388.393 86.1054 389.073 88.1981 389.323 90.3629C390.6 101.65 388.191 112.988 387.096 117.339C386.963 117.863 386.663 118.328 386.241 118.665C385.819 119.001 385.299 119.189 384.761 119.201L364.28 119.597C364.103 119.601 363.926 119.586 363.752 119.551Z" fill="#E4E4E4"/>
<path d="M421.448 83.4904C421.325 83.7673 421.224 84.0535 421.146 84.3463L395.509 93.0877L390.555 88.7453L383.047 95.3904L391.072 103.933C391.72 104.623 392.574 105.084 393.506 105.245C394.437 105.407 395.395 105.261 396.237 104.83L423.67 90.7692C424.662 91.3798 425.816 91.6729 426.978 91.6094C428.14 91.546 429.256 91.1291 430.176 90.4141C431.096 89.6991 431.777 88.7199 432.129 87.6068C432.481 86.4937 432.487 85.2994 432.147 84.1828C431.806 83.0663 431.134 82.0803 430.221 81.356C429.308 80.6317 428.197 80.2036 427.036 80.1284C425.874 80.0532 424.718 80.3346 423.719 80.9352C422.721 81.5358 421.929 82.427 421.448 83.4904H421.448Z" fill="#F4CDC3"/>
<path d="M394.615 93.5657L385.27 101.756C385.004 101.989 384.691 102.162 384.352 102.263C384.014 102.364 383.658 102.39 383.308 102.34C382.959 102.291 382.624 102.166 382.327 101.975C382.03 101.783 381.777 101.53 381.586 101.232L374.901 90.7868C373.721 89.4149 373.131 87.6293 373.26 85.8214C373.39 84.0135 374.229 82.331 375.592 81.1426C376.956 79.9543 378.734 79.3572 380.536 79.4821C382.338 79.6071 384.018 80.444 385.206 81.8093L394.593 89.8327C394.861 90.0625 395.078 90.3477 395.227 90.6689C395.376 90.9902 395.454 91.3398 395.456 91.694C395.458 92.0483 395.384 92.3989 395.239 92.7219C395.094 93.0448 394.881 93.3327 394.615 93.5657V93.5657Z" fill="#E4E4E4"/>
<path d="M362.478 104.633L350.929 100.08C350.6 99.9507 350.303 99.7516 350.058 99.4965C349.813 99.2415 349.626 98.9364 349.509 98.6021C349.392 98.2679 349.348 97.9122 349.38 97.5594C349.413 97.2067 349.521 96.865 349.697 96.5578L355.859 85.794C356.528 84.1101 357.836 82.7615 359.495 82.0439C361.155 81.3264 363.03 81.2985 364.709 81.9663C366.389 82.6342 367.736 83.9433 368.455 85.6065C369.175 87.2697 369.207 89.1512 368.545 90.8383L365.77 102.894C365.69 103.239 365.538 103.563 365.322 103.844C365.106 104.124 364.833 104.355 364.521 104.52C364.208 104.685 363.864 104.78 363.512 104.8C363.159 104.819 362.807 104.763 362.478 104.633V104.633Z" fill="#E4E4E4"/>
<path d="M379.541 54.9733C382.463 57.9675 386.43 61.2371 390.372 59.4515C392.96 58.2789 394.268 55.4147 393.87 52.5936C393.153 47.5204 389.023 44.5282 384.996 42.0631C379.76 38.8585 373.938 35.9797 367.814 36.3107C361.69 36.6416 355.419 41.2805 355.297 47.4333C355.199 52.3812 358.907 57.252 357.318 61.9372C355.719 66.6525 349.788 68.1221 344.825 68.0345C339.862 67.9469 334.445 67.1584 330.319 69.9272C325.055 73.4592 324.597 81.5525 327.811 87.0265C331.026 92.5005 336.848 95.8499 342.609 98.4857C350.243 101.978 358.708 104.699 366.937 103.06C375.166 101.421 382.762 94.1138 382.13 85.7193C381.863 82.1735 380.232 78.8971 378.659 75.7105C377.086 72.524 375.512 69.2058 375.374 65.6525C375.259 62.6915 376.406 59.5084 378.693 57.7594C379.106 57.4558 379.413 57.0287 379.569 56.5393C379.725 56.0499 379.723 55.5235 379.562 55.0356L379.541 54.9733Z" fill="#452D2D"/>
<path d="M532 63C532 60.7909 533.791 59 536 59H603C605.209 59 607 60.7909 607 63V99.0674C607 101.25 605.25 103.03 603.068 103.067L554.656 103.889C553.617 103.907 552.626 104.328 551.893 105.063L538.832 118.153C536.313 120.677 532 118.894 532 115.328V100.25V63Z" fill="#F7931E"/>
<rect x="554" y="77" width="6" height="6" rx="1" fill="#FCFEFE"/>
<rect x="568" y="77" width="6" height="6" rx="1" fill="#FCFEFE"/>
<rect x="582" y="77" width="6" height="6" rx="1" fill="#FCFEFE"/>
<path d="M477.091 149C477.091 146.791 475.3 145 473.091 145H422C419.791 145 418 146.791 418 149V175.734C418 177.917 419.75 179.696 421.932 179.733L458.897 180.361C459.936 180.379 460.927 180.8 461.661 181.536L470.259 190.153C472.778 192.677 477.091 190.894 477.091 187.328V177.5V149Z" fill="#F7931E"/>
<rect x="432.182" y="159.182" width="4.72727" height="4.72727" rx="1" fill="#FCFEFE"/>
<rect x="443.212" y="159.182" width="4.72727" height="4.72727" rx="1" fill="#FCFEFE"/>
<rect x="454.242" y="159.182" width="4.72727" height="4.72727" rx="1" fill="#FCFEFE"/>
<rect x="474" y="10" width="49" height="4" rx="2" fill="#EEEEEE"/>
<defs>
<filter id="filter0_d" x="0" y="73" width="602" height="238" filterUnits="userSpaceOnUse" color-interpolation-filters="sRGB">
<feFlood flood-opacity="0" result="BackgroundImageFix"/>
<feColorMatrix in="SourceAlpha" type="matrix" values="0 0 0 0 0 0 0 0 0 0 0 0 0 0 0 0 0 0 127 0"/>
<feOffset dy="5"/>
<feGaussianBlur stdDeviation="2.5"/>
<feColorMatrix type="matrix" values="0 0 0 0 0.845833 0 0 0 0 0.845833 0 0 0 0 0.845833 0 0 0 0.05 0"/>
<feBlend mode="normal" in2="BackgroundImageFix" result="effect1_dropShadow"/>
<feBlend mode="normal" in="SourceGraphic" in2="effect1_dropShadow" result="shape"/>
</filter>
</defs>
</svg>
